<svg xmlns="http://www.w3.org/2000/svg" xmlns:xlink="http://www.w3.org/1999/xlink" width="24" height="24"><defs><path fill="#a3a9ad" id="a" d="M12 4c-3.309 0-6 2.691-6 6 0 2.524 3.839 7.206 6 9.547 2.161-2.342 6-7.026 6-9.547 0-3.309-2.691-6-6-6zm0 18.428l-.714-.728C10.54 20.94 4 14.155 4 10c0-4.411 3.589-8 8-8s8 3.589 8 8c0 4.155-6.54 10.94-7.286 11.7l-.714.728zM12 8c-1.103 0-2 .897-2 2s.897 2 2 2 2-.897 2-2-.897-2-2-2zm0 6c-2.206 0-4-1.794-4-4s1.794-4 4-4 4 1.794 4 4-1.794 4-4 4z"/></defs><use fill-rule="evenodd" xlink:href="#a"/></svg>