<svg xmlns="http://www.w3.org/2000/svg" xmlns:xlink="http://www.w3.org/1999/xlink" width="24" height="24"><defs><path fill="#a3a9ad" id="a" d="M15.252 19.302l.65-4.55 3.962-1.32a8.02 8.02 0 01-4.612 5.87m-4.398.606l-.952-6.661-5.866-1.955c.07-.804.26-1.573.552-2.292h14.823c.292.719.482 1.488.552 2.292l-5.866 1.955-.95 6.66A7.886 7.886 0 0112 20c-.39 0-.77-.037-1.146-.092m-6.719-6.475l3.962 1.32.65 4.549a8.02 8.02 0 01-4.612-5.87M12 4a7.984 7.984 0 016.234 3H5.765A7.984 7.984 0 0112 4m0-2C6.485 2 2 6.487 2 12c0 5.514 4.485 10 10 10 5.514 0 10-4.486 10-10 0-5.513-4.486-10-10-10"/></defs><use fill-rule="evenodd" xlink:href="#a"/></svg>