<svg xmlns="http://www.w3.org/2000/svg" xmlns:xlink="http://www.w3.org/1999/xlink" width="50" height="50"><defs><path id="a" d="M17.5 21.6c.1 0 .1 0 0 0 .1 0 .1 0 0 0zm13.8 20.2c-.7-.5-5.4-3.7-13-10.5l-.1-.1c-7.4-6.7-11.3-10.8-12-11.6-1.9-3.4-.8-8.8 2.4-11.8.6-.6 1.2-.8 2.5-.4 1.4.5 3.3 1.8 5.8 4.1l.1.1c2 1.8 3.1 3.5 2.9 4.6-.1.5-.4.9-1 1.3-.3.1-1.3.4-1.6.4h-.1c-.9.1-1.6.6-1.9 1.4-.5 1.2-.3 2.8 6.4 8.8 6.1 5.5 8.3 5.9 9.8 5.5 1-.3 1.5-1 1.7-1.6v-.1c.1-.4.6-1.2.8-1.6.5-.8 1.1-.9 1.3-.9.5-.1 2 0 4.5 2.3l.1.1c6.2 5.6 4.9 6.9 4.2 7.6-2.7 2.5-5.6 3.4-8.2 3.4-1.7 0-3.3-.4-4.6-1M5.7 5.3C1.3 9.5 0 16.7 2.8 21.5l.2.3c.2.2 4 4.4 12.4 12l.1.1c8.5 7.7 13.4 10.8 13.6 11l.2.1c3.6 1.7 7.6 1.9 11.3.6 2.2-.7 4.4-2 6.2-3.7 4.8-4.5-1.4-10-4.4-12.7-2.8-2.5-5.4-3.6-7.8-3.3-1.7.2-3.2 1.2-4.1 2.6 0 0-.4.6-.8 1.3-.9-.5-2.6-1.6-5.4-4.2-2.4-2.2-3.8-3.6-4.5-4.4.4-.1.8-.3 1-.4 1.6-.9 2.6-2.3 2.8-4 .3-2.4-1.1-5-4.1-7.6-2.9-2.7-5.1-4.2-7.1-4.9-1-.4-1.8-.5-2.6-.5-1.8-.2-3.2.6-4.1 1.5"/></defs><clipPath id="b"><use xlink:href="#a" overflow="visible"/></clipPath><linearGradient id="c" gradientUnits="userSpaceOnUse" x1="-114.753" y1="75.816" x2="-113.422" y2="75.816" gradientTransform="translate(4083.31 -2671.703) scale(35.5718)"><stop offset="0" stop-color="#b68c2d"/><stop offset=".117" stop-color="#c5a14d"/><stop offset=".321" stop-color="#deca8d"/><stop offset=".467" stop-color="#f2e8bb"/><stop offset=".539" stop-color="#faf8cf"/><stop offset="1" stop-color="#c2972f"/></linearGradient><path clip-path="url(#b)" fill="url(#c)" d="M0 3.6h51.7v43.3H0z"/></svg>