<svg width="32" height="33" viewBox="0 0 32 33" fill="none" xmlns="http://www.w3.org/2000/svg">
<g clip-path="url(#clip0_281_351)">
<path d="M32 16.751C32 7.91448 24.8365 0.750977 16 0.750977C7.1635 0.750977 0 7.91435 0 16.751C0 24.737 5.851 31.3564 13.5 32.5566V21.376H9.4375V16.751H13.5V13.226C13.5 9.21598 15.8888 7.00098 19.5434 7.00098C21.294 7.00098 23.125 7.31348 23.125 7.31348V11.251H21.1075C19.1198 11.251 18.5 12.4844 18.5 13.7497V16.751H22.9375L22.2281 21.376H18.5V32.5566C26.149 31.3564 32 24.7371 32 16.751Z" fill="#1877F2"/>
<path d="M22.2281 21.376L22.9375 16.751H18.5V13.7497C18.5 12.4842 19.1199 11.251 21.1075 11.251H23.125V7.31348C23.125 7.31348 21.294 7.00098 19.5434 7.00098C15.8888 7.00098 13.5 9.21598 13.5 13.226V16.751H9.4375V21.376H13.5V32.5566C14.327 32.6862 15.1629 32.7512 16 32.751C16.8371 32.7512 17.673 32.6862 18.5 32.5566V21.376H22.2281Z" fill="white"/>
</g>
<defs>
<clipPath id="clip0_281_351">
<rect width="32" height="32" fill="white" transform="translate(0 0.750977)"/>
</clipPath>
</defs>
</svg>
