<svg width="128" height="45" viewBox="0 0 128 45" fill="none" xmlns="http://www.w3.org/2000/svg">
<g clip-path="url(#clip0_281_292)">
<path d="M16.84 13.5809C16.8426 15.8097 15.9605 17.9483 14.3874 19.5271C12.8142 21.1059 10.6787 21.9956 8.45001 22.0009H3.91998V26.4709C3.91998 26.9802 3.71767 27.4685 3.3576 27.8286C2.99754 28.1886 2.50922 28.3909 2 28.3909C1.49078 28.3909 1.0024 28.1886 0.642334 27.8286C0.282264 27.4685 0.0799561 26.9802 0.0799561 26.4709V7.12091C0.0799561 6.6117 0.282264 6.12338 0.642334 5.76331C1.0024 5.40324 1.49078 5.20093 2 5.20093H8.45001C10.6718 5.2062 12.8012 6.09046 14.3732 7.66058C15.9452 9.23071 16.832 11.3591 16.84 13.5809ZM13.01 13.5809C13.0047 12.3759 12.5216 11.2222 11.6667 10.373C10.8119 9.52373 9.65502 9.04824 8.45001 9.0509H3.91998V18.1409H8.45001C9.04921 18.1422 9.64275 18.0252 10.1966 17.7965C10.7504 17.5678 11.2536 17.232 11.6773 16.8083C12.101 16.3846 12.4369 15.8814 12.6656 15.3275C12.8943 14.7737 13.0113 14.1801 13.01 13.5809Z" fill="white"/>
<path d="M34.09 25.161C34.4324 25.5414 34.6159 26.0384 34.6029 26.55C34.5899 27.0615 34.3813 27.5486 34.02 27.911C33.6658 28.2529 33.1923 28.443 32.7001 28.441C32.4392 28.4447 32.1804 28.3931 31.9409 28.2897C31.7013 28.1863 31.4863 28.0334 31.3101 27.841L25.6901 22.021H21.99V26.521C22.0091 26.7841 21.9737 27.0484 21.886 27.2972C21.7984 27.546 21.6605 27.7741 21.4808 27.9673C21.3011 28.1604 21.0835 28.3144 20.8417 28.4198C20.5998 28.5251 20.3389 28.5795 20.0751 28.5795C19.8113 28.5795 19.5503 28.5251 19.3084 28.4198C19.0665 28.3144 18.849 28.1604 18.6693 27.9673C18.4896 27.7741 18.3516 27.546 18.264 27.2972C18.1764 27.0484 18.141 26.7841 18.16 26.521V7.15103C18.16 6.89936 18.2098 6.65014 18.3064 6.41775C18.403 6.18536 18.5446 5.97439 18.723 5.7969C18.9014 5.61941 19.1132 5.47891 19.3461 5.38351C19.579 5.28811 19.8283 5.23968 20.08 5.24099H26.52C28.4176 5.23802 30.26 5.8792 31.7458 7.05954C33.2316 8.23987 34.2728 9.88949 34.699 11.7386C35.1253 13.5876 34.9114 15.5266 34.0923 17.2383C33.2732 18.95 31.8974 20.333 30.1901 21.161L34.09 25.161ZM21.99 18.161H26.52C27.7294 18.161 28.8893 17.6806 29.7444 16.8254C30.5996 15.9702 31.08 14.8104 31.08 13.601C31.08 12.3917 30.5996 11.2318 29.7444 10.3766C28.8893 9.52145 27.7294 9.04104 26.52 9.04104H21.99V18.161Z" fill="white"/>
<path d="M58.92 7.04098V6.69094L58.5899 6.59097C58.2799 6.50097 51.11 4.34095 49 4.45095C46.89 4.33095 39.7199 6.45097 39.4099 6.59097L39.0799 6.69094V7.04098C38.5699 25.841 47.8 28.431 48.86 28.661H49.1599C50.1599 28.431 59.39 25.841 58.92 7.04098ZM48.92 24.481C47.28 23.661 43.26 20.551 42.99 9.71096C44.8709 9.12872 46.7978 8.7072 48.75 8.45095H49.1499C51.084 8.71215 52.9937 9.1302 54.86 9.70095C54.61 20.581 50.61 23.651 48.92 24.481Z" fill="white"/>
<path d="M45.7601 13.941C45.7601 13.98 45.7523 14.0185 45.7371 14.0544C45.7219 14.0902 45.6996 14.1226 45.6716 14.1497C45.6436 14.1768 45.6104 14.1979 45.5741 14.2119C45.5377 14.2259 45.4989 14.2324 45.46 14.2311C45.3831 14.2311 45.3094 14.2005 45.255 14.1461C45.2006 14.0917 45.17 14.0179 45.17 13.941C45.17 13.8641 45.2006 13.7904 45.255 13.736C45.3094 13.6816 45.3831 13.6511 45.46 13.6511C45.4989 13.6497 45.5377 13.6562 45.5741 13.6702C45.6104 13.6841 45.6436 13.7053 45.6716 13.7324C45.6996 13.7594 45.7219 13.7918 45.7371 13.8277C45.7523 13.8635 45.7601 13.9021 45.7601 13.941Z" fill="white"/>
<path d="M45.7501 14.8309V16.7209C45.7501 16.8309 45.62 16.9109 45.46 16.9109C45.3 16.9109 45.1801 16.8309 45.1801 16.7209V14.8309C45.1801 14.7309 45.31 14.6409 45.46 14.6409C45.61 14.6409 45.7501 14.7309 45.7501 14.8309Z" fill="white"/>
<path d="M49.3701 15.0411V16.631C49.3701 16.7053 49.3406 16.7765 49.2881 16.829C49.2355 16.8815 49.1643 16.9111 49.0901 16.9111C49.0529 16.9125 49.0159 16.9061 48.9813 16.8926C48.9467 16.879 48.9152 16.8584 48.8889 16.8321C48.8627 16.8059 48.8421 16.7745 48.8285 16.7399C48.8149 16.7052 48.8087 16.6682 48.8101 16.631V15.0411C48.8197 14.9346 48.8073 14.8272 48.7737 14.7257C48.7401 14.6242 48.686 14.5307 48.6147 14.451C48.5434 14.3713 48.4565 14.307 48.3594 14.2623C48.2623 14.2176 48.157 14.1933 48.0501 14.191C47.9432 14.1933 47.8379 14.2176 47.7408 14.2623C47.6436 14.307 47.5567 14.3713 47.4854 14.451C47.4142 14.5307 47.3601 14.6242 47.3264 14.7257C47.2928 14.8272 47.2804 14.9346 47.2901 15.0411V16.631C47.2901 16.7053 47.2605 16.7765 47.208 16.829C47.1555 16.8815 47.0844 16.9111 47.0101 16.9111C46.9358 16.9111 46.8646 16.8815 46.8121 16.829C46.7596 16.7765 46.7301 16.7053 46.7301 16.631V15.0411C46.7144 14.6752 46.8396 14.3173 47.08 14.0411C47.203 13.898 47.3571 13.7849 47.5304 13.7104C47.7037 13.6359 47.8916 13.602 48.08 13.6111C48.2685 13.602 48.4565 13.6359 48.6298 13.7104C48.8031 13.7849 48.957 13.898 49.08 14.0411C49.2946 14.3283 49.3977 14.6836 49.3701 15.0411Z" fill="white"/>
<path d="M51.5901 13.6309C51.2661 13.6328 50.95 13.7307 50.6817 13.9121C50.4133 14.0935 50.2047 14.3503 50.0821 14.6501C49.9595 14.95 49.9284 15.2795 49.9928 15.5969C50.0572 15.9144 50.2142 16.2057 50.4439 16.434C50.6737 16.6624 50.9659 16.8176 51.2838 16.8801C51.6016 16.9425 51.9309 16.9095 52.2299 16.785C52.529 16.6606 52.7846 16.4504 52.9644 16.181C53.1442 15.9115 53.2401 15.5948 53.2401 15.2709C53.2374 14.835 53.0624 14.4179 52.7533 14.1106C52.4441 13.8033 52.0259 13.6309 51.5901 13.6309ZM51.5901 16.3509C51.3765 16.3509 51.1677 16.2876 50.9901 16.1689C50.8125 16.0502 50.674 15.8815 50.5923 15.6841C50.5105 15.4868 50.4892 15.2697 50.5309 15.0602C50.5725 14.8507 50.6753 14.6582 50.8264 14.5072C50.9774 14.3562 51.1699 14.2533 51.3794 14.2116C51.5889 14.1699 51.806 14.1913 52.0034 14.2731C52.2007 14.3548 52.3694 14.4932 52.4881 14.6708C52.6067 14.8484 52.6701 15.0573 52.6701 15.2709C52.6714 15.4131 52.6444 15.5541 52.5906 15.6857C52.5368 15.8174 52.4573 15.937 52.3567 16.0375C52.2562 16.1381 52.1366 16.2176 52.005 16.2714C51.8733 16.3252 51.7323 16.3522 51.5901 16.3509Z" fill="white"/>
<path d="M95.64 12.181L92.97 18.281H98.3101L95.64 12.181ZM95.64 12.181L92.97 18.281H98.3101L95.64 12.181ZM123.4 0.250977H66.02C64.9592 0.250977 63.9417 0.672401 63.1916 1.42255C62.4414 2.17269 62.02 3.19011 62.02 4.25098V28.601C62.02 29.6619 62.4414 30.6793 63.1916 31.4294C63.9417 32.1796 64.9592 32.601 66.02 32.601H123.4C124.461 32.601 125.478 32.1796 126.228 31.4294C126.979 30.6793 127.4 29.6619 127.4 28.601V4.29102C127.405 3.76237 127.306 3.23791 127.107 2.74799C126.908 2.25806 126.615 1.81233 126.243 1.43665C125.871 1.06096 125.428 0.762781 124.94 0.559265C124.452 0.35575 123.929 0.25095 123.4 0.250977ZM85.4 24.961C85.4 25.4092 85.222 25.8391 84.905 26.156C84.5881 26.4729 84.1582 26.651 83.71 26.651C83.2618 26.651 82.832 26.4729 82.515 26.156C82.1981 25.8391 82.02 25.4092 82.02 24.961V13.481L77.46 20.281C77.3072 20.5141 77.0987 20.7056 76.8535 20.8381C76.6082 20.9706 76.3338 21.0399 76.0551 21.0399C75.7763 21.0399 75.5019 20.9706 75.2566 20.8381C75.0113 20.7056 74.8029 20.5141 74.65 20.281L70.09 13.481V24.961C70.1079 25.1932 70.0777 25.4265 70.0011 25.6465C69.9245 25.8664 69.8034 26.0682 69.6451 26.2391C69.4869 26.41 69.2951 26.5463 69.0817 26.6395C68.8683 26.7328 68.6379 26.7809 68.405 26.7809C68.1721 26.7809 67.9418 26.7328 67.7284 26.6395C67.515 26.5463 67.3232 26.41 67.165 26.2391C67.0068 26.0682 66.8855 25.8664 66.809 25.6465C66.7324 25.4265 66.7021 25.1932 66.72 24.961V7.961C66.7266 7.6034 66.8464 7.25711 67.0623 6.97192C67.2781 6.68674 67.5789 6.47735 67.9213 6.37396C68.2637 6.27058 68.63 6.27848 68.9677 6.39655C69.3053 6.51461 69.5967 6.73677 69.8 7.03101L76.0701 16.331L82.3101 7.03101C82.5115 6.73155 82.8045 6.50539 83.1452 6.38641C83.4859 6.26743 83.856 6.26199 84.2001 6.37097C84.5427 6.47473 84.8435 6.68464 85.0592 6.9704C85.2749 7.25616 85.3942 7.60303 85.4 7.961V24.961ZM103.81 26.521C103.587 26.6231 103.345 26.6743 103.1 26.671C102.775 26.668 102.457 26.5723 102.184 26.3952C101.912 26.2181 101.695 25.9669 101.56 25.671L99.8201 21.671H91.52L89.77 25.671C89.6832 25.8766 89.556 26.0626 89.3961 26.2181C89.2361 26.3737 89.0466 26.4957 88.8387 26.5768C88.6308 26.6579 88.4088 26.6965 88.1857 26.6904C87.9627 26.6842 87.7431 26.6334 87.54 26.541C87.137 26.3571 86.821 26.0239 86.6588 25.6117C86.4965 25.1995 86.5005 24.7403 86.67 24.331L94.1301 7.33099C94.2607 7.03125 94.4761 6.77614 94.7496 6.59698C95.0232 6.41783 95.343 6.32239 95.67 6.32239C95.997 6.32239 96.3169 6.41783 96.5905 6.59698C96.864 6.77614 97.0793 7.03125 97.21 7.33099L104.67 24.331C104.837 24.7399 104.838 25.1981 104.672 25.6075C104.505 26.0168 104.185 26.3448 103.78 26.521H103.81ZM122.42 23.941C122.687 24.2935 122.806 24.7361 122.751 25.1748C122.697 25.6135 122.474 26.0139 122.13 26.291C121.849 26.5259 121.497 26.6597 121.13 26.671C120.876 26.665 120.625 26.6048 120.396 26.4944C120.167 26.3841 119.963 26.2261 119.8 26.031L114.42 19.201L109.05 26.031C108.884 26.2259 108.679 26.3836 108.448 26.4939C108.217 26.6042 107.966 26.6645 107.71 26.671C107.343 26.6605 106.991 26.5266 106.71 26.291C106.537 26.1555 106.392 25.9868 106.284 25.7947C106.177 25.6027 106.108 25.3912 106.083 25.1725C106.058 24.9539 106.077 24.7323 106.138 24.5209C106.199 24.3094 106.302 24.1123 106.44 23.941L112.31 16.481L106.44 9.01099C106.301 8.83718 106.198 8.63767 106.136 8.42383C106.074 8.20999 106.056 7.98603 106.081 7.76489C106.106 7.54375 106.174 7.32978 106.282 7.13519C106.39 6.9406 106.536 6.76923 106.71 6.63098C106.884 6.49047 107.084 6.38637 107.299 6.32477C107.514 6.26317 107.739 6.24535 107.961 6.2724C108.183 6.29945 108.398 6.37076 108.592 6.48218C108.785 6.5936 108.955 6.74285 109.09 6.92102L114.46 13.741L119.84 6.92102C119.975 6.74285 120.145 6.5936 120.339 6.48218C120.532 6.37076 120.747 6.29945 120.969 6.2724C121.191 6.24535 121.416 6.26317 121.631 6.32477C121.846 6.38637 122.046 6.49047 122.22 6.63098C122.566 6.9134 122.79 7.31897 122.844 7.76263C122.898 8.2063 122.779 8.65365 122.51 9.01099L116.61 16.481L122.42 23.941ZM93.0001 18.281H98.34L95.67 12.181L93.0001 18.281Z" fill="white"/>
<path d="M1.07996 42.6311C1.03222 42.6311 0.986454 42.6121 0.952698 42.5783C0.918941 42.5446 0.899963 42.4988 0.899963 42.4511V37.941H0.190002C0.139611 37.941 0.0912349 37.921 0.055603 37.8854C0.0199711 37.8498 0 37.8014 0 37.751V37.241C0.0025634 37.1924 0.0236631 37.1466 0.059021 37.1131C0.0943789 37.0796 0.141297 37.061 0.190002 37.061H0.919983V36.9611C0.884993 36.6856 0.911822 36.4057 0.998474 36.1419C1.08513 35.8781 1.22944 35.6369 1.42096 35.4358C1.61247 35.2347 1.84636 35.0788 2.10565 34.9794C2.36495 34.88 2.64312 34.8396 2.91998 34.8611H3.19C3.23599 34.8637 3.27923 34.8837 3.31085 34.9172C3.34248 34.9507 3.36006 34.995 3.35999 35.0411V35.5411C3.35923 35.5938 3.33767 35.6441 3.29999 35.681C3.25786 35.6955 3.21211 35.6955 3.16998 35.681H2.91998C2.12998 35.681 1.77997 36.0611 1.77997 36.9111V37.0111H3.13995C3.16442 37.0097 3.18891 37.0134 3.21191 37.0218C3.23492 37.0302 3.25602 37.0433 3.2738 37.0601C3.29159 37.077 3.3057 37.0972 3.31537 37.1198C3.32503 37.1423 3.32999 37.1665 3.32996 37.191V37.7011C3.33141 37.7264 3.32752 37.7518 3.31848 37.7755C3.30945 37.7992 3.29547 37.8207 3.27753 37.8386C3.25959 37.8566 3.23806 37.8706 3.21436 37.8796C3.19065 37.8886 3.16528 37.8925 3.13995 37.8911H1.77997V42.4011C1.78001 42.4256 1.77505 42.4498 1.76538 42.4724C1.75572 42.4949 1.74154 42.5151 1.72375 42.532C1.70597 42.5488 1.68493 42.5619 1.66193 42.5703C1.63892 42.5788 1.61443 42.5824 1.58997 42.5811L1.07996 42.6311Z" fill="white"/>
<path d="M1.61005 36.9609V37.2409H3.16003V37.7509H1.61005V42.4509H1.08002V37.7509H0.190063V37.2409H1.08002V36.9609C1.04736 36.6871 1.0803 36.4094 1.17609 36.1507C1.27187 35.892 1.42776 35.6598 1.63092 35.4733C1.83408 35.2867 2.07868 35.1511 2.34454 35.0777C2.61041 35.0043 2.88992 34.9951 3.16003 35.0509V35.5509C2.10003 35.4709 1.61005 35.9609 1.61005 36.9609Z" fill="white"/>
<path d="M6.58002 42.751C5.81089 42.751 5.07327 42.4455 4.52942 41.9016C3.98556 41.3578 3.68005 40.6202 3.68005 39.851C3.68005 39.0819 3.98556 38.3442 4.52942 37.8004C5.07327 37.2565 5.81089 36.951 6.58002 36.951C6.96712 36.943 7.35148 37.0183 7.70691 37.1718C8.06234 37.3254 8.38054 37.5537 8.64001 37.841V37.241C8.64001 37.1933 8.65899 37.1475 8.69275 37.1137C8.72651 37.08 8.77233 37.061 8.82007 37.061H9.35004C9.39874 37.0609 9.4456 37.0796 9.48096 37.1131C9.51631 37.1466 9.53748 37.1924 9.54004 37.241V42.451C9.53748 42.4997 9.51631 42.5455 9.48096 42.579C9.4456 42.6124 9.39874 42.6311 9.35004 42.631H8.82007C8.77233 42.631 8.72651 42.612 8.69275 42.5783C8.65899 42.5445 8.64001 42.4988 8.64001 42.451V41.851C8.3823 42.1413 8.06466 42.372 7.70898 42.5274C7.3533 42.6828 6.96808 42.7591 6.58002 42.751ZM6.63007 37.821C6.2345 37.821 5.84782 37.9384 5.51892 38.1581C5.19002 38.3779 4.93366 38.6902 4.78229 39.0556C4.63091 39.4211 4.59129 39.8233 4.66846 40.2112C4.74563 40.5992 4.93612 40.9556 5.21582 41.2353C5.49553 41.515 5.85191 41.7055 6.23987 41.7826C6.62783 41.8598 7.02993 41.8202 7.39539 41.6688C7.76084 41.5174 8.07321 41.2611 8.29297 40.9322C8.51273 40.6033 8.63007 40.2166 8.63007 39.821C8.63007 39.2906 8.41932 38.7819 8.04425 38.4068C7.66918 38.0318 7.1605 37.821 6.63007 37.821Z" fill="white"/>
<path d="M9.35004 37.241V42.451H8.82007V41.271C8.60047 41.6682 8.27689 41.9981 7.88403 42.2253C7.49118 42.4526 7.04382 42.5686 6.59003 42.561C5.89845 42.519 5.24895 42.2147 4.77411 41.7101C4.29927 41.2056 4.03491 40.5388 4.03491 39.846C4.03491 39.1531 4.29927 38.4864 4.77411 37.9819C5.24895 37.4773 5.89845 37.173 6.59003 37.131C7.04382 37.1233 7.49118 37.2393 7.88403 37.4666C8.27689 37.6939 8.60047 38.0238 8.82007 38.421V37.241H9.35004ZM8.82007 39.851C8.81809 39.4159 8.68711 38.9911 8.44373 38.6304C8.20034 38.2697 7.85545 37.9893 7.4527 37.8246C7.04995 37.66 6.6074 37.6184 6.18103 37.7053C5.75466 37.7921 5.36365 38.0034 5.05737 38.3124C4.7511 38.6215 4.54334 39.0145 4.46039 39.4416C4.37744 39.8688 4.42303 40.3109 4.59137 40.7121C4.75971 41.1134 5.04325 41.4557 5.40613 41.6958C5.76901 41.9359 6.19495 42.0629 6.63007 42.061C6.91973 42.0623 7.20674 42.006 7.47437 41.8951C7.74199 41.7843 7.98483 41.6212 8.18872 41.4155C8.39261 41.2097 8.55347 40.9654 8.66187 40.6968C8.77026 40.4281 8.82406 40.1406 8.82007 39.851Z" fill="white"/>
<path d="M13.2201 42.751C12.7727 42.7902 12.3244 42.6877 11.9385 42.458C11.5526 42.2283 11.2488 41.883 11.0701 41.4711C11.055 41.4309 11.0548 41.3866 11.0694 41.3463C11.0841 41.3059 11.1127 41.2721 11.15 41.251L11.6001 40.991H11.6901H11.7601C11.7862 41.0016 11.8096 41.0179 11.8286 41.0387C11.8476 41.0595 11.8618 41.0842 11.8701 41.1111C11.9802 41.3704 12.171 41.5874 12.4142 41.7297C12.6574 41.872 12.94 41.9321 13.2201 41.9011C13.7801 41.9011 14.3801 41.6911 14.3801 41.1011C14.3801 40.5111 13.8901 40.461 13.1101 40.261C12.3301 40.061 11.2301 39.771 11.2301 38.631C11.2416 38.3868 11.304 38.1476 11.4132 37.9288C11.5223 37.7099 11.6759 37.5162 11.864 37.36C12.0522 37.2039 12.2709 37.0886 12.5061 37.0216C12.7413 36.9546 12.9878 36.9374 13.2301 36.9711C13.6316 36.9454 14.0315 37.0414 14.3776 37.2465C14.7237 37.4517 14.9999 37.7565 15.1701 38.121C15.188 38.1624 15.1897 38.2091 15.1749 38.2516C15.1601 38.2942 15.1298 38.3297 15.09 38.3511L14.65 38.6011H14.5601H14.5001C14.475 38.5946 14.4519 38.5821 14.4328 38.5646C14.4136 38.5472 14.3989 38.5254 14.39 38.501C14.2885 38.284 14.1229 38.1034 13.9154 37.9836C13.708 37.8638 13.4688 37.8105 13.2301 37.8311C12.7001 37.8311 12.1701 38.071 12.1701 38.621C12.1701 39.171 12.6401 39.241 13.4201 39.441C14.2001 39.641 15.3201 39.9211 15.3201 41.0911C15.2701 42.0611 14.4301 42.751 13.2201 42.751Z" fill="white"/>
<path d="M15.08 41.0809C15.08 41.9409 14.33 42.5609 13.22 42.5609C12.8087 42.5992 12.3956 42.5092 12.0375 42.3033C11.6794 42.0974 11.3938 41.7857 11.22 41.4109L11.67 41.1509C11.7931 41.447 12.0085 41.6956 12.2841 41.8595C12.5598 42.0235 12.881 42.0941 13.2 42.0609C13.93 42.0609 14.54 41.7409 14.54 41.0609C14.54 39.6509 11.39 40.4609 11.39 38.5909C11.4035 38.3755 11.4607 38.165 11.5582 37.9724C11.6556 37.7798 11.7914 37.609 11.957 37.4705C12.1226 37.3321 12.3147 37.2288 12.5215 37.167C12.7283 37.1051 12.9455 37.0861 13.16 37.1109C13.5204 37.0866 13.8801 37.1683 14.1946 37.346C14.5092 37.5237 14.7648 37.7896 14.93 38.1109L14.49 38.3609C14.3748 38.1097 14.1858 37.8995 13.9482 37.7584C13.7106 37.6173 13.4357 37.5518 13.16 37.5709C12.48 37.5709 11.91 37.9209 11.91 38.5709C11.92 40.0009 15.08 39.1809 15.08 41.0809Z" fill="white"/>
<path d="M18.74 42.691C18.3167 42.7248 17.897 42.5921 17.5701 42.3211C17.4208 42.1651 17.3061 41.9794 17.2338 41.776C17.1614 41.5726 17.1328 41.3562 17.15 41.1411V37.941H16.15C16.1247 37.9425 16.0993 37.9386 16.0756 37.9296C16.0519 37.9205 16.0304 37.9066 16.0124 37.8886C15.9945 37.8707 15.9806 37.8492 15.9715 37.8254C15.9625 37.8017 15.9586 37.7764 15.96 37.751V37.241C15.96 37.2165 15.9649 37.1923 15.9746 37.1698C15.9843 37.1473 15.9984 37.127 16.0162 37.1101C16.034 37.0933 16.055 37.0802 16.0781 37.0718C16.1011 37.0633 16.1255 37.0597 16.15 37.061H17.15V35.941C17.1512 35.9012 17.1657 35.8629 17.191 35.8322C17.2164 35.8014 17.2512 35.7799 17.29 35.7711L17.8201 35.6111H17.92C17.956 35.6013 17.994 35.6013 18.03 35.6111C18.0541 35.6282 18.0739 35.6506 18.0878 35.6766C18.1016 35.7027 18.1093 35.7316 18.11 35.7611V37.0311H19.47C19.5187 37.031 19.5656 37.0496 19.6009 37.0831C19.6363 37.1166 19.6575 37.1624 19.66 37.2111V37.7211C19.66 37.7715 19.64 37.8198 19.6044 37.8554C19.5687 37.891 19.5204 37.9111 19.47 37.9111H18.11V41.1111C18.11 41.6911 18.29 41.801 18.83 41.801C19.01 41.801 19.2201 41.801 19.4501 41.801C19.4923 41.7873 19.5378 41.7873 19.58 41.801C19.6141 41.8403 19.6351 41.8893 19.64 41.941V42.4111C19.6382 42.4549 19.6214 42.4969 19.5922 42.5297C19.563 42.5625 19.5234 42.5842 19.48 42.5911C19.2364 42.6438 18.989 42.6772 18.74 42.691Z" fill="white"/>
<path d="M17.92 37.751V41.141C17.92 42.051 18.41 42.071 19.47 41.981V42.451C18.11 42.651 17.39 42.321 17.39 41.141V37.751H16.25V37.241H17.39V35.941L17.92 35.791V37.241H19.47V37.751H17.92Z" fill="white"/>
<path d="M23.36 42.7509C22.5909 42.7509 21.8532 42.4454 21.3094 41.9016C20.7655 41.3577 20.46 40.6201 20.46 39.851C20.46 39.0818 20.7655 38.3441 21.3094 37.8003C21.8532 37.2564 22.5909 36.9509 23.36 36.9509C23.7346 36.9545 24.1046 37.0337 24.4479 37.1839C24.7911 37.3341 25.1004 37.5521 25.3573 37.8248C25.6142 38.0976 25.8132 38.4194 25.9426 38.7711C26.0719 39.1227 26.1289 39.4967 26.11 39.8709V40.1209C26.11 40.1686 26.091 40.2145 26.0573 40.2482C26.0235 40.282 25.9777 40.3009 25.93 40.3009H21.43C21.5164 40.7614 21.7665 41.175 22.1341 41.4655C22.5017 41.7559 22.962 41.9034 23.43 41.8809C23.7546 41.9006 24.0785 41.832 24.3673 41.6824C24.6561 41.5327 24.8989 41.3076 25.07 41.0309C25.0786 41.0075 25.0934 40.9868 25.1127 40.9709C25.1321 40.9551 25.1553 40.9447 25.18 40.9409H25.28L25.73 41.2209C25.7534 41.2296 25.7742 41.2443 25.79 41.2637C25.8058 41.283 25.8162 41.3062 25.82 41.3309C25.8353 41.3764 25.8353 41.4255 25.82 41.4709C25.5601 41.8831 25.1954 42.2188 24.7631 42.4437C24.3309 42.6686 23.8467 42.7746 23.36 42.7509ZM25.14 39.421C25.0881 38.9764 24.8733 38.5669 24.5372 38.2714C24.2011 37.9759 23.7675 37.8154 23.32 37.8209C22.8561 37.801 22.4013 37.9534 22.0431 38.2488C21.6849 38.5443 21.4487 38.9618 21.38 39.421H25.14Z" fill="white"/>
<path d="M25.92 39.871C25.92 39.951 25.92 40.031 25.92 40.121H21.21C21.2535 40.6665 21.5073 41.1738 21.9178 41.5358C22.3283 41.8977 22.8633 42.086 23.41 42.061C23.7725 42.0732 24.1315 41.9866 24.4486 41.8104C24.7656 41.6343 25.0288 41.3752 25.21 41.061L25.67 41.331C25.4276 41.7088 25.0905 42.0165 24.6923 42.2235C24.294 42.4305 23.8485 42.5296 23.4 42.511C22.8543 42.5492 22.3097 42.4219 21.8374 42.1459C21.3651 41.8698 20.9871 41.4577 20.7527 40.9634C20.5182 40.4692 20.4382 39.9157 20.5231 39.3753C20.608 38.8349 20.854 38.3326 21.2288 37.9341C21.6036 37.5356 22.0898 37.2594 22.624 37.1415C23.1582 37.0237 23.7155 37.0696 24.2232 37.2734C24.7309 37.4771 25.1654 37.8293 25.4699 38.2837C25.7744 38.7382 25.9347 39.2739 25.93 39.821L25.92 39.871ZM21.2 39.611H25.38C25.38 39.0806 25.1693 38.5718 24.7942 38.1968C24.4191 37.8217 23.9105 37.611 23.38 37.611C23.1055 37.5948 22.8304 37.6329 22.5706 37.7232C22.3108 37.8135 22.0714 37.9542 21.8661 38.1372C21.6607 38.3202 21.4936 38.542 21.3741 38.7897C21.2547 39.0375 21.1853 39.3064 21.17 39.581L21.2 39.611Z" fill="white"/>
<path d="M27.73 42.631C27.6823 42.631 27.6365 42.6121 27.6028 42.5783C27.569 42.5445 27.55 42.4988 27.55 42.451V37.241C27.55 37.1933 27.569 37.1475 27.6028 37.1138C27.6365 37.08 27.6823 37.061 27.73 37.061H28.2501C28.2988 37.061 28.3456 37.0796 28.381 37.1131C28.4163 37.1466 28.4375 37.1924 28.4401 37.241V37.581C28.6376 37.3703 28.8784 37.2049 29.146 37.0962C29.4136 36.9874 29.7015 36.9379 29.9901 36.951C30.0378 36.951 30.0836 36.97 30.1173 37.0038C30.1511 37.0375 30.17 37.0833 30.17 37.131V37.631C30.1701 37.6797 30.1515 37.7266 30.118 37.762C30.0845 37.7973 30.0387 37.8185 29.9901 37.821C29.7714 37.8102 29.553 37.8477 29.3505 37.9308C29.1479 38.014 28.9662 38.1408 28.8182 38.3021C28.6703 38.4635 28.5596 38.6554 28.4943 38.8644C28.4289 39.0733 28.4104 39.2941 28.4401 39.511V42.4111C28.4375 42.4597 28.4163 42.5055 28.381 42.539C28.3456 42.5725 28.2988 42.5911 28.2501 42.5911L27.73 42.631Z" fill="white"/>
<path d="M29.99 37.171V37.671C29.7465 37.6606 29.5036 37.7032 29.2783 37.796C29.0529 37.8887 28.8504 38.0294 28.6849 38.2083C28.5193 38.3872 28.3947 38.5999 28.3196 38.8318C28.2445 39.0636 28.2208 39.309 28.25 39.551V42.451H27.73V37.241H28.25V38.241C28.3915 37.9029 28.6355 37.6178 28.9477 37.4258C29.2599 37.2338 29.6244 37.1447 29.99 37.171Z" fill="white"/>
<path d="M30.78 44.0911C30.7527 44.0915 30.7258 44.0853 30.7015 44.0731C30.6771 44.061 30.656 44.0431 30.64 44.0211C30.6285 43.9977 30.6226 43.9721 30.6226 43.9461C30.6226 43.9201 30.6285 43.8944 30.64 43.8711L31.03 41.7011C31.0389 41.6595 31.0615 41.6222 31.0941 41.5951C31.1267 41.5679 31.1675 41.5523 31.21 41.551H31.86C31.8872 41.5506 31.9142 41.5568 31.9385 41.569C31.9629 41.5812 31.984 41.599 32 41.6211C32.011 41.6463 32.0167 41.6735 32.0167 41.7011C32.0167 41.7286 32.011 41.7559 32 41.7811L31.44 43.9511C31.4278 43.99 31.4041 44.0242 31.3719 44.0492C31.3397 44.0742 31.3007 44.0889 31.26 44.0911H30.78Z" fill="white"/>
<path d="M31.2601 43.901H30.78L31.17 41.741H31.8201L31.2601 43.901Z" fill="white"/>
<path d="M38.92 42.751C38.4729 42.7887 38.0252 42.6855 37.6396 42.456C37.2541 42.2265 36.95 41.882 36.77 41.471C36.7549 41.4308 36.7547 41.3865 36.7694 41.3462C36.7841 41.3059 36.8127 41.2721 36.85 41.251L37.3 40.991H37.39H37.46C37.4861 41.0016 37.5095 41.0179 37.5286 41.0386C37.5476 41.0594 37.5618 41.0841 37.5701 41.111C37.6802 41.3704 37.871 41.5873 38.1142 41.7296C38.3574 41.8719 38.64 41.932 38.92 41.901C39.48 41.901 40.08 41.691 40.08 41.101C40.08 40.511 39.6 40.461 38.8101 40.261C38.0201 40.061 36.92 39.751 36.92 38.581C36.9316 38.3367 36.994 38.0976 37.1031 37.8787C37.2123 37.6599 37.3658 37.4662 37.554 37.31C37.7422 37.1538 37.9608 37.0385 38.196 36.9716C38.4312 36.9046 38.6778 36.8874 38.92 36.921C39.3216 36.8953 39.7215 36.9913 40.0676 37.1965C40.4137 37.4016 40.6899 37.7064 40.86 38.071C40.8779 38.1124 40.8797 38.159 40.8649 38.2016C40.85 38.2442 40.8197 38.2796 40.78 38.301L40.34 38.551C40.3108 38.5609 40.2792 38.5609 40.2501 38.551H40.1901C40.165 38.5444 40.1419 38.5319 40.1227 38.5145C40.1036 38.4971 40.0889 38.4753 40.08 38.451C39.9785 38.234 39.8129 38.0534 39.6054 37.9335C39.3979 37.8137 39.1587 37.7605 38.92 37.781C38.39 37.781 37.86 38.021 37.86 38.571C37.86 39.121 38.33 39.191 39.11 39.391C39.89 39.591 41.0101 39.871 41.0101 41.041C40.9701 42.061 40.13 42.751 38.92 42.751Z" fill="white"/>
<path d="M40.78 41.0809C40.78 41.9409 40.03 42.5609 38.92 42.5609C38.5087 42.5992 38.0956 42.5092 37.7375 42.3033C37.3794 42.0974 37.0938 41.7857 36.92 41.4109L37.36 41.1509C37.4832 41.447 37.6985 41.6956 37.9742 41.8595C38.2498 42.0235 38.571 42.0941 38.89 42.0609C39.62 42.0609 40.23 41.7409 40.23 41.0609C40.23 39.6509 37.08 40.4609 37.08 38.5909C37.0935 38.3755 37.1508 38.165 37.2482 37.9724C37.3457 37.7798 37.4814 37.609 37.647 37.4705C37.8126 37.3321 38.0047 37.2288 38.2115 37.167C38.4184 37.1051 38.6356 37.0861 38.85 37.1109C39.2105 37.0866 39.5702 37.1683 39.8847 37.346C40.1992 37.5237 40.4549 37.7896 40.6201 38.1109L40.1801 38.3609C40.0649 38.1097 39.8759 37.8995 39.6383 37.7584C39.4007 37.6173 39.1257 37.5518 38.85 37.5709C38.17 37.5709 37.6 37.9209 37.6 38.5709C37.63 40.0009 40.78 39.1809 40.78 41.0809Z" fill="white"/>
<path d="M44.44 42.691C44.0167 42.7248 43.5969 42.5921 43.2699 42.3211C43.1224 42.1643 43.0097 41.9781 42.9391 41.7748C42.8684 41.5715 42.8415 41.3555 42.86 41.1411V37.941H41.86C41.8346 37.9425 41.8093 37.9386 41.7856 37.9296C41.7619 37.9205 41.7403 37.9066 41.7224 37.8886C41.7045 37.8707 41.6905 37.8492 41.6814 37.8254C41.6724 37.8017 41.6685 37.7764 41.67 37.751V37.241C41.6699 37.2165 41.6749 37.1923 41.6846 37.1698C41.6942 37.1473 41.7084 37.127 41.7262 37.1101C41.744 37.0933 41.765 37.0802 41.788 37.0718C41.811 37.0633 41.8355 37.0597 41.86 37.061H42.86V35.941C42.8589 35.9021 42.8712 35.864 42.8949 35.833C42.9186 35.8021 42.9521 35.7802 42.99 35.7711L43.5199 35.6111C43.556 35.6013 43.594 35.6013 43.63 35.6111C43.6541 35.6282 43.6738 35.6506 43.6877 35.6766C43.7016 35.7027 43.7092 35.7316 43.71 35.7611V37.0311H45.07C45.1187 37.031 45.1656 37.0496 45.2009 37.0831C45.2363 37.1166 45.2574 37.1624 45.26 37.2111V37.7211C45.26 37.7715 45.24 37.8198 45.2043 37.8554C45.1687 37.891 45.1204 37.9111 45.07 37.9111H43.71V41.1111C43.71 41.6911 43.9 41.801 44.43 41.801C44.61 41.801 44.82 41.801 45.05 41.801C45.0922 41.7873 45.1377 41.7873 45.18 41.801C45.2141 41.8403 45.235 41.8893 45.24 41.941V42.4111C45.2382 42.4549 45.2213 42.4969 45.1921 42.5297C45.163 42.5625 45.1233 42.5842 45.0799 42.5911C44.8691 42.639 44.6554 42.6723 44.44 42.691Z" fill="white"/>
<path d="M43.5701 37.751V41.141C43.5701 42.051 44.0601 42.071 45.1201 41.981V42.451C43.7601 42.651 43.04 42.321 43.04 41.141V37.751H41.92V37.241H43.0601V35.941L43.59 35.791V37.241H45.14V37.751H43.5701Z" fill="white"/>
<path d="M46.9901 42.631C46.9423 42.631 46.8965 42.6121 46.8628 42.5783C46.829 42.5445 46.8101 42.4988 46.8101 42.451V37.241C46.8101 37.1933 46.829 37.1475 46.8628 37.1138C46.8965 37.08 46.9423 37.061 46.9901 37.061H47.5101C47.5345 37.0597 47.559 37.0633 47.582 37.0718C47.605 37.0802 47.6261 37.0932 47.6439 37.1101C47.6616 37.127 47.6758 37.1473 47.6854 37.1698C47.6951 37.1923 47.7001 37.2165 47.7001 37.241V37.581C47.8976 37.3703 48.1384 37.2049 48.406 37.0962C48.6736 36.9874 48.9615 36.9379 49.2501 36.951C49.2988 36.951 49.3456 36.9696 49.381 37.0031C49.4163 37.0366 49.4375 37.0824 49.4401 37.131V37.631C49.4376 37.6806 49.4168 37.7276 49.3817 37.7627C49.3466 37.7978 49.2997 37.8186 49.2501 37.821C49.0314 37.8102 48.813 37.8477 48.6105 37.9308C48.4079 38.014 48.2262 38.1408 48.0782 38.3021C47.9303 38.4635 47.8196 38.6554 47.7543 38.8644C47.6889 39.0733 47.6704 39.2941 47.7001 39.511V42.4111C47.7001 42.4356 47.6951 42.4598 47.6854 42.4823C47.6758 42.5048 47.6616 42.5251 47.6439 42.542C47.6261 42.5588 47.605 42.5719 47.582 42.5803C47.559 42.5888 47.5345 42.5924 47.5101 42.5911L46.9901 42.631Z" fill="white"/>
<path d="M49.25 37.171V37.671C49.007 37.6623 48.7649 37.706 48.5403 37.7994C48.3158 37.8928 48.114 38.0335 47.9489 38.212C47.7837 38.3905 47.6589 38.6025 47.5832 38.8336C47.5075 39.0647 47.4825 39.3093 47.51 39.551V42.451H46.99V37.241H47.51V38.241C47.6527 37.9038 47.897 37.6195 48.2089 37.4277C48.5207 37.236 48.8847 37.1462 49.25 37.171Z" fill="white"/>
<path d="M52.99 42.7509C52.4169 42.7489 51.8572 42.5772 51.3816 42.2573C50.906 41.9375 50.5358 41.4839 50.3179 40.9538C50.0999 40.4237 50.0439 39.8409 50.1569 39.279C50.2699 38.7172 50.5469 38.2014 50.9529 37.7968C51.3588 37.3922 51.8756 37.117 52.4379 37.0059C53.0001 36.8948 53.5827 36.9529 54.1121 37.1727C54.6414 37.3924 55.0937 37.7642 55.4119 38.2408C55.7301 38.7175 55.9 39.2778 55.9 39.8509C55.9013 40.233 55.8269 40.6115 55.681 40.9646C55.5351 41.3177 55.3207 41.6384 55.05 41.9081C54.7794 42.1778 54.458 42.3911 54.1044 42.5358C53.7508 42.6804 53.372 42.7536 52.99 42.7509ZM52.99 37.8209C52.5944 37.8209 52.2077 37.9383 51.8788 38.158C51.5499 38.3778 51.2936 38.6901 51.1422 39.0555C50.9908 39.421 50.9513 39.8232 51.0284 40.2111C51.1056 40.5991 51.296 40.9555 51.5757 41.2352C51.8555 41.5149 52.2118 41.7054 52.5998 41.7825C52.9878 41.8597 53.3899 41.8201 53.7554 41.6687C54.1208 41.5173 54.4331 41.261 54.6529 40.9321C54.8727 40.6032 54.99 40.2165 54.99 39.8209C54.99 39.2905 54.7792 38.7818 54.4042 38.4067C54.0291 38.0317 53.5204 37.8209 52.99 37.8209Z" fill="white"/>
<path d="M50.2601 39.8511C50.2561 39.3103 50.4128 38.7805 50.7104 38.3289C51.008 37.8774 51.4329 37.5243 51.9314 37.3146C52.4299 37.1049 52.9794 37.0481 53.5103 37.1511C54.0411 37.2542 54.5295 37.5126 54.9133 37.8936C55.2971 38.2745 55.5591 38.761 55.666 39.2911C55.773 39.8212 55.7201 40.3711 55.5141 40.8711C55.3081 41.3711 54.9582 41.7987 54.5088 42.0996C54.0594 42.4004 53.5309 42.561 52.9901 42.561C52.6321 42.565 52.277 42.4978 51.9453 42.3633C51.6136 42.2288 51.3119 42.0296 51.0579 41.7774C50.8038 41.5252 50.6025 41.2251 50.4655 40.8944C50.3286 40.5636 50.2587 40.209 50.2601 39.8511ZM55.1901 39.8511C55.1881 39.4164 55.0574 38.992 54.8145 38.6315C54.5715 38.2711 54.2272 37.9907 53.825 37.8257C53.4229 37.6607 52.9809 37.6185 52.5548 37.7045C52.1287 37.7905 51.7376 38.0009 51.4309 38.309C51.1242 38.617 50.9157 39.0091 50.8316 39.4355C50.7475 39.862 50.7917 40.3038 50.9585 40.7053C51.1253 41.1067 51.4073 41.4497 51.7689 41.691C52.1304 41.9323 52.5554 42.061 52.9901 42.061C53.2802 42.0624 53.5677 42.006 53.8358 41.8953C54.104 41.7846 54.3475 41.6218 54.5522 41.4161C54.7569 41.2105 54.9187 40.9662 55.0282 40.6976C55.1377 40.4289 55.1927 40.1412 55.1901 39.8511Z" fill="white"/>
<path d="M61.46 42.6309C61.4123 42.6309 61.3665 42.6119 61.3328 42.5782C61.299 42.5444 61.28 42.4986 61.28 42.4509V39.2109C61.3034 39.0263 61.2849 38.8387 61.226 38.6622C61.167 38.4857 61.0691 38.3247 60.9394 38.1912C60.8097 38.0577 60.6517 37.9551 60.4769 37.891C60.3022 37.8269 60.1153 37.8029 59.9301 37.8209C58.9301 37.8209 58.3 38.5209 58.3 39.7009V42.4509C58.2975 42.4995 58.2763 42.5453 58.241 42.5788C58.2056 42.6123 58.1588 42.631 58.11 42.6309H57.59C57.5423 42.6309 57.4965 42.6119 57.4628 42.5782C57.429 42.5444 57.41 42.4986 57.41 42.4509V37.2409C57.41 37.1931 57.429 37.1474 57.4628 37.1136C57.4965 37.0799 57.5423 37.0609 57.59 37.0609H58.11C58.1588 37.0608 58.2056 37.0795 58.241 37.1129C58.2763 37.1464 58.2975 37.1922 58.3 37.2409V37.6409C58.5112 37.4111 58.7702 37.2302 59.0587 37.111C59.3471 36.9918 59.6582 36.9372 59.97 36.9509C60.2693 36.9326 60.569 36.979 60.8488 37.0868C61.1286 37.1946 61.3819 37.3614 61.5916 37.5758C61.8012 37.7902 61.9622 38.0472 62.0638 38.3293C62.1653 38.6114 62.205 38.9121 62.1801 39.2109V42.4509C62.1775 42.4995 62.1563 42.5453 62.121 42.5788C62.0856 42.6123 62.0388 42.631 61.9901 42.6309H61.46Z" fill="white"/>
<path d="M61.99 39.2109V42.4509H61.46V39.2109C61.4826 39.0022 61.459 38.791 61.3909 38.5925C61.3227 38.3939 61.2117 38.2128 61.0656 38.062C60.9196 37.9112 60.7421 37.7944 60.5458 37.7199C60.3496 37.6453 60.1393 37.615 59.93 37.6309C58.93 37.6309 58.11 38.3009 58.11 39.7009V42.4509H57.59V37.2408H58.11V38.2408C58.2821 37.8986 58.5489 37.613 58.8787 37.418C59.2084 37.223 59.5872 37.1268 59.97 37.1409C60.2435 37.1257 60.5171 37.1693 60.7725 37.2687C61.0278 37.3681 61.2589 37.5209 61.4502 37.717C61.6415 37.9131 61.7887 38.1479 61.8818 38.4055C61.9749 38.6632 62.0118 38.9378 61.99 39.2109Z" fill="white"/>
<path d="M66.6301 44.831C66.1091 44.878 65.5855 44.775 65.1212 44.534C64.6569 44.293 64.2714 43.9241 64.0101 43.471C63.9907 43.4293 63.9871 43.3819 64 43.3378C64.0129 43.2937 64.0413 43.2558 64.08 43.231L64.54 42.971H64.6301H64.6901C64.7148 42.9748 64.738 42.9851 64.7573 43.001C64.7767 43.0168 64.7914 43.0375 64.8 43.061C64.981 43.3765 65.2514 43.6315 65.5771 43.7934C65.9028 43.9554 66.2692 44.0172 66.6301 43.971C66.8741 44.0024 67.122 43.9795 67.3562 43.9039C67.5904 43.8283 67.8049 43.702 67.9846 43.5338C68.1642 43.3656 68.3045 43.1598 68.3953 42.9311C68.4862 42.7025 68.5253 42.4566 68.5101 42.211V41.851C68.2557 42.1433 67.9403 42.3763 67.5861 42.5335C67.2319 42.6908 66.8475 42.7684 66.46 42.761C65.6909 42.761 64.9533 42.4555 64.4094 41.9116C63.8656 41.3677 63.5601 40.6301 63.5601 39.861C63.5601 39.0919 63.8656 38.3542 64.4094 37.8103C64.9533 37.2665 65.6909 36.961 66.46 36.961C66.8468 36.9516 67.2309 37.0274 67.5851 37.1829C67.9394 37.3384 68.2552 37.5699 68.5101 37.861V37.251C68.5126 37.2023 68.5337 37.1565 68.5691 37.123C68.6044 37.0895 68.6514 37.0709 68.7001 37.071H69.22C69.2687 37.0709 69.3156 37.0895 69.351 37.123C69.3863 37.1565 69.4075 37.2023 69.41 37.251V42.251C69.4126 42.6077 69.3409 42.9611 69.1995 43.2886C69.058 43.6161 68.8499 43.9107 68.5884 44.1534C68.3269 44.3961 68.0177 44.5816 67.6805 44.6983C67.3434 44.8149 66.9856 44.8601 66.6301 44.831ZM66.5001 37.831C66.1045 37.831 65.7178 37.9482 65.3889 38.168C65.06 38.3878 64.8037 38.7001 64.6523 39.0656C64.5009 39.431 64.4613 39.8332 64.5385 40.2212C64.6156 40.6091 64.8061 40.9655 65.0858 41.2452C65.3655 41.5249 65.7219 41.7154 66.1099 41.7925C66.4978 41.8697 66.8999 41.8301 67.2654 41.6788C67.6308 41.5274 67.9432 41.271 68.163 40.9421C68.3827 40.6132 68.5001 40.2265 68.5001 39.831C68.5014 39.5675 68.4506 39.3063 68.3507 39.0625C68.2508 38.8187 68.1036 38.5971 67.9178 38.4103C67.7319 38.2235 67.511 38.0753 67.2677 37.9742C67.0244 37.873 66.7635 37.821 66.5001 37.821V37.831Z" fill="white"/>
<path d="M69.22 37.2409V42.2409C69.2282 42.5765 69.1657 42.9101 69.0364 43.2199C68.9071 43.5297 68.714 43.8088 68.4696 44.039C68.2253 44.2692 67.9352 44.4453 67.6182 44.5559C67.3013 44.6666 66.9646 44.7091 66.6301 44.6809C66.1449 44.7286 65.6563 44.6361 65.222 44.4146C64.7878 44.193 64.4262 43.8517 64.1801 43.4309L64.6301 43.171C64.8259 43.5179 65.1209 43.7984 65.4772 43.9766C65.8336 44.1548 66.235 44.2225 66.6301 44.171C66.8982 44.2018 67.1699 44.1738 67.4262 44.0891C67.6825 44.0043 67.9173 43.8649 68.1143 43.6803C68.3112 43.4957 68.4656 43.2704 68.5668 43.0201C68.6679 42.7698 68.7134 42.5006 68.7001 42.231V41.231C68.4863 41.6375 68.1635 41.9764 67.7678 42.2096C67.3721 42.4427 66.9192 42.5609 66.46 42.5509C65.7684 42.5089 65.119 42.2047 64.6442 41.7001C64.1693 41.1956 63.9049 40.5288 63.9049 39.836C63.9049 39.1431 64.1693 38.4764 64.6442 37.9718C65.119 37.4673 65.7684 37.1629 66.46 37.1209C66.9192 37.111 67.3721 37.2292 67.7678 37.4624C68.1635 37.6956 68.4863 38.0344 68.7001 38.441V37.231L69.22 37.2409ZM68.7001 39.851C68.7001 39.4135 68.5702 38.9858 68.3269 38.6221C68.0836 38.2585 67.7378 37.9752 67.3334 37.8083C66.929 37.6413 66.4841 37.5981 66.0552 37.6842C65.6262 37.7703 65.2325 37.9818 64.9238 38.2918C64.6152 38.6019 64.4054 38.9966 64.3213 39.426C64.2371 39.8554 64.2824 40.3 64.4512 40.7036C64.62 41.1073 64.9048 41.4518 65.2695 41.6934C65.6343 41.935 66.0625 42.0629 66.5001 42.0609C66.7902 42.0623 67.0777 42.006 67.3458 41.8952C67.614 41.7845 67.8575 41.6217 68.0622 41.4161C68.2669 41.2104 68.4287 40.9662 68.5382 40.6975C68.6477 40.4288 68.7027 40.1411 68.7001 39.851Z" fill="white"/>
<path d="M73.83 42.7509C73.0609 42.7509 72.3233 42.4454 71.7794 41.9016C71.2356 41.3577 70.9301 40.6201 70.9301 39.851C70.9301 39.0818 71.2356 38.3441 71.7794 37.8003C72.3233 37.2564 73.0609 36.9509 73.83 36.9509C74.2042 36.9559 74.5736 37.0361 74.9162 37.1867C75.2588 37.3374 75.5676 37.5554 75.8242 37.8279C76.0807 38.1003 76.2799 38.4216 76.4097 38.7726C76.5396 39.1236 76.5975 39.4971 76.58 39.8709V40.1209C76.5801 40.1454 76.5751 40.1697 76.5654 40.1922C76.5558 40.2147 76.5417 40.235 76.5239 40.2519C76.5061 40.2687 76.485 40.2818 76.462 40.2902C76.439 40.2987 76.4145 40.3023 76.39 40.3009H71.9C71.9864 40.7614 72.2366 41.175 72.6042 41.4655C72.9718 41.7559 73.4321 41.9034 73.9 41.8809C74.2244 41.8985 74.5475 41.8289 74.8359 41.6794C75.1243 41.53 75.3674 41.3061 75.54 41.0309C75.5487 41.0075 75.5634 40.9868 75.5828 40.9709C75.6021 40.9551 75.6253 40.9447 75.65 40.9409H75.7001H75.79L76.2501 41.2209C76.2711 41.2317 76.2893 41.2472 76.3032 41.2664C76.3171 41.2855 76.3263 41.3076 76.33 41.3309C76.3423 41.3522 76.3488 41.3764 76.3488 41.4009C76.3488 41.4255 76.3423 41.4497 76.33 41.4709C76.0684 41.8908 75.6976 42.2316 75.2573 42.4571C74.8169 42.6825 74.3236 42.7841 73.83 42.7509ZM75.6 39.421C75.5505 38.9773 75.3378 38.5679 75.0033 38.2722C74.6688 37.9765 74.2364 37.8157 73.79 37.8209C73.3167 37.7879 72.8482 37.934 72.4777 38.2305C72.1072 38.5269 71.8617 38.9519 71.79 39.421H75.6Z" fill="white"/>
<path d="M76.36 39.871C76.36 39.951 76.36 40.031 76.36 40.121H71.6499C71.6959 40.6674 71.9518 41.1747 72.3639 41.5364C72.776 41.8982 73.3122 42.0862 73.86 42.061C74.2225 42.0732 74.5815 41.9866 74.8985 41.8104C75.2156 41.6343 75.4788 41.3752 75.6599 41.061L76.12 41.331C75.8776 41.7088 75.5405 42.0165 75.1422 42.2235C74.744 42.4305 74.2984 42.5296 73.85 42.511C73.3042 42.5492 72.7597 42.4219 72.2874 42.1459C71.8151 41.8698 71.437 41.4577 71.2026 40.9634C70.9681 40.4692 70.8881 39.9157 70.9731 39.3753C71.058 38.8349 71.3039 38.3326 71.6787 37.9341C72.0535 37.5356 72.5397 37.2594 73.0739 37.1415C73.6082 37.0237 74.1655 37.0696 74.6732 37.2734C75.1809 37.4771 75.6154 37.8293 75.9198 38.2837C76.2243 38.7382 76.3847 39.2739 76.38 39.821L76.36 39.871ZM71.63 39.611H75.81C75.81 39.0806 75.5992 38.5718 75.2242 38.1968C74.8491 37.8217 74.3404 37.611 73.81 37.611C73.2612 37.5891 72.7255 37.783 72.318 38.1512C71.9105 38.5195 71.6635 39.0328 71.63 39.581V39.611Z" fill="white"/>
<path d="M78.2 42.631C78.1755 42.6324 78.1511 42.6288 78.1281 42.6204C78.105 42.6119 78.084 42.5989 78.0662 42.582C78.0484 42.5652 78.0343 42.5449 78.0246 42.5223C78.0149 42.4998 78.01 42.4755 78.01 42.451V37.241C78.01 37.2165 78.0149 37.1923 78.0246 37.1698C78.0343 37.1473 78.0484 37.127 78.0662 37.1101C78.084 37.0932 78.105 37.0802 78.1281 37.0718C78.1511 37.0633 78.1755 37.0597 78.2 37.061H78.72C78.7677 37.061 78.8135 37.08 78.8473 37.1138C78.881 37.1475 78.9 37.1933 78.9 37.241V37.581C79.0975 37.3703 79.3384 37.2049 79.606 37.0962C79.8735 36.9874 80.1615 36.9379 80.45 36.951C80.4745 36.9497 80.4989 36.9534 80.5219 36.9618C80.5449 36.9702 80.566 36.9833 80.5838 37.0001C80.6016 37.017 80.6157 37.0372 80.6254 37.0597C80.635 37.0823 80.64 37.1065 80.64 37.131V37.631C80.64 37.656 80.6351 37.6807 80.6255 37.7037C80.616 37.7268 80.602 37.7477 80.5844 37.7654C80.5667 37.783 80.5458 37.797 80.5227 37.8066C80.4997 37.8161 80.475 37.821 80.45 37.821C80.2261 37.8113 80.0028 37.8522 79.7969 37.9407C79.5909 38.0291 79.4076 38.1629 79.2606 38.3321C79.1135 38.5012 79.0065 38.7014 78.9475 38.9177C78.8885 39.1339 78.8792 39.3607 78.92 39.581V42.4811C78.92 42.5288 78.901 42.5746 78.8672 42.6083C78.8335 42.6421 78.7877 42.6611 78.74 42.6611L78.2 42.631Z" fill="white"/>
<path d="M80.4501 37.171V37.671C80.2045 37.6613 79.9598 37.7056 79.7333 37.8008C79.5067 37.896 79.3038 38.0397 79.1389 38.2218C78.9739 38.404 78.8509 38.6201 78.7786 38.8549C78.7062 39.0897 78.6862 39.3376 78.72 39.581V42.481H78.2001V37.271H78.72V38.271C78.8548 37.9281 79.0949 37.6368 79.4058 37.4391C79.7167 37.2414 80.0824 37.1476 80.4501 37.171Z" fill="white"/>
<path d="M81.2401 44.0911C81.1861 44.0867 81.1359 44.0616 81.1 44.0211C81.0806 43.973 81.0806 43.9192 81.1 43.8711L81.5001 41.7011C81.5072 41.6587 81.5293 41.6203 81.5623 41.5928C81.5953 41.5653 81.6371 41.5504 81.6801 41.551H82.3201C82.3485 41.5519 82.3764 41.5587 82.4022 41.5707C82.428 41.5827 82.4511 41.5998 82.47 41.6211C82.4841 41.6454 82.4915 41.673 82.4915 41.7011C82.4915 41.7292 82.4841 41.7568 82.47 41.7811L81.91 43.9511C81.9008 43.9916 81.8779 44.0277 81.845 44.0532C81.8122 44.0788 81.7716 44.0921 81.73 44.0911H81.2401Z" fill="white"/>
<path d="M81.72 43.901H81.24L81.64 41.741H82.28L81.72 43.901Z" fill="white"/>
<path d="M89.39 42.751C88.9426 42.7902 88.4943 42.6877 88.1084 42.458C87.7226 42.2283 87.4188 41.883 87.24 41.4711C87.2249 41.4309 87.2247 41.3866 87.2393 41.3463C87.254 41.3059 87.2827 41.2721 87.32 41.251L87.77 40.991C87.7992 40.9811 87.8308 40.9811 87.86 40.991H87.92C87.9479 40.9983 87.9732 41.0136 87.9927 41.0349C88.0122 41.0561 88.0252 41.0826 88.03 41.1111C88.1419 41.3712 88.3346 41.5885 88.5795 41.7307C88.8244 41.873 89.1085 41.9327 89.39 41.9011C89.95 41.9011 90.54 41.6911 90.54 41.1011C90.54 40.5111 90.06 40.461 89.27 40.261C88.48 40.061 87.39 39.771 87.39 38.631C87.4015 38.3868 87.4639 38.1476 87.5731 37.9288C87.6822 37.7099 87.8358 37.5162 88.0239 37.36C88.2121 37.2039 88.4308 37.0886 88.666 37.0216C88.9012 36.9546 89.1478 36.9374 89.39 36.9711C89.7898 36.9474 90.1876 37.0444 90.5318 37.2495C90.8759 37.4545 91.1505 37.7581 91.32 38.121C91.3388 38.1613 91.342 38.207 91.3291 38.2495C91.3161 38.2919 91.288 38.3281 91.25 38.3511L90.81 38.6011H90.72H90.66C90.6349 38.5946 90.6118 38.5821 90.5927 38.5646C90.5735 38.5472 90.5589 38.5254 90.55 38.501C90.4474 38.2849 90.2815 38.1051 90.0743 37.9855C89.8671 37.8658 89.6285 37.812 89.39 37.8311C88.86 37.8311 88.32 38.071 88.32 38.621C88.32 39.171 88.8 39.241 89.58 39.441C90.36 39.641 91.47 39.9211 91.47 41.0911C91.43 42.0611 90.59 42.751 89.39 42.751Z" fill="white"/>
<path d="M91.2501 41.0809C91.2501 41.9409 90.5 42.5609 89.39 42.5609C88.9787 42.5992 88.5656 42.5092 88.2075 42.3033C87.8494 42.0974 87.5638 41.7857 87.39 41.4109L87.84 41.1509C87.9631 41.447 88.1786 41.6956 88.4542 41.8595C88.7299 42.0235 89.0511 42.0941 89.3701 42.0609C90.1001 42.0609 90.71 41.7409 90.71 41.0609C90.71 39.6509 87.5601 40.4609 87.5601 38.5909C87.5736 38.3755 87.6308 38.165 87.7283 37.9724C87.8257 37.7798 87.9614 37.609 88.127 37.4705C88.2926 37.3321 88.4847 37.2288 88.6915 37.167C88.8984 37.1051 89.1156 37.0861 89.33 37.1109C89.6892 37.086 90.0478 37.1675 90.3609 37.3454C90.674 37.5232 90.9276 37.7896 91.09 38.1109L90.66 38.3609C90.5449 38.1097 90.3559 37.8995 90.1183 37.7584C89.8807 37.6173 89.6057 37.5518 89.33 37.5709C88.65 37.5709 88.08 37.9209 88.08 38.5709C88.1 40.0009 91.2501 39.1809 91.2501 41.0809Z" fill="white"/>
<path d="M100.06 42.6311C100.011 42.6311 99.9645 42.6125 99.9291 42.579C99.8938 42.5455 99.8726 42.4997 99.8701 42.4511V39.1511C99.8701 38.3111 99.4301 37.8211 98.6801 37.8211C97.9301 37.8211 97.3 38.4411 97.3 39.5411V42.4511C97.3 42.4988 97.2811 42.5446 97.2473 42.5783C97.2136 42.6121 97.1678 42.6311 97.1201 42.6311H96.6C96.5756 42.6324 96.5511 42.6288 96.5281 42.6204C96.5051 42.6119 96.484 42.5989 96.4662 42.5821C96.4485 42.5652 96.4343 42.5449 96.4246 42.5224C96.415 42.4998 96.41 42.4756 96.41 42.4511V39.1511C96.41 38.3011 95.9901 37.8211 95.2601 37.8211C94.3701 37.8211 93.84 38.4611 93.84 39.5411V42.4511C93.8375 42.4997 93.8164 42.5455 93.781 42.579C93.7456 42.6125 93.6987 42.6311 93.65 42.6311H93.1301C93.0823 42.6311 93.0365 42.6121 93.0027 42.5783C92.969 42.5446 92.9501 42.4988 92.9501 42.4511V37.2411C92.9501 37.1933 92.969 37.1475 93.0027 37.1138C93.0365 37.08 93.0823 37.0611 93.1301 37.0611H93.65C93.6987 37.061 93.7456 37.0796 93.781 37.1131C93.8164 37.1466 93.8375 37.1924 93.84 37.2411V37.5811C94.0326 37.3817 94.2644 37.2245 94.5209 37.1195C94.7774 37.0145 95.0529 36.964 95.33 36.9711C95.6548 36.9577 95.9775 37.0301 96.2654 37.1811C96.5533 37.3321 96.7963 37.5563 96.97 37.8311C97.1652 37.5586 97.4238 37.3379 97.7235 37.1881C98.0232 37.0382 98.355 36.9637 98.6901 36.9711C98.9762 36.9596 99.2615 37.0097 99.5267 37.118C99.7918 37.2263 100.031 37.3904 100.227 37.599C100.423 37.8075 100.572 38.0558 100.664 38.327C100.756 38.5983 100.789 38.8862 100.76 39.1711V42.4711C100.76 42.5188 100.741 42.5646 100.707 42.5984C100.674 42.6321 100.628 42.6511 100.58 42.6511L100.06 42.6311Z" fill="white"/>
<path d="M100.58 39.1509V42.4509H100.06V39.1509C100.086 38.957 100.07 38.7597 100.012 38.5728C99.9541 38.3859 99.8559 38.214 99.7244 38.0691C99.5928 37.9242 99.4312 37.81 99.2507 37.7343C99.0703 37.6586 98.8755 37.6232 98.68 37.6309C97.8 37.6309 97.12 38.2109 97.12 39.5409V42.4509H96.6V39.1509C96.6 38.1509 96.06 37.6309 95.26 37.6309C94.46 37.6309 93.65 38.2109 93.65 39.5409V42.4509H93.13V37.2409H93.65V38.1409C93.8058 37.8316 94.0467 37.5733 94.3443 37.3961C94.6419 37.219 94.9838 37.1305 95.33 37.1409C95.6775 37.1228 96.0218 37.2158 96.313 37.4063C96.6043 37.5969 96.8274 37.8752 96.95 38.2009C97.1085 37.8764 97.3566 37.6042 97.6649 37.4163C97.9733 37.2285 98.329 37.1329 98.69 37.1409C98.9517 37.1294 99.2128 37.1745 99.4554 37.2731C99.6981 37.3717 99.9166 37.5215 100.096 37.7124C100.275 37.9032 100.412 38.1305 100.495 38.3788C100.579 38.6271 100.608 38.8904 100.58 39.1509Z" fill="white"/>
<path d="M105.01 42.7509C104.241 42.7509 103.503 42.4454 102.959 41.9016C102.415 41.3577 102.11 40.6201 102.11 39.851C102.11 39.0818 102.415 38.3441 102.959 37.8003C103.503 37.2564 104.241 36.9509 105.01 36.9509C105.387 36.9514 105.76 37.0309 106.104 37.1841C106.449 37.3374 106.757 37.5612 107.01 37.8409V37.2409C107.01 37.2164 107.015 37.1922 107.025 37.1697C107.034 37.1472 107.048 37.1268 107.066 37.11C107.084 37.0931 107.105 37.0801 107.128 37.0717C107.151 37.0632 107.176 37.0596 107.2 37.0609H107.73C107.778 37.0609 107.823 37.0799 107.857 37.1136C107.891 37.1474 107.91 37.1932 107.91 37.2409V42.4509C107.91 42.4987 107.891 42.5444 107.857 42.5782C107.823 42.6119 107.778 42.6309 107.73 42.6309H107.2C107.176 42.6323 107.151 42.6287 107.128 42.6202C107.105 42.6118 107.084 42.5988 107.066 42.5819C107.048 42.5651 107.034 42.5447 107.025 42.5222C107.015 42.4997 107.01 42.4754 107.01 42.4509V41.851C106.759 42.134 106.451 42.3606 106.107 42.5157C105.762 42.6709 105.388 42.7511 105.01 42.7509ZM105.01 37.8209C104.614 37.8209 104.228 37.9383 103.899 38.158C103.57 38.3778 103.314 38.6901 103.162 39.0555C103.011 39.421 102.971 39.8232 103.048 40.2111C103.126 40.5991 103.316 40.9555 103.596 41.2352C103.875 41.5149 104.232 41.7054 104.62 41.7825C105.008 41.8597 105.41 41.8201 105.775 41.6687C106.141 41.5173 106.453 41.261 106.673 40.9321C106.893 40.6032 107.01 40.2165 107.01 39.8209C107.01 39.2973 106.805 38.7946 106.438 38.4207C106.072 38.0467 105.573 37.8314 105.05 37.8209H105.01Z" fill="white"/>
<path d="M107.78 37.241V42.451H107.25V41.2711C107.029 41.669 106.703 41.9993 106.309 42.2266C105.914 42.4538 105.465 42.5694 105.01 42.561C104.318 42.519 103.669 42.2148 103.194 41.7102C102.719 41.2057 102.455 40.5389 102.455 39.8461C102.455 39.1532 102.719 38.4865 103.194 37.9819C103.669 37.4774 104.318 37.173 105.01 37.131C105.465 37.1227 105.914 37.2383 106.309 37.4655C106.703 37.6928 107.029 38.0231 107.25 38.4211V37.241H107.78ZM107.25 39.8511C107.248 39.4164 107.117 38.992 106.874 38.6315C106.631 38.2711 106.287 37.9907 105.885 37.8257C105.483 37.6607 105.041 37.6185 104.615 37.7045C104.189 37.7905 103.798 38.0009 103.491 38.309C103.184 38.617 102.976 39.0091 102.892 39.4355C102.807 39.862 102.852 40.3038 103.018 40.7053C103.185 41.1067 103.467 41.4497 103.829 41.691C104.19 41.9323 104.615 42.061 105.05 42.061C105.34 42.0624 105.628 42.006 105.896 41.8953C106.164 41.7846 106.407 41.6218 106.612 41.4161C106.817 41.2105 106.979 40.9662 107.088 40.6976C107.198 40.4289 107.253 40.1412 107.25 39.8511Z" fill="white"/>
<path d="M110 42.631C109.952 42.631 109.906 42.6121 109.873 42.5783C109.839 42.5445 109.82 42.4988 109.82 42.451V37.241C109.82 37.1933 109.839 37.1475 109.873 37.1138C109.906 37.08 109.952 37.061 110 37.061H110.52C110.569 37.061 110.616 37.0796 110.651 37.1131C110.686 37.1466 110.707 37.1924 110.71 37.241V37.581C110.908 37.3703 111.148 37.2049 111.416 37.0962C111.684 36.9874 111.972 36.9379 112.26 36.951C112.308 36.951 112.354 36.97 112.387 37.0038C112.421 37.0375 112.44 37.0833 112.44 37.131V37.631C112.44 37.6797 112.421 37.7266 112.388 37.762C112.355 37.7973 112.309 37.8185 112.26 37.821C112.041 37.8102 111.823 37.8477 111.62 37.9308C111.418 38.014 111.236 38.1408 111.088 38.3021C110.94 38.4635 110.83 38.6554 110.764 38.8644C110.699 39.0733 110.68 39.2941 110.71 39.511V42.4111C110.707 42.4597 110.686 42.5055 110.651 42.539C110.616 42.5725 110.569 42.5911 110.52 42.5911L110 42.631Z" fill="white"/>
<path d="M112.26 37.171V37.671C112.014 37.6598 111.768 37.703 111.54 37.7975C111.312 37.892 111.108 38.0356 110.942 38.2179C110.776 38.4002 110.652 38.6168 110.579 38.8524C110.506 39.088 110.486 39.3367 110.52 39.581V42.481H110V37.271H110.52V38.271C110.658 37.9282 110.9 37.6375 111.212 37.44C111.525 37.2426 111.891 37.1485 112.26 37.171Z" fill="white"/>
<path d="M115.99 42.691C115.567 42.7248 115.147 42.5921 114.82 42.3211C114.671 42.1651 114.556 41.9794 114.484 41.776C114.411 41.5726 114.383 41.3562 114.4 41.1411V37.941H113.4C113.375 37.9425 113.349 37.9386 113.326 37.9296C113.302 37.9205 113.28 37.9066 113.262 37.8886C113.244 37.8707 113.231 37.8492 113.222 37.8254C113.213 37.8017 113.209 37.7764 113.21 37.751V37.241C113.21 37.2165 113.215 37.1923 113.225 37.1698C113.234 37.1473 113.248 37.127 113.266 37.1101C113.284 37.0933 113.305 37.0802 113.328 37.0718C113.351 37.0633 113.376 37.0597 113.4 37.061H114.4V35.941C114.401 35.9012 114.416 35.8629 114.441 35.8322C114.466 35.8014 114.501 35.7799 114.54 35.7711L115.07 35.6111H115.12C115.156 35.6013 115.194 35.6013 115.23 35.6111C115.253 35.6287 115.271 35.6515 115.283 35.6776C115.295 35.7037 115.301 35.7323 115.3 35.7611V37.0311H116.67C116.718 37.0311 116.764 37.0501 116.797 37.0838C116.831 37.1176 116.85 37.1633 116.85 37.2111V37.7211C116.851 37.7455 116.848 37.77 116.839 37.793C116.831 37.816 116.818 37.8371 116.801 37.8549C116.784 37.8727 116.764 37.8868 116.741 37.8965C116.719 37.9062 116.695 37.9111 116.67 37.9111H115.3V41.1111C115.3 41.6911 115.49 41.801 116.03 41.801C116.21 41.801 116.42 41.801 116.65 41.801C116.689 41.7864 116.731 41.7864 116.77 41.801C116.808 41.838 116.829 41.8883 116.83 41.941V42.4111C116.831 42.454 116.816 42.4958 116.788 42.5288C116.761 42.5618 116.722 42.5839 116.68 42.5911C116.453 42.6413 116.222 42.6747 115.99 42.691Z" fill="white"/>
<path d="M115.12 37.751V41.141C115.12 42.051 115.61 42.071 116.67 41.981V42.451C115.31 42.651 114.59 42.321 114.59 41.141V37.751H113.44V37.241H114.59V35.941L115.12 35.791V37.241H116.67V37.751H115.12Z" fill="white"/>
<path d="M120.61 42.7509C119.841 42.7509 119.103 42.4454 118.559 41.9016C118.016 41.3577 117.71 40.6201 117.71 39.851C117.71 39.0818 118.016 38.3441 118.559 37.8003C119.103 37.2564 119.841 36.9509 120.61 36.9509C120.985 36.9545 121.355 37.0337 121.698 37.1839C122.041 37.3341 122.35 37.5521 122.607 37.8248C122.864 38.0976 123.063 38.4194 123.193 38.7711C123.322 39.1227 123.379 39.4967 123.36 39.8709V40.1209C123.36 40.1686 123.341 40.2145 123.307 40.2482C123.273 40.282 123.228 40.3009 123.18 40.3009H118.68C118.766 40.7614 119.016 41.175 119.384 41.4655C119.752 41.7559 120.212 41.9034 120.68 41.8809C121.005 41.9006 121.329 41.832 121.617 41.6824C121.906 41.5327 122.149 41.3076 122.32 41.0309C122.329 41.0075 122.343 40.9868 122.363 40.9709C122.382 40.9551 122.405 40.9447 122.43 40.9409H122.53L122.98 41.2209C123.003 41.2296 123.024 41.2443 123.04 41.2637C123.056 41.283 123.066 41.3062 123.07 41.3309C123.085 41.3764 123.085 41.4255 123.07 41.4709C122.81 41.8831 122.445 42.2188 122.013 42.4437C121.581 42.6686 121.097 42.7746 120.61 42.7509ZM122.39 39.421C122.338 38.9764 122.123 38.5669 121.787 38.2714C121.451 37.9759 121.018 37.8154 120.57 37.8209C120.106 37.801 119.651 37.9534 119.293 38.2488C118.935 38.5443 118.699 38.9618 118.63 39.421H122.39Z" fill="white"/>
<path d="M123.14 39.871C123.14 39.951 123.14 40.031 123.14 40.121H118.42C118.463 40.6665 118.717 41.1738 119.128 41.5358C119.538 41.8977 120.073 42.086 120.62 42.061C120.982 42.0732 121.341 41.9866 121.659 41.8104C121.976 41.6343 122.239 41.3752 122.42 41.061L122.88 41.331C122.638 41.7088 122.3 42.0165 121.902 42.2235C121.504 42.4305 121.058 42.5296 120.61 42.511C120.064 42.5492 119.52 42.4219 119.047 42.1459C118.575 41.8698 118.197 41.4577 117.963 40.9634C117.728 40.4692 117.648 39.9157 117.733 39.3753C117.818 38.8349 118.064 38.3326 118.439 37.9341C118.813 37.5356 119.3 37.2594 119.834 37.1415C120.368 37.0237 120.926 37.0696 121.433 37.2734C121.941 37.4771 122.375 37.8293 122.68 38.2837C122.984 38.7382 123.145 39.2739 123.14 39.821V39.871ZM118.42 39.581H122.6C122.6 39.0506 122.389 38.5419 122.014 38.1668C121.639 37.7917 121.13 37.581 120.6 37.581C120.325 37.5689 120.051 37.6111 119.793 37.7051C119.535 37.7991 119.298 37.9431 119.095 38.1289C118.893 38.3147 118.729 38.5385 118.613 38.7877C118.497 39.0369 118.432 39.3064 118.42 39.581Z" fill="white"/>
<path d="M124.98 42.631C124.931 42.6311 124.884 42.6124 124.849 42.5789C124.814 42.5454 124.793 42.4997 124.79 42.451V37.241C124.793 37.1924 124.814 37.1466 124.849 37.1131C124.884 37.0796 124.931 37.0609 124.98 37.061H125.5C125.548 37.061 125.594 37.08 125.627 37.1137C125.661 37.1475 125.68 37.1933 125.68 37.241V37.581C125.879 37.369 126.121 37.2028 126.391 37.094C126.66 36.9852 126.95 36.9364 127.24 36.951C127.288 36.951 127.334 36.97 127.367 37.0037C127.401 37.0375 127.42 37.0833 127.42 37.131V37.631C127.42 37.6797 127.401 37.7266 127.368 37.7619C127.334 37.7973 127.289 37.8184 127.24 37.821C127.021 37.8086 126.801 37.845 126.597 37.9275C126.394 38.0099 126.211 38.1365 126.061 38.298C125.912 38.4595 125.801 38.6521 125.735 38.8618C125.669 39.0715 125.65 39.2932 125.68 39.511V42.411C125.68 42.4588 125.661 42.5045 125.627 42.5383C125.594 42.5721 125.548 42.591 125.5 42.591L124.98 42.631Z" fill="white"/>
<path d="M127.24 37.171V37.671C126.996 37.6606 126.754 37.7032 126.528 37.796C126.303 37.8887 126.1 38.0294 125.935 38.2083C125.769 38.3872 125.645 38.5999 125.57 38.8318C125.494 39.0636 125.471 39.309 125.5 39.551V42.451H124.98V37.241H125.5V38.241C125.641 37.9029 125.886 37.6178 126.198 37.4258C126.51 37.2338 126.874 37.1447 127.24 37.171Z" fill="white"/>
</g>
<defs>
<clipPath id="clip0_281_292">
<rect width="127.44" height="44.57" fill="white" transform="translate(0 0.250977)"/>
</clipPath>
</defs>
</svg>
