<svg width="128" height="45" viewBox="0 0 128 45" fill="none" xmlns="http://www.w3.org/2000/svg">
<g clip-path="url(#clip0_281_68)">
<path d="M16.84 13.33C16.8426 15.5587 15.9605 17.6974 14.3874 19.2761C12.8142 20.8549 10.6787 21.7446 8.45001 21.7499H3.91998V26.22C3.91998 26.7292 3.71767 27.2175 3.3576 27.5776C2.99754 27.9376 2.50922 28.14 2 28.14C1.49078 28.14 1.0024 27.9376 0.642334 27.5776C0.282264 27.2175 0.0799561 26.7292 0.0799561 26.22V6.86993C0.0799561 6.36072 0.282264 5.8724 0.642334 5.51233C1.0024 5.15226 1.49078 4.94995 2 4.94995H8.45001C10.6718 4.95522 12.8012 5.83948 14.3732 7.40961C15.9452 8.97974 16.832 11.1081 16.84 13.33ZM13.01 13.33C13.0047 12.125 12.5216 10.9713 11.6667 10.122C10.8119 9.27275 9.65502 8.79727 8.45001 8.79993H3.91998V17.89H8.45001C9.04921 17.8913 9.64275 17.7742 10.1966 17.5455C10.7504 17.3168 11.2536 16.981 11.6773 16.5573C12.101 16.1336 12.4369 15.6304 12.6656 15.0765C12.8943 14.5227 13.0113 13.9292 13.01 13.33Z" fill="#0071BC"/>
<path d="M34.09 24.9101C34.4324 25.2904 34.6159 25.7874 34.6029 26.299C34.5899 26.8105 34.3813 27.2976 34.02 27.6601C33.6658 28.0019 33.1923 28.192 32.7001 28.19C32.4392 28.1937 32.1804 28.1421 31.9409 28.0387C31.7013 27.9353 31.4863 27.7824 31.3101 27.5901L25.6901 21.77H21.99V26.27C22.0091 26.5332 21.9737 26.7974 21.886 27.0462C21.7984 27.2951 21.6605 27.5231 21.4808 27.7163C21.3011 27.9094 21.0835 28.0635 20.8417 28.1688C20.5998 28.2741 20.3389 28.3285 20.0751 28.3285C19.8113 28.3285 19.5503 28.2741 19.3084 28.1688C19.0665 28.0635 18.849 27.9094 18.6693 27.7163C18.4896 27.5231 18.3516 27.2951 18.264 27.0462C18.1764 26.7974 18.141 26.5332 18.16 26.27V6.90005C18.16 6.64838 18.2098 6.39916 18.3064 6.16677C18.403 5.93439 18.5446 5.72342 18.723 5.54592C18.9014 5.36843 19.1132 5.22793 19.3461 5.13253C19.579 5.03714 19.8283 4.9887 20.08 4.99002H26.52C28.4176 4.98704 30.26 5.62822 31.7458 6.80856C33.2316 7.98889 34.2728 9.63851 34.699 11.4876C35.1253 13.3366 34.9114 15.2757 34.0923 16.9873C33.2732 18.699 31.8974 20.082 30.1901 20.9101L34.09 24.9101ZM21.99 17.9101H26.52C27.7294 17.9101 28.8893 17.4296 29.7444 16.5744C30.5996 15.7193 31.08 14.5594 31.08 13.3501C31.08 12.1407 30.5996 10.9808 29.7444 10.1256C28.8893 9.27047 27.7294 8.79007 26.52 8.79007H21.99V17.9101Z" fill="#0071BC"/>
<path d="M58.92 6.79V6.43996L58.5899 6.33999C58.2799 6.24999 51.11 4.08997 49 4.19997C46.89 4.07997 39.7199 6.19999 39.4099 6.33999L39.0799 6.43996V6.79C38.5699 25.59 47.8 28.18 48.86 28.41H49.1599C50.1599 28.18 59.39 25.59 58.92 6.79ZM48.92 24.23C47.28 23.41 43.26 20.3 42.99 9.45998C44.8709 8.87775 46.7978 8.45622 48.75 8.19997H49.1499C51.084 8.46118 52.9937 8.87922 54.86 9.44997C54.61 20.33 50.61 23.4 48.92 24.23Z" fill="#8BC53F"/>
<path d="M45.7601 13.6899C45.7601 13.7289 45.7523 13.7674 45.7371 13.8033C45.7219 13.8391 45.6996 13.8715 45.6716 13.8986C45.6436 13.9257 45.6104 13.9468 45.5741 13.9608C45.5377 13.9748 45.4989 13.9813 45.46 13.98C45.3831 13.98 45.3094 13.9494 45.255 13.895C45.2006 13.8406 45.17 13.7668 45.17 13.6899C45.17 13.613 45.2006 13.5393 45.255 13.4849C45.3094 13.4305 45.3831 13.4 45.46 13.4C45.4989 13.3986 45.5377 13.4051 45.5741 13.4191C45.6104 13.433 45.6436 13.4542 45.6716 13.4813C45.6996 13.5083 45.7219 13.5407 45.7371 13.5766C45.7523 13.6124 45.7601 13.651 45.7601 13.6899Z" fill="#8BC53F"/>
<path d="M45.7501 14.58V16.47C45.7501 16.58 45.62 16.66 45.46 16.66C45.3 16.66 45.1801 16.58 45.1801 16.47V14.58C45.1801 14.48 45.31 14.39 45.46 14.39C45.61 14.39 45.7501 14.48 45.7501 14.58Z" fill="#8BC53F"/>
<path d="M49.3701 14.79V16.3799C49.3701 16.4542 49.3406 16.5254 49.2881 16.5779C49.2355 16.6304 49.1643 16.66 49.0901 16.66C49.0529 16.6614 49.0159 16.655 48.9813 16.6415C48.9467 16.6279 48.9152 16.6073 48.8889 16.581C48.8627 16.5548 48.8421 16.5234 48.8285 16.4888C48.8149 16.4541 48.8087 16.4171 48.8101 16.3799V14.79C48.8197 14.6835 48.8073 14.5761 48.7737 14.4746C48.7401 14.3731 48.686 14.2796 48.6147 14.1999C48.5434 14.1202 48.4565 14.0559 48.3594 14.0112C48.2623 13.9665 48.157 13.9422 48.0501 13.9399C47.9432 13.9422 47.8379 13.9665 47.7408 14.0112C47.6436 14.0559 47.5567 14.1202 47.4854 14.1999C47.4142 14.2796 47.3601 14.3731 47.3264 14.4746C47.2928 14.5761 47.2804 14.6835 47.2901 14.79V16.3799C47.2901 16.4542 47.2605 16.5254 47.208 16.5779C47.1555 16.6304 47.0844 16.66 47.0101 16.66C46.9358 16.66 46.8646 16.6304 46.8121 16.5779C46.7596 16.5254 46.7301 16.4542 46.7301 16.3799V14.79C46.7144 14.4241 46.8396 14.0662 47.08 13.79C47.203 13.6469 47.3571 13.5338 47.5304 13.4593C47.7037 13.3848 47.8916 13.3509 48.08 13.36C48.2685 13.3509 48.4565 13.3848 48.6298 13.4593C48.8031 13.5338 48.957 13.6469 49.08 13.79C49.2946 14.0772 49.3977 14.4325 49.3701 14.79Z" fill="#8BC53F"/>
<path d="M51.5901 13.38C51.2661 13.382 50.95 13.4799 50.6817 13.6613C50.4133 13.8427 50.2047 14.0995 50.0821 14.3993C49.9595 14.6991 49.9284 15.0286 49.9928 15.3461C50.0572 15.6635 50.2142 15.9548 50.4439 16.1832C50.6737 16.4115 50.9659 16.5667 51.2838 16.6292C51.6016 16.6917 51.9309 16.6586 52.2299 16.5342C52.529 16.4098 52.7846 16.1996 52.9644 15.9301C53.1442 15.6606 53.2401 15.344 53.2401 15.02C53.2374 14.5841 53.0624 14.167 52.7533 13.8597C52.4441 13.5525 52.0259 13.38 51.5901 13.38ZM51.5901 16.1C51.3765 16.1 51.1677 16.0367 50.9901 15.918C50.8125 15.7994 50.674 15.6306 50.5923 15.4333C50.5105 15.2359 50.4892 15.0188 50.5309 14.8093C50.5725 14.5998 50.6753 14.4074 50.8264 14.2563C50.9774 14.1053 51.1699 14.0024 51.3794 13.9608C51.5889 13.9191 51.806 13.9405 52.0034 14.0222C52.2007 14.104 52.3694 14.2424 52.4881 14.42C52.6067 14.5976 52.6701 14.8064 52.6701 15.02C52.6714 15.1622 52.6444 15.3032 52.5906 15.4349C52.5368 15.5665 52.4573 15.6861 52.3567 15.7867C52.2562 15.8872 52.1366 15.9667 52.005 16.0205C51.8733 16.0743 51.7323 16.1014 51.5901 16.1Z" fill="#8BC53F"/>
<path d="M95.64 11.93L92.97 18.03H98.3101L95.64 11.93ZM95.64 11.93L92.97 18.03H98.3101L95.64 11.93ZM123.4 4.99938e-09H66.02C64.9592 4.99938e-09 63.9417 0.421424 63.1916 1.17157C62.4414 1.92172 62.02 2.93913 62.02 4V28.35C62.02 29.4109 62.4414 30.4283 63.1916 31.1785C63.9417 31.9286 64.9592 32.35 66.02 32.35H123.4C124.461 32.35 125.478 31.9286 126.228 31.1785C126.979 30.4283 127.4 29.4109 127.4 28.35V4.04004C127.405 3.5114 127.306 2.98694 127.107 2.49701C126.908 2.00708 126.615 1.56135 126.243 1.18567C125.871 0.809987 125.428 0.511804 124.94 0.308289C124.452 0.104773 123.929 -2.64292e-05 123.4 4.99938e-09ZM85.4 24.71C85.4 25.1582 85.222 25.5881 84.905 25.905C84.5881 26.222 84.1582 26.4 83.71 26.4C83.2618 26.4 82.832 26.222 82.515 25.905C82.1981 25.5881 82.02 25.1582 82.02 24.71V13.23L77.46 20.03C77.3072 20.2632 77.0987 20.4546 76.8535 20.5871C76.6082 20.7196 76.3338 20.7889 76.0551 20.7889C75.7763 20.7889 75.5019 20.7196 75.2566 20.5871C75.0113 20.4546 74.8029 20.2632 74.65 20.03L70.09 13.23V24.71C70.1079 24.9422 70.0777 25.1756 70.0011 25.3955C69.9245 25.6154 69.8034 25.8172 69.6451 25.9881C69.4869 26.159 69.2951 26.2953 69.0817 26.3885C68.8683 26.4818 68.6379 26.5299 68.405 26.5299C68.1721 26.5299 67.9418 26.4818 67.7284 26.3885C67.515 26.2953 67.3232 26.159 67.165 25.9881C67.0068 25.8172 66.8855 25.6154 66.809 25.3955C66.7324 25.1756 66.7021 24.9422 66.72 24.71V7.71002C66.7266 7.35242 66.8464 7.00613 67.0623 6.72095C67.2781 6.43576 67.5789 6.22637 67.9213 6.12299C68.2637 6.0196 68.63 6.0275 68.9677 6.14557C69.3053 6.26363 69.5967 6.4858 69.8 6.78003L76.0701 16.08L82.3101 6.78003C82.5115 6.48057 82.8045 6.25442 83.1452 6.13544C83.4859 6.01646 83.856 6.01102 84.2001 6.12C84.5427 6.22375 84.8435 6.43366 85.0592 6.71942C85.2749 7.00518 85.3942 7.35206 85.4 7.71002V24.71ZM103.81 26.27C103.587 26.3721 103.345 26.4234 103.1 26.42C102.775 26.4171 102.457 26.3213 102.184 26.1442C101.912 25.9671 101.695 25.7159 101.56 25.42L99.8201 21.42H91.52L89.77 25.42C89.6832 25.6256 89.556 25.8116 89.3961 25.9672C89.2361 26.1227 89.0466 26.2447 88.8387 26.3258C88.6308 26.4069 88.4088 26.4455 88.1857 26.4394C87.9627 26.4332 87.7431 26.3825 87.54 26.29C87.137 26.1061 86.821 25.773 86.6588 25.3607C86.4965 24.9485 86.5005 24.4893 86.67 24.08L94.1301 7.08002C94.2607 6.78027 94.4761 6.52516 94.7496 6.34601C95.0232 6.16685 95.343 6.07141 95.67 6.07141C95.997 6.07141 96.3169 6.16685 96.5905 6.34601C96.864 6.52516 97.0793 6.78027 97.21 7.08002L104.67 24.08C104.837 24.4889 104.838 24.9472 104.672 25.3565C104.505 25.7659 104.185 26.0938 103.78 26.27H103.81ZM122.42 23.69C122.687 24.0425 122.806 24.4851 122.751 24.9238C122.697 25.3625 122.474 25.7629 122.13 26.04C121.849 26.2749 121.497 26.4087 121.13 26.42C120.876 26.4141 120.625 26.3538 120.396 26.2435C120.167 26.1331 119.963 25.9751 119.8 25.78L114.42 18.95L109.05 25.78C108.884 25.9749 108.679 26.1326 108.448 26.2429C108.217 26.3532 107.966 26.4136 107.71 26.42C107.343 26.4095 106.991 26.2756 106.71 26.04C106.537 25.9045 106.392 25.7358 106.284 25.5438C106.177 25.3517 106.108 25.1403 106.083 24.9216C106.058 24.7029 106.077 24.4813 106.138 24.2699C106.199 24.0585 106.302 23.8614 106.44 23.69L112.31 16.23L106.44 8.76001C106.301 8.58621 106.198 8.38669 106.136 8.17285C106.074 7.95901 106.056 7.73506 106.081 7.51392C106.106 7.29278 106.174 7.0788 106.282 6.88422C106.39 6.68963 106.536 6.51825 106.71 6.38C106.884 6.2395 107.084 6.13539 107.299 6.07379C107.514 6.01219 107.739 5.99438 107.961 6.02142C108.183 6.04847 108.398 6.11978 108.592 6.2312C108.785 6.34262 108.955 6.49188 109.09 6.67004L114.46 13.49L119.84 6.67004C119.975 6.49188 120.145 6.34262 120.339 6.2312C120.532 6.11978 120.747 6.04847 120.969 6.02142C121.191 5.99438 121.416 6.01219 121.631 6.07379C121.846 6.13539 122.046 6.2395 122.22 6.38C122.566 6.66242 122.79 7.06799 122.844 7.51166C122.898 7.95533 122.779 8.40267 122.51 8.76001L116.61 16.23L122.42 23.69ZM93.0001 18.03H98.34L95.67 11.93L93.0001 18.03Z" fill="#0071BC"/>
<path d="M1.07996 42.38C1.03222 42.38 0.986454 42.361 0.952698 42.3272C0.918941 42.2935 0.899963 42.2477 0.899963 42.2V37.69H0.190002C0.139611 37.69 0.0912349 37.6699 0.055603 37.6343C0.0199711 37.5987 0 37.5503 0 37.4999V36.9899C0.0025634 36.9413 0.0236631 36.8955 0.059021 36.862C0.0943789 36.8285 0.141297 36.8099 0.190002 36.8099H0.919983V36.71C0.884993 36.4345 0.911822 36.1546 0.998474 35.8908C1.08513 35.627 1.22944 35.3858 1.42096 35.1847C1.61247 34.9836 1.84636 34.8277 2.10565 34.7283C2.36495 34.6289 2.64312 34.5885 2.91998 34.61H3.19C3.23599 34.6126 3.27923 34.6326 3.31085 34.6661C3.34248 34.6996 3.36006 34.7439 3.35999 34.79V35.29C3.35923 35.3427 3.33767 35.393 3.29999 35.4299C3.25786 35.4444 3.21211 35.4444 3.16998 35.4299H2.91998C2.12998 35.4299 1.77997 35.81 1.77997 36.66V36.76H3.13995C3.16442 36.7586 3.18891 36.7623 3.21191 36.7707C3.23492 36.7791 3.25602 36.7922 3.2738 36.809C3.29159 36.8259 3.3057 36.8461 3.31537 36.8687C3.32503 36.8912 3.32999 36.9154 3.32996 36.94V37.45C3.33141 37.4753 3.32752 37.5007 3.31848 37.5244C3.30945 37.5481 3.29547 37.5696 3.27753 37.5875C3.25959 37.6055 3.23806 37.6195 3.21436 37.6285C3.19065 37.6375 3.16528 37.6414 3.13995 37.64H1.77997V42.15C1.78001 42.1745 1.77505 42.1987 1.76538 42.2213C1.75572 42.2438 1.74154 42.264 1.72375 42.2809C1.70597 42.2977 1.68493 42.3108 1.66193 42.3192C1.63892 42.3277 1.61443 42.3313 1.58997 42.33L1.07996 42.38Z" fill="#0071BC"/>
<path d="M1.61005 36.71V36.9899H3.16003V37.4999H1.61005V42.2H1.08002V37.4999H0.190063V36.9899H1.08002V36.71C1.04736 36.4361 1.0803 36.1584 1.17609 35.8997C1.27187 35.6411 1.42776 35.4089 1.63092 35.2223C1.83408 35.0357 2.07868 34.9002 2.34454 34.8267C2.61041 34.7533 2.88992 34.7441 3.16003 34.7999V35.2999C2.10003 35.2199 1.61005 35.71 1.61005 36.71Z" fill="#0071BC"/>
<path d="M6.58002 42.4999C5.81089 42.4999 5.07327 42.1944 4.52942 41.6505C3.98556 41.1067 3.68005 40.3691 3.68005 39.5999C3.68005 38.8308 3.98556 38.0931 4.52942 37.5493C5.07327 37.0054 5.81089 36.6999 6.58002 36.6999C6.96712 36.6919 7.35148 36.7672 7.70691 36.9207C8.06234 37.0743 8.38054 37.3026 8.64001 37.5899V36.9899C8.64001 36.9422 8.65899 36.8964 8.69275 36.8626C8.72651 36.8289 8.77233 36.8099 8.82007 36.8099H9.35004C9.39874 36.8098 9.4456 36.8285 9.48096 36.862C9.51631 36.8955 9.53748 36.9413 9.54004 36.9899V42.1999C9.53748 42.2486 9.51631 42.2944 9.48096 42.3279C9.4456 42.3613 9.39874 42.38 9.35004 42.3799H8.82007C8.77233 42.3799 8.72651 42.3609 8.69275 42.3272C8.65899 42.2934 8.64001 42.2477 8.64001 42.1999V41.5999C8.3823 41.8902 8.06466 42.1209 7.70898 42.2763C7.3533 42.4317 6.96808 42.508 6.58002 42.4999ZM6.63007 37.5699C6.2345 37.5699 5.84782 37.6873 5.51892 37.907C5.19002 38.1268 4.93366 38.4391 4.78229 38.8045C4.63091 39.17 4.59129 39.5722 4.66846 39.9601C4.74563 40.3481 4.93612 40.7045 5.21582 40.9842C5.49553 41.2639 5.85191 41.4544 6.23987 41.5315C6.62783 41.6087 7.02993 41.5691 7.39539 41.4177C7.76084 41.2663 8.07321 41.01 8.29297 40.6811C8.51273 40.3522 8.63007 39.9655 8.63007 39.5699C8.63007 39.0395 8.41932 38.5308 8.04425 38.1557C7.66918 37.7807 7.1605 37.5699 6.63007 37.5699Z" fill="#0071BC"/>
<path d="M9.35004 36.99V42.2H8.82007V41.02C8.60047 41.4172 8.27689 41.7471 7.88403 41.9744C7.49118 42.2016 7.04382 42.3176 6.59003 42.31C5.89845 42.268 5.24895 41.9637 4.77411 41.4592C4.29927 40.9546 4.03491 40.2879 4.03491 39.595C4.03491 38.9022 4.29927 38.2354 4.77411 37.7309C5.24895 37.2263 5.89845 36.922 6.59003 36.88C7.04382 36.8723 7.49118 36.9884 7.88403 37.2156C8.27689 37.4429 8.60047 37.7728 8.82007 38.17V36.99H9.35004ZM8.82007 39.6C8.81809 39.1649 8.68711 38.7401 8.44373 38.3794C8.20034 38.0188 7.85545 37.7383 7.4527 37.5737C7.04995 37.409 6.6074 37.3674 6.18103 37.4543C5.75466 37.5411 5.36365 37.7524 5.05737 38.0615C4.7511 38.3705 4.54334 38.7635 4.46039 39.1907C4.37744 39.6178 4.42303 40.0599 4.59137 40.4612C4.75971 40.8624 5.04325 41.2047 5.40613 41.4448C5.76901 41.6849 6.19495 41.812 6.63007 41.81C6.91973 41.8113 7.20674 41.755 7.47437 41.6442C7.74199 41.5333 7.98483 41.3702 8.18872 41.1645C8.39261 40.9587 8.55347 40.7144 8.66187 40.4458C8.77026 40.1772 8.82406 39.8897 8.82007 39.6Z" fill="#0071BC"/>
<path d="M13.2201 42.4999C12.7727 42.5391 12.3244 42.4366 11.9385 42.2069C11.5526 41.9772 11.2488 41.6319 11.0701 41.22C11.055 41.1798 11.0548 41.1355 11.0694 41.0952C11.0841 41.0548 11.1127 41.021 11.15 40.9999L11.6001 40.7399H11.6901H11.7601C11.7862 40.7505 11.8096 40.7668 11.8286 40.7876C11.8476 40.8084 11.8618 40.8331 11.8701 40.86C11.9802 41.1193 12.171 41.3363 12.4142 41.4786C12.6574 41.6209 12.94 41.681 13.2201 41.65C13.7801 41.65 14.3801 41.44 14.3801 40.85C14.3801 40.26 13.8901 40.2099 13.1101 40.0099C12.3301 39.8099 11.2301 39.5199 11.2301 38.3799C11.2416 38.1357 11.304 37.8965 11.4132 37.6777C11.5223 37.4588 11.6759 37.2651 11.864 37.1089C12.0522 36.9528 12.2709 36.8375 12.5061 36.7705C12.7413 36.7035 12.9878 36.6864 13.2301 36.72C13.6316 36.6943 14.0315 36.7903 14.3776 36.9954C14.7237 37.2006 14.9999 37.5054 15.1701 37.8699C15.188 37.9113 15.1897 37.958 15.1749 38.0006C15.1601 38.0431 15.1298 38.0786 15.09 38.1L14.65 38.35H14.5601H14.5001C14.475 38.3435 14.4519 38.331 14.4328 38.3135C14.4136 38.2961 14.3989 38.2743 14.39 38.2499C14.2885 38.0329 14.1229 37.8523 13.9154 37.7325C13.708 37.6127 13.4688 37.5594 13.2301 37.58C12.7001 37.58 12.1701 37.8199 12.1701 38.3699C12.1701 38.9199 12.6401 38.9899 13.4201 39.1899C14.2001 39.3899 15.3201 39.67 15.3201 40.84C15.2701 41.81 14.4301 42.4999 13.2201 42.4999Z" fill="#0071BC"/>
<path d="M15.08 40.83C15.08 41.69 14.33 42.31 13.22 42.31C12.8087 42.3484 12.3956 42.2584 12.0375 42.0525C11.6794 41.8465 11.3938 41.5348 11.22 41.1601L11.67 40.9C11.7931 41.1962 12.0085 41.4447 12.2841 41.6087C12.5598 41.7726 12.881 41.8432 13.2 41.81C13.93 41.81 14.54 41.49 14.54 40.81C14.54 39.4 11.39 40.21 11.39 38.34C11.4035 38.1246 11.4607 37.9141 11.5582 37.7215C11.6556 37.5289 11.7914 37.3582 11.957 37.2197C12.1226 37.0812 12.3147 36.9779 12.5215 36.9161C12.7283 36.8543 12.9455 36.8352 13.16 36.8601C13.5204 36.8357 13.8801 36.9174 14.1946 37.0951C14.5092 37.2728 14.7648 37.5388 14.93 37.8601L14.49 38.1101C14.3748 37.8589 14.1858 37.6487 13.9482 37.5075C13.7106 37.3664 13.4357 37.301 13.16 37.32C12.48 37.32 11.91 37.67 11.91 38.32C11.92 39.75 15.08 38.93 15.08 40.83Z" fill="#0071BC"/>
<path d="M18.74 42.4399C18.3167 42.4737 17.897 42.341 17.5701 42.07C17.4208 41.914 17.3061 41.7283 17.2338 41.5249C17.1614 41.3215 17.1328 41.1051 17.15 40.89V37.6899H16.15C16.1247 37.6914 16.0993 37.6875 16.0756 37.6785C16.0519 37.6694 16.0304 37.6555 16.0124 37.6375C15.9945 37.6196 15.9806 37.5981 15.9715 37.5743C15.9625 37.5506 15.9586 37.5253 15.96 37.4999V36.9899C15.96 36.9654 15.9649 36.9412 15.9746 36.9187C15.9843 36.8962 15.9984 36.8759 16.0162 36.859C16.034 36.8422 16.055 36.8291 16.0781 36.8207C16.1011 36.8123 16.1255 36.8086 16.15 36.8099H17.15V35.6899C17.1512 35.6501 17.1657 35.6118 17.191 35.5811C17.2164 35.5503 17.2512 35.5288 17.29 35.52L17.8201 35.36H17.92C17.956 35.3502 17.994 35.3502 18.03 35.36C18.0541 35.3771 18.0739 35.3995 18.0878 35.4255C18.1016 35.4516 18.1093 35.4805 18.11 35.51V36.78H19.47C19.5187 36.7799 19.5656 36.7985 19.6009 36.832C19.6363 36.8655 19.6575 36.9113 19.66 36.96V37.47C19.66 37.5204 19.64 37.5687 19.6044 37.6043C19.5687 37.6399 19.5204 37.66 19.47 37.66H18.11V40.86C18.11 41.44 18.29 41.5499 18.83 41.5499C19.01 41.5499 19.2201 41.5499 19.4501 41.5499C19.4923 41.5362 19.5378 41.5362 19.58 41.5499C19.6141 41.5892 19.6351 41.6382 19.64 41.6899V42.16C19.6382 42.2038 19.6214 42.2458 19.5922 42.2786C19.563 42.3114 19.5234 42.3331 19.48 42.34C19.2364 42.3927 18.989 42.4261 18.74 42.4399Z" fill="#0071BC"/>
<path d="M17.92 37.5V40.89C17.92 41.8 18.41 41.82 19.47 41.73V42.2C18.11 42.4 17.39 42.07 17.39 40.89V37.5H16.25V36.99H17.39V35.69L17.92 35.54V36.99H19.47V37.5H17.92Z" fill="#0071BC"/>
<path d="M23.36 42.4999C22.5909 42.4999 21.8532 42.1944 21.3094 41.6506C20.7655 41.1067 20.46 40.3691 20.46 39.6C20.46 38.8308 20.7655 38.0932 21.3094 37.5493C21.8532 37.0055 22.5909 36.7 23.36 36.7C23.7346 36.7035 24.1046 36.7827 24.4479 36.9329C24.7911 37.0831 25.1004 37.3011 25.3573 37.5739C25.6142 37.8466 25.8132 38.1685 25.9426 38.5201C26.0719 38.8717 26.1289 39.2458 26.11 39.6199V39.8699C26.11 39.9177 26.091 39.9635 26.0573 39.9973C26.0235 40.031 25.9777 40.0499 25.93 40.0499H21.43C21.5164 40.5104 21.7665 40.9241 22.1341 41.2145C22.5017 41.5049 22.962 41.6525 23.43 41.6299C23.7546 41.6497 24.0785 41.5811 24.3673 41.4314C24.6561 41.2817 24.8989 41.0566 25.07 40.78C25.0786 40.7565 25.0934 40.7358 25.1127 40.72C25.1321 40.7041 25.1553 40.6938 25.18 40.6899H25.28L25.73 40.97C25.7534 40.9786 25.7742 40.9934 25.79 41.0127C25.8058 41.032 25.8162 41.0553 25.82 41.08C25.8353 41.1254 25.8353 41.1745 25.82 41.22C25.5601 41.6321 25.1954 41.9678 24.7631 42.1927C24.3309 42.4177 23.8467 42.5236 23.36 42.4999ZM25.14 39.17C25.0881 38.7255 24.8733 38.3159 24.5372 38.0204C24.2011 37.725 23.7675 37.5645 23.32 37.5699C22.8561 37.55 22.4013 37.7025 22.0431 37.9979C21.6849 38.2933 21.4487 38.7108 21.38 39.17H25.14Z" fill="#0071BC"/>
<path d="M25.92 39.62C25.92 39.7 25.92 39.78 25.92 39.87H21.21C21.2535 40.4155 21.5073 40.9228 21.9178 41.2848C22.3283 41.6467 22.8633 41.8351 23.41 41.81C23.7725 41.8222 24.1315 41.7356 24.4486 41.5594C24.7656 41.3833 25.0288 41.1242 25.21 40.81L25.67 41.08C25.4276 41.4578 25.0905 41.7655 24.6923 41.9725C24.294 42.1796 23.8485 42.2787 23.4 42.26C22.8543 42.2982 22.3097 42.171 21.8374 41.8949C21.3651 41.6188 20.9871 41.2067 20.7527 40.7125C20.5182 40.2182 20.4382 39.6647 20.5231 39.1243C20.608 38.5839 20.854 38.0817 21.2288 37.6832C21.6036 37.2847 22.0898 37.0084 22.624 36.8906C23.1582 36.7727 23.7155 36.8186 24.2232 37.0224C24.7309 37.2262 25.1654 37.5783 25.4699 38.0328C25.7744 38.4873 25.9347 39.023 25.93 39.57L25.92 39.62ZM21.2 39.36H25.38C25.38 38.8296 25.1693 38.3209 24.7942 37.9458C24.4191 37.5707 23.9105 37.36 23.38 37.36C23.1055 37.3438 22.8304 37.3819 22.5706 37.4722C22.3108 37.5625 22.0714 37.7032 21.8661 37.8862C21.6607 38.0692 21.4936 38.291 21.3741 38.5387C21.2547 38.7865 21.1853 39.0554 21.17 39.33L21.2 39.36Z" fill="#0071BC"/>
<path d="M27.73 42.3799C27.6823 42.3799 27.6365 42.361 27.6028 42.3272C27.569 42.2934 27.55 42.2477 27.55 42.1999V36.9899C27.55 36.9422 27.569 36.8964 27.6028 36.8627C27.6365 36.8289 27.6823 36.8099 27.73 36.8099H28.2501C28.2988 36.8099 28.3456 36.8285 28.381 36.862C28.4163 36.8955 28.4375 36.9413 28.4401 36.9899V37.33C28.6376 37.1192 28.8784 36.9538 29.146 36.8451C29.4136 36.7363 29.7015 36.6868 29.9901 36.6999C30.0378 36.6999 30.0836 36.7189 30.1173 36.7527C30.1511 36.7864 30.17 36.8322 30.17 36.8799V37.3799C30.1701 37.4286 30.1515 37.4755 30.118 37.5109C30.0845 37.5462 30.0387 37.5674 29.9901 37.5699C29.7714 37.5591 29.553 37.5966 29.3505 37.6797C29.1479 37.7629 28.9662 37.8897 28.8182 38.051C28.6703 38.2124 28.5596 38.4043 28.4943 38.6133C28.4289 38.8222 28.4104 39.043 28.4401 39.2599V42.16C28.4375 42.2086 28.4163 42.2544 28.381 42.2879C28.3456 42.3214 28.2988 42.34 28.2501 42.34L27.73 42.3799Z" fill="#0071BC"/>
<path d="M29.99 36.92V37.42C29.7465 37.4096 29.5036 37.4522 29.2783 37.545C29.0529 37.6378 28.8504 37.7785 28.6849 37.9573C28.5193 38.1362 28.3947 38.349 28.3196 38.5808C28.2445 38.8127 28.2208 39.058 28.25 39.3V42.2H27.73V36.99H28.25V37.99C28.3915 37.6519 28.6355 37.3668 28.9477 37.1748C29.2599 36.9828 29.6244 36.8937 29.99 36.92Z" fill="#0071BC"/>
<path d="M30.78 43.84C30.7527 43.8404 30.7258 43.8342 30.7015 43.822C30.6771 43.8099 30.656 43.792 30.64 43.77C30.6285 43.7466 30.6226 43.721 30.6226 43.695C30.6226 43.669 30.6285 43.6433 30.64 43.62L31.03 41.45C31.0389 41.4084 31.0615 41.3711 31.0941 41.344C31.1267 41.3168 31.1675 41.3012 31.21 41.2999H31.86C31.8872 41.2995 31.9142 41.3057 31.9385 41.3179C31.9629 41.3301 31.984 41.3479 32 41.37C32.011 41.3952 32.0167 41.4224 32.0167 41.45C32.0167 41.4775 32.011 41.5048 32 41.53L31.44 43.7C31.4278 43.7389 31.4041 43.7731 31.3719 43.7981C31.3397 43.8231 31.3007 43.8378 31.26 43.84H30.78Z" fill="#0071BC"/>
<path d="M31.2601 43.65H30.78L31.17 41.49H31.8201L31.2601 43.65Z" fill="#0071BC"/>
<path d="M38.92 42.5C38.4729 42.5377 38.0252 42.4346 37.6396 42.205C37.2541 41.9755 36.95 41.6311 36.77 41.22C36.7549 41.1798 36.7547 41.1356 36.7694 41.0952C36.7841 41.0549 36.8127 41.0211 36.85 41L37.3 40.74H37.39H37.46C37.4861 40.7506 37.5095 40.7669 37.5286 40.7877C37.5476 40.8084 37.5618 40.8331 37.5701 40.86C37.6802 41.1194 37.871 41.3363 38.1142 41.4786C38.3574 41.621 38.64 41.681 38.92 41.65C39.48 41.65 40.08 41.44 40.08 40.85C40.08 40.26 39.6 40.21 38.8101 40.01C38.0201 39.81 36.92 39.5 36.92 38.33C36.9316 38.0857 36.994 37.8466 37.1031 37.6277C37.2123 37.4089 37.3658 37.2152 37.554 37.059C37.7422 36.9028 37.9608 36.7876 38.196 36.7206C38.4312 36.6536 38.6778 36.6364 38.92 36.67C39.3216 36.6444 39.7215 36.7403 40.0676 36.9455C40.4137 37.1507 40.6899 37.4554 40.86 37.82C40.8779 37.8614 40.8797 37.908 40.8649 37.9506C40.85 37.9932 40.8197 38.0286 40.78 38.05L40.34 38.3C40.3108 38.3099 40.2792 38.3099 40.2501 38.3H40.1901C40.165 38.2935 40.1419 38.281 40.1227 38.2636C40.1036 38.2461 40.0889 38.2243 40.08 38.2C39.9785 37.983 39.8129 37.8024 39.6054 37.6826C39.3979 37.5627 39.1587 37.5095 38.92 37.53C38.39 37.53 37.86 37.77 37.86 38.32C37.86 38.87 38.33 38.94 39.11 39.14C39.89 39.34 41.0101 39.62 41.0101 40.79C40.9701 41.81 40.13 42.5 38.92 42.5Z" fill="#0071BC"/>
<path d="M40.78 40.83C40.78 41.69 40.03 42.31 38.92 42.31C38.5087 42.3484 38.0956 42.2584 37.7375 42.0525C37.3794 41.8465 37.0938 41.5348 36.92 41.1601L37.36 40.9C37.4832 41.1962 37.6985 41.4447 37.9742 41.6087C38.2498 41.7726 38.571 41.8432 38.89 41.81C39.62 41.81 40.23 41.49 40.23 40.81C40.23 39.4 37.08 40.21 37.08 38.34C37.0935 38.1246 37.1508 37.9141 37.2482 37.7215C37.3457 37.5289 37.4814 37.3582 37.647 37.2197C37.8126 37.0812 38.0047 36.9779 38.2115 36.9161C38.4184 36.8543 38.6356 36.8352 38.85 36.8601C39.2105 36.8357 39.5702 36.9174 39.8847 37.0951C40.1992 37.2728 40.4549 37.5388 40.6201 37.8601L40.1801 38.1101C40.0649 37.8589 39.8759 37.6487 39.6383 37.5075C39.4007 37.3664 39.1257 37.301 38.85 37.32C38.17 37.32 37.6 37.67 37.6 38.32C37.63 39.75 40.78 38.93 40.78 40.83Z" fill="#0071BC"/>
<path d="M44.44 42.4399C44.0167 42.4737 43.5969 42.341 43.2699 42.07C43.1224 41.9132 43.0097 41.727 42.9391 41.5237C42.8684 41.3204 42.8415 41.1044 42.86 40.89V37.6899H41.86C41.8346 37.6914 41.8093 37.6875 41.7856 37.6785C41.7619 37.6694 41.7403 37.6555 41.7224 37.6375C41.7045 37.6196 41.6905 37.5981 41.6814 37.5743C41.6724 37.5506 41.6685 37.5253 41.67 37.4999V36.9899C41.6699 36.9654 41.6749 36.9412 41.6846 36.9187C41.6942 36.8962 41.7084 36.8759 41.7262 36.859C41.744 36.8422 41.765 36.8291 41.788 36.8207C41.811 36.8123 41.8355 36.8086 41.86 36.8099H42.86V35.6899C42.8589 35.651 42.8712 35.6129 42.8949 35.5819C42.9186 35.551 42.9521 35.5291 42.99 35.52L43.5199 35.36C43.556 35.3502 43.594 35.3502 43.63 35.36C43.6541 35.3771 43.6738 35.3995 43.6877 35.4255C43.7016 35.4516 43.7092 35.4805 43.71 35.51V36.78H45.07C45.1187 36.7799 45.1656 36.7985 45.2009 36.832C45.2363 36.8655 45.2574 36.9113 45.26 36.96V37.47C45.26 37.5204 45.24 37.5687 45.2043 37.6043C45.1687 37.6399 45.1204 37.66 45.07 37.66H43.71V40.86C43.71 41.44 43.9 41.5499 44.43 41.5499C44.61 41.5499 44.82 41.5499 45.05 41.5499C45.0922 41.5362 45.1377 41.5362 45.18 41.5499C45.2141 41.5892 45.235 41.6382 45.24 41.6899V42.16C45.2382 42.2038 45.2213 42.2458 45.1921 42.2786C45.163 42.3114 45.1233 42.3331 45.0799 42.34C44.8691 42.3879 44.6554 42.4212 44.44 42.4399Z" fill="#0071BC"/>
<path d="M43.5701 37.5V40.89C43.5701 41.8 44.0601 41.82 45.1201 41.73V42.2C43.7601 42.4 43.04 42.07 43.04 40.89V37.5H41.92V36.99H43.0601V35.69L43.59 35.54V36.99H45.14V37.5H43.5701Z" fill="#0071BC"/>
<path d="M46.9901 42.3799C46.9423 42.3799 46.8965 42.361 46.8628 42.3272C46.829 42.2934 46.8101 42.2477 46.8101 42.1999V36.9899C46.8101 36.9422 46.829 36.8964 46.8628 36.8627C46.8965 36.8289 46.9423 36.8099 46.9901 36.8099H47.5101C47.5345 36.8086 47.559 36.8122 47.582 36.8207C47.605 36.8291 47.6261 36.8422 47.6439 36.859C47.6616 36.8759 47.6758 36.8962 47.6854 36.9187C47.6951 36.9412 47.7001 36.9654 47.7001 36.9899V37.33C47.8976 37.1192 48.1384 36.9538 48.406 36.8451C48.6736 36.7363 48.9615 36.6868 49.2501 36.6999C49.2988 36.6999 49.3456 36.7185 49.381 36.752C49.4163 36.7855 49.4375 36.8313 49.4401 36.8799V37.3799C49.4376 37.4295 49.4168 37.4765 49.3817 37.5116C49.3466 37.5467 49.2997 37.5675 49.2501 37.5699C49.0314 37.5591 48.813 37.5966 48.6105 37.6797C48.4079 37.7629 48.2262 37.8897 48.0782 38.051C47.9303 38.2124 47.8196 38.4043 47.7543 38.6133C47.6889 38.8222 47.6704 39.043 47.7001 39.2599V42.16C47.7001 42.1845 47.6951 42.2087 47.6854 42.2312C47.6758 42.2537 47.6616 42.274 47.6439 42.2909C47.6261 42.3077 47.605 42.3208 47.582 42.3292C47.559 42.3377 47.5345 42.3413 47.5101 42.34L46.9901 42.3799Z" fill="#0071BC"/>
<path d="M49.25 36.9201V37.4201C49.007 37.4113 48.7649 37.4551 48.5403 37.5484C48.3158 37.6418 48.114 37.7825 47.9489 37.961C47.7837 38.1395 47.6589 38.3515 47.5832 38.5826C47.5075 38.8137 47.4825 39.0584 47.51 39.3V42.2H46.99V36.99H47.51V37.99C47.6527 37.6528 47.897 37.3686 48.2089 37.1768C48.5207 36.985 48.8847 36.8953 49.25 36.9201Z" fill="#0071BC"/>
<path d="M52.99 42.4999C52.4169 42.498 51.8572 42.3262 51.3816 42.0063C50.906 41.6865 50.5358 41.2329 50.3179 40.7028C50.0999 40.1727 50.0439 39.59 50.1569 39.0281C50.2699 38.4662 50.5469 37.9504 50.9529 37.5458C51.3588 37.1413 51.8756 36.866 52.4379 36.7549C53.0001 36.6438 53.5827 36.7019 54.1121 36.9217C54.6414 37.1415 55.0937 37.5132 55.4119 37.9899C55.7301 38.4665 55.9 39.0268 55.9 39.6C55.9013 39.982 55.8269 40.3605 55.681 40.7136C55.5351 41.0667 55.3207 41.3874 55.05 41.6571C54.7794 41.9268 54.458 42.1401 54.1044 42.2848C53.7508 42.4295 53.372 42.5026 52.99 42.4999ZM52.99 37.5699C52.5944 37.5699 52.2077 37.6873 51.8788 37.907C51.5499 38.1268 51.2936 38.4391 51.1422 38.8046C50.9908 39.17 50.9513 39.5722 51.0284 39.9601C51.1056 40.3481 51.296 40.7045 51.5757 40.9842C51.8555 41.2639 52.2118 41.4544 52.5998 41.5315C52.9878 41.6087 53.3899 41.5691 53.7554 41.4177C54.1208 41.2663 54.4331 41.01 54.6529 40.6811C54.8727 40.3522 54.99 39.9655 54.99 39.5699C54.99 39.0395 54.7792 38.5308 54.4042 38.1558C54.0291 37.7807 53.5204 37.5699 52.99 37.5699Z" fill="#0071BC"/>
<path d="M50.2601 39.6C50.2561 39.0592 50.4128 38.5294 50.7104 38.0778C51.008 37.6263 51.4329 37.2732 51.9314 37.0635C52.4299 36.8538 52.9794 36.797 53.5103 36.9C54.0411 37.0031 54.5295 37.2615 54.9133 37.6425C55.2971 38.0234 55.5591 38.5099 55.666 39.04C55.773 39.5701 55.7201 40.12 55.5141 40.62C55.3081 41.12 54.9582 41.5476 54.5088 41.8485C54.0594 42.1493 53.5309 42.3099 52.9901 42.3099C52.6321 42.3139 52.277 42.2467 51.9453 42.1122C51.6136 41.9777 51.3119 41.7785 51.0579 41.5263C50.8038 41.2741 50.6025 40.974 50.4655 40.6433C50.3286 40.3125 50.2587 39.9579 50.2601 39.6ZM55.1901 39.6C55.1881 39.1653 55.0574 38.7409 54.8145 38.3804C54.5715 38.02 54.2272 37.7396 53.825 37.5746C53.4229 37.4096 52.9809 37.3674 52.5548 37.4534C52.1287 37.5394 51.7376 37.7498 51.4309 38.0579C51.1242 38.3659 50.9157 38.758 50.8316 39.1845C50.7475 39.6109 50.7917 40.0528 50.9585 40.4542C51.1253 40.8556 51.4073 41.1986 51.7689 41.4399C52.1304 41.6812 52.5554 41.8099 52.9901 41.8099C53.2802 41.8113 53.5677 41.7549 53.8358 41.6442C54.104 41.5335 54.3475 41.3707 54.5522 41.165C54.7569 40.9594 54.9187 40.7151 55.0282 40.4465C55.1377 40.1778 55.1927 39.8901 55.1901 39.6Z" fill="#0071BC"/>
<path d="M61.46 42.3799C61.4123 42.3799 61.3665 42.3609 61.3328 42.3272C61.299 42.2934 61.28 42.2477 61.28 42.1999V38.9599C61.3034 38.7753 61.2849 38.5878 61.226 38.4112C61.167 38.2347 61.0691 38.0737 60.9394 37.9402C60.8097 37.8067 60.6517 37.7041 60.4769 37.64C60.3022 37.5759 60.1153 37.5519 59.9301 37.5699C58.9301 37.5699 58.3 38.2699 58.3 39.4499V42.1999C58.2975 42.2486 58.2763 42.2944 58.241 42.3279C58.2056 42.3613 58.1588 42.38 58.11 42.3799H57.59C57.5423 42.3799 57.4965 42.3609 57.4628 42.3272C57.429 42.2934 57.41 42.2477 57.41 42.1999V36.9899C57.41 36.9422 57.429 36.8964 57.4628 36.8626C57.4965 36.8289 57.5423 36.8099 57.59 36.8099H58.11C58.1588 36.8098 58.2056 36.8285 58.241 36.862C58.2763 36.8955 58.2975 36.9413 58.3 36.9899V37.3899C58.5112 37.1601 58.7702 36.9792 59.0587 36.86C59.3471 36.7408 59.6582 36.6862 59.97 36.6999C60.2693 36.6817 60.569 36.728 60.8488 36.8358C61.1286 36.9437 61.3819 37.1104 61.5916 37.3248C61.8012 37.5392 61.9622 37.7962 62.0638 38.0783C62.1653 38.3605 62.205 38.6611 62.1801 38.9599V42.1999C62.1775 42.2486 62.1563 42.2944 62.121 42.3279C62.0856 42.3613 62.0388 42.38 61.9901 42.3799H61.46Z" fill="#0071BC"/>
<path d="M61.99 38.96V42.2H61.46V38.96C61.4826 38.7513 61.459 38.5402 61.3909 38.3416C61.3227 38.1431 61.2117 37.962 61.0656 37.8112C60.9196 37.6604 60.7421 37.5435 60.5458 37.469C60.3496 37.3945 60.1393 37.3641 59.93 37.38C58.93 37.38 58.11 38.05 58.11 39.45V42.2H57.59V36.99H58.11V37.99C58.2821 37.6478 58.5489 37.3622 58.8787 37.1672C59.2084 36.9722 59.5872 36.876 59.97 36.89C60.2435 36.8749 60.5171 36.9185 60.7725 37.0178C61.0278 37.1172 61.2589 37.27 61.4502 37.4661C61.6415 37.6622 61.7887 37.897 61.8818 38.1547C61.9749 38.4123 62.0118 38.6869 61.99 38.96Z" fill="#0071BC"/>
<path d="M66.6301 44.58C66.1091 44.627 65.5855 44.524 65.1212 44.283C64.6569 44.042 64.2714 43.6731 64.0101 43.22C63.9907 43.1783 63.9871 43.131 64 43.0868C64.0129 43.0427 64.0413 43.0048 64.08 42.98L64.54 42.72H64.6301H64.6901C64.7148 42.7238 64.738 42.7342 64.7573 42.75C64.7767 42.7658 64.7914 42.7865 64.8 42.81C64.981 43.1256 65.2514 43.3805 65.5771 43.5425C65.9028 43.7044 66.2692 43.7662 66.6301 43.72C66.8741 43.7514 67.122 43.7285 67.3562 43.6529C67.5904 43.5774 67.8049 43.451 67.9846 43.2828C68.1642 43.1147 68.3045 42.9088 68.3953 42.6802C68.4862 42.4515 68.5253 42.2056 68.5101 41.96V41.6C68.2557 41.8924 67.9403 42.1253 67.5861 42.2826C67.2319 42.4398 66.8475 42.5174 66.46 42.51C65.6909 42.51 64.9533 42.2045 64.4094 41.6606C63.8656 41.1168 63.5601 40.3792 63.5601 39.61C63.5601 38.8409 63.8656 38.1032 64.4094 37.5594C64.9533 37.0155 65.6909 36.71 66.46 36.71C66.8468 36.7006 67.2309 36.7764 67.5851 36.9319C67.9394 37.0875 68.2552 37.319 68.5101 37.61V37C68.5126 36.9513 68.5337 36.9055 68.5691 36.872C68.6044 36.8386 68.6514 36.8199 68.7001 36.82H69.22C69.2687 36.8199 69.3156 36.8386 69.351 36.872C69.3863 36.9055 69.4075 36.9513 69.41 37V42C69.4126 42.3567 69.3409 42.7101 69.1995 43.0376C69.058 43.3652 68.8499 43.6597 68.5884 43.9024C68.3269 44.1451 68.0177 44.3306 67.6805 44.4473C67.3434 44.564 66.9856 44.6092 66.6301 44.58ZM66.5001 37.58C66.1045 37.58 65.7178 37.6973 65.3889 37.917C65.06 38.1368 64.8037 38.4492 64.6523 38.8146C64.5009 39.1801 64.4613 39.5822 64.5385 39.9702C64.6156 40.3582 64.8061 40.7145 65.0858 40.9942C65.3655 41.2739 65.7219 41.4644 66.1099 41.5415C66.4978 41.6187 66.8999 41.5792 67.2654 41.4278C67.6308 41.2764 67.9432 41.02 68.163 40.6911C68.3827 40.3622 68.5001 39.9756 68.5001 39.58C68.5014 39.3165 68.4506 39.0554 68.3507 38.8116C68.2508 38.5678 68.1036 38.3461 67.9178 38.1593C67.7319 37.9726 67.511 37.8243 67.2677 37.7232C67.0244 37.6221 66.7635 37.57 66.5001 37.57V37.58Z" fill="#0071BC"/>
<path d="M69.22 36.99V41.99C69.2282 42.3256 69.1657 42.6592 69.0364 42.969C68.9071 43.2788 68.714 43.5579 68.4696 43.7881C68.2253 44.0183 67.9352 44.1944 67.6182 44.305C67.3013 44.4156 66.9646 44.4582 66.6301 44.43C66.1449 44.4776 65.6563 44.3851 65.222 44.1636C64.7878 43.9421 64.4262 43.6007 64.1801 43.18L64.6301 42.92C64.8259 43.2669 65.1209 43.5475 65.4772 43.7256C65.8336 43.9038 66.235 43.9715 66.6301 43.92C66.8982 43.9508 67.1699 43.9228 67.4262 43.8381C67.6825 43.7534 67.9173 43.6139 68.1143 43.4293C68.3112 43.2447 68.4656 43.0194 68.5668 42.7691C68.6679 42.5189 68.7134 42.2496 68.7001 41.98V40.98C68.4863 41.3865 68.1635 41.7254 67.7678 41.9586C67.3721 42.1918 66.9192 42.31 66.46 42.3C65.7684 42.258 65.119 41.9537 64.6442 41.4491C64.1693 40.9446 63.9049 40.2778 63.9049 39.585C63.9049 38.8921 64.1693 38.2254 64.6442 37.7209C65.119 37.2163 65.7684 36.912 66.46 36.87C66.9192 36.86 67.3721 36.9782 67.7678 37.2114C68.1635 37.4446 68.4863 37.7835 68.7001 38.19V36.98L69.22 36.99ZM68.7001 39.6C68.7001 39.1625 68.5702 38.7348 68.3269 38.3711C68.0836 38.0075 67.7378 37.7243 67.3334 37.5573C66.929 37.3903 66.4841 37.3471 66.0552 37.4332C65.6262 37.5193 65.2325 37.7308 64.9238 38.0409C64.6152 38.3509 64.4054 38.7457 64.3213 39.175C64.2371 39.6044 64.2824 40.049 64.4512 40.4527C64.62 40.8563 64.9048 41.2008 65.2695 41.4424C65.6343 41.684 66.0625 41.812 66.5001 41.81C66.7902 41.8113 67.0777 41.755 67.3458 41.6443C67.614 41.5335 67.8575 41.3707 68.0622 41.1651C68.2669 40.9595 68.4287 40.7152 68.5382 40.4465C68.6477 40.1778 68.7027 39.8901 68.7001 39.6Z" fill="#0071BC"/>
<path d="M73.83 42.4999C73.0609 42.4999 72.3233 42.1944 71.7794 41.6506C71.2356 41.1067 70.9301 40.3691 70.9301 39.6C70.9301 38.8308 71.2356 38.0932 71.7794 37.5493C72.3233 37.0055 73.0609 36.7 73.83 36.7C74.2042 36.7049 74.5736 36.7851 74.9162 36.9357C75.2588 37.0864 75.5676 37.3045 75.8242 37.5769C76.0807 37.8493 76.2799 38.1706 76.4097 38.5216C76.5396 38.8726 76.5975 39.2461 76.58 39.6199V39.8699C76.5801 39.8944 76.5751 39.9187 76.5654 39.9412C76.5558 39.9637 76.5417 39.9841 76.5239 40.0009C76.5061 40.0178 76.485 40.0308 76.462 40.0392C76.439 40.0477 76.4145 40.0513 76.39 40.0499H71.9C71.9864 40.5104 72.2366 40.9241 72.6042 41.2145C72.9718 41.5049 73.4321 41.6525 73.9 41.6299C74.2244 41.6475 74.5475 41.5779 74.8359 41.4285C75.1243 41.279 75.3674 41.0551 75.54 40.78C75.5487 40.7565 75.5634 40.7358 75.5828 40.72C75.6021 40.7041 75.6253 40.6938 75.65 40.6899H75.7001H75.79L76.2501 40.97C76.2711 40.9807 76.2893 40.9963 76.3032 41.0154C76.3171 41.0345 76.3263 41.0566 76.33 41.08C76.3423 41.1012 76.3488 41.1254 76.3488 41.15C76.3488 41.1745 76.3423 41.1987 76.33 41.22C76.0684 41.6398 75.6976 41.9807 75.2573 42.2061C74.8169 42.4316 74.3236 42.5331 73.83 42.4999ZM75.6 39.17C75.5505 38.7263 75.3378 38.3169 75.0033 38.0212C74.6688 37.7256 74.2364 37.5647 73.79 37.5699C73.3167 37.5369 72.8482 37.6831 72.4777 37.9795C72.1072 38.2759 71.8617 38.7009 71.79 39.17H75.6Z" fill="#0071BC"/>
<path d="M76.36 39.62C76.36 39.7 76.36 39.78 76.36 39.87H71.6499C71.6959 40.4164 71.9518 40.9237 72.3639 41.2855C72.776 41.6472 73.3122 41.8352 73.86 41.81C74.2225 41.8222 74.5815 41.7356 74.8985 41.5594C75.2156 41.3833 75.4788 41.1242 75.6599 40.81L76.12 41.08C75.8776 41.4578 75.5405 41.7655 75.1422 41.9725C74.744 42.1796 74.2984 42.2787 73.85 42.26C73.3042 42.2982 72.7597 42.171 72.2874 41.8949C71.8151 41.6188 71.437 41.2067 71.2026 40.7125C70.9681 40.2182 70.8881 39.6647 70.9731 39.1243C71.058 38.5839 71.3039 38.0817 71.6787 37.6832C72.0535 37.2847 72.5397 37.0084 73.0739 36.8906C73.6082 36.7727 74.1655 36.8186 74.6732 37.0224C75.1809 37.2262 75.6154 37.5783 75.9198 38.0328C76.2243 38.4873 76.3847 39.023 76.38 39.57L76.36 39.62ZM71.63 39.36H75.81C75.81 38.8296 75.5992 38.3209 75.2242 37.9458C74.8491 37.5707 74.3404 37.36 73.81 37.36C73.2612 37.3381 72.7255 37.532 72.318 37.9003C71.9105 38.2685 71.6635 38.7818 71.63 39.33V39.36Z" fill="#0071BC"/>
<path d="M78.2 42.3799C78.1755 42.3813 78.1511 42.3777 78.1281 42.3693C78.105 42.3608 78.084 42.3478 78.0662 42.3309C78.0484 42.3141 78.0343 42.2938 78.0246 42.2712C78.0149 42.2487 78.01 42.2244 78.01 42.1999V36.9899C78.01 36.9654 78.0149 36.9412 78.0246 36.9187C78.0343 36.8962 78.0484 36.8759 78.0662 36.859C78.084 36.8422 78.105 36.8291 78.1281 36.8207C78.1511 36.8122 78.1755 36.8086 78.2 36.8099H78.72C78.7677 36.8099 78.8135 36.8289 78.8473 36.8627C78.881 36.8964 78.9 36.9422 78.9 36.9899V37.33C79.0975 37.1192 79.3384 36.9538 79.606 36.8451C79.8735 36.7363 80.1615 36.6868 80.45 36.6999C80.4745 36.6986 80.4989 36.7023 80.5219 36.7107C80.5449 36.7191 80.566 36.7322 80.5838 36.749C80.6016 36.7659 80.6157 36.7861 80.6254 36.8086C80.635 36.8312 80.64 36.8554 80.64 36.8799V37.3799C80.64 37.4049 80.6351 37.4296 80.6255 37.4526C80.616 37.4757 80.602 37.4966 80.5844 37.5143C80.5667 37.5319 80.5458 37.5459 80.5227 37.5555C80.4997 37.565 80.475 37.5699 80.45 37.5699C80.2261 37.5602 80.0028 37.6011 79.7969 37.6896C79.5909 37.7781 79.4076 37.9118 79.2606 38.081C79.1135 38.2501 79.0065 38.4503 78.9475 38.6666C78.8885 38.8828 78.8792 39.1096 78.92 39.33V42.23C78.92 42.2777 78.901 42.3235 78.8672 42.3572C78.8335 42.391 78.7877 42.41 78.74 42.41L78.2 42.3799Z" fill="#0071BC"/>
<path d="M80.4501 36.92V37.42C80.2045 37.4104 79.9598 37.4547 79.7333 37.5498C79.5067 37.645 79.3038 37.7887 79.1389 37.9709C78.9739 38.153 78.8509 38.3691 78.7786 38.6039C78.7062 38.8388 78.6862 39.0866 78.72 39.33V42.23H78.2001V37.02H78.72V38.02C78.8548 37.6771 79.0949 37.3858 79.4058 37.1882C79.7167 36.9905 80.0824 36.8966 80.4501 36.92Z" fill="#0071BC"/>
<path d="M81.2401 43.84C81.1861 43.8356 81.1359 43.8105 81.1 43.77C81.0806 43.7219 81.0806 43.6681 81.1 43.62L81.5001 41.45C81.5072 41.4076 81.5293 41.3692 81.5623 41.3417C81.5953 41.3142 81.6371 41.2993 81.6801 41.2999H82.3201C82.3485 41.3008 82.3764 41.3076 82.4022 41.3196C82.428 41.3316 82.4511 41.3487 82.47 41.37C82.4841 41.3943 82.4915 41.4219 82.4915 41.45C82.4915 41.4781 82.4841 41.5057 82.47 41.53L81.91 43.7C81.9008 43.7405 81.8779 43.7766 81.845 43.8021C81.8122 43.8277 81.7716 43.841 81.73 43.84H81.2401Z" fill="#0071BC"/>
<path d="M81.72 43.65H81.24L81.64 41.49H82.28L81.72 43.65Z" fill="#0071BC"/>
<path d="M89.39 42.4999C88.9426 42.5391 88.4943 42.4366 88.1084 42.2069C87.7226 41.9772 87.4188 41.6319 87.24 41.22C87.2249 41.1798 87.2247 41.1355 87.2393 41.0952C87.254 41.0548 87.2827 41.021 87.32 40.9999L87.77 40.7399C87.7992 40.73 87.8308 40.73 87.86 40.7399H87.92C87.9479 40.7472 87.9732 40.7625 87.9927 40.7838C88.0122 40.805 88.0252 40.8315 88.03 40.86C88.1419 41.1201 88.3346 41.3374 88.5795 41.4796C88.8244 41.6219 89.1085 41.6816 89.39 41.65C89.95 41.65 90.54 41.44 90.54 40.85C90.54 40.26 90.06 40.2099 89.27 40.0099C88.48 39.8099 87.39 39.5199 87.39 38.3799C87.4015 38.1357 87.4639 37.8965 87.5731 37.6777C87.6822 37.4588 87.8358 37.2651 88.0239 37.1089C88.2121 36.9528 88.4308 36.8375 88.666 36.7705C88.9012 36.7035 89.1478 36.6864 89.39 36.72C89.7898 36.6963 90.1876 36.7933 90.5318 36.9984C90.8759 37.2034 91.1505 37.507 91.32 37.8699C91.3388 37.9102 91.342 37.9559 91.3291 37.9984C91.3161 38.0408 91.288 38.077 91.25 38.1L90.81 38.35H90.72H90.66C90.6349 38.3435 90.6118 38.331 90.5927 38.3135C90.5735 38.2961 90.5589 38.2743 90.55 38.2499C90.4474 38.0338 90.2815 37.854 90.0743 37.7344C89.8671 37.6147 89.6285 37.5609 89.39 37.58C88.86 37.58 88.32 37.8199 88.32 38.3699C88.32 38.9199 88.8 38.9899 89.58 39.1899C90.36 39.3899 91.47 39.67 91.47 40.84C91.43 41.81 90.59 42.4999 89.39 42.4999Z" fill="#0071BC"/>
<path d="M91.2501 40.83C91.2501 41.69 90.5 42.31 89.39 42.31C88.9787 42.3484 88.5656 42.2584 88.2075 42.0525C87.8494 41.8465 87.5638 41.5348 87.39 41.1601L87.84 40.9C87.9631 41.1962 88.1786 41.4447 88.4542 41.6087C88.7299 41.7726 89.0511 41.8432 89.3701 41.81C90.1001 41.81 90.71 41.49 90.71 40.81C90.71 39.4 87.5601 40.21 87.5601 38.34C87.5736 38.1246 87.6308 37.9141 87.7283 37.7215C87.8257 37.5289 87.9614 37.3582 88.127 37.2197C88.2926 37.0812 88.4847 36.9779 88.6915 36.9161C88.8984 36.8543 89.1156 36.8352 89.33 36.8601C89.6892 36.8351 90.0478 36.9166 90.3609 37.0945C90.674 37.2724 90.9276 37.5387 91.09 37.8601L90.66 38.1101C90.5449 37.8589 90.3559 37.6487 90.1183 37.5075C89.8807 37.3664 89.6057 37.301 89.33 37.32C88.65 37.32 88.08 37.67 88.08 38.32C88.1 39.75 91.2501 38.93 91.2501 40.83Z" fill="#0071BC"/>
<path d="M100.06 42.38C100.011 42.38 99.9645 42.3614 99.9291 42.3279C99.8938 42.2944 99.8726 42.2486 99.8701 42.2V38.9C99.8701 38.06 99.4301 37.57 98.6801 37.57C97.9301 37.57 97.3 38.19 97.3 39.29V42.2C97.3 42.2477 97.2811 42.2935 97.2473 42.3272C97.2136 42.361 97.1678 42.38 97.1201 42.38H96.6C96.5756 42.3813 96.5511 42.3777 96.5281 42.3693C96.5051 42.3609 96.484 42.3478 96.4662 42.331C96.4485 42.3141 96.4343 42.2938 96.4246 42.2713C96.415 42.2487 96.41 42.2245 96.41 42.2V38.9C96.41 38.05 95.9901 37.57 95.2601 37.57C94.3701 37.57 93.84 38.21 93.84 39.29V42.2C93.8375 42.2486 93.8164 42.2944 93.781 42.3279C93.7456 42.3614 93.6987 42.38 93.65 42.38H93.1301C93.0823 42.38 93.0365 42.361 93.0027 42.3272C92.969 42.2935 92.9501 42.2477 92.9501 42.2V36.99C92.9501 36.9422 92.969 36.8964 93.0027 36.8627C93.0365 36.8289 93.0823 36.81 93.1301 36.81H93.65C93.6987 36.8099 93.7456 36.8285 93.781 36.862C93.8164 36.8955 93.8375 36.9413 93.84 36.99V37.33C94.0326 37.1306 94.2644 36.9734 94.5209 36.8684C94.7774 36.7634 95.0529 36.7129 95.33 36.72C95.6548 36.7066 95.9775 36.779 96.2654 36.93C96.5533 37.081 96.7963 37.3052 96.97 37.58C97.1652 37.3075 97.4238 37.0868 97.7235 36.937C98.0232 36.7871 98.355 36.7126 98.6901 36.72C98.9762 36.7085 99.2615 36.7586 99.5267 36.8669C99.7918 36.9752 100.031 37.1393 100.227 37.3479C100.423 37.5565 100.572 37.8047 100.664 38.076C100.756 38.3472 100.789 38.6351 100.76 38.92V42.22C100.76 42.2677 100.741 42.3135 100.707 42.3473C100.674 42.381 100.628 42.4 100.58 42.4L100.06 42.38Z" fill="#0071BC"/>
<path d="M100.58 38.9V42.2H100.06V38.9C100.086 38.7062 100.07 38.5089 100.012 38.322C99.9541 38.1351 99.8559 37.9631 99.7244 37.8183C99.5928 37.6734 99.4312 37.5591 99.2507 37.4834C99.0703 37.4077 98.8755 37.3724 98.68 37.38C97.8 37.38 97.12 37.9601 97.12 39.2901V42.2H96.6V38.9C96.6 37.9 96.06 37.38 95.26 37.38C94.46 37.38 93.65 37.9601 93.65 39.2901V42.2H93.13V36.99H93.65V37.89C93.8058 37.5808 94.0467 37.3224 94.3443 37.1453C94.6419 36.9681 94.9838 36.8796 95.33 36.89C95.6775 36.872 96.0218 36.9649 96.313 37.1555C96.6043 37.346 96.8274 37.6243 96.95 37.95C97.1085 37.6256 97.3566 37.3533 97.6649 37.1655C97.9733 36.9776 98.329 36.882 98.69 36.89C98.9517 36.8785 99.2128 36.9236 99.4554 37.0222C99.6981 37.1209 99.9166 37.2707 100.096 37.4615C100.275 37.6523 100.412 37.8797 100.495 38.1279C100.579 38.3762 100.608 38.6396 100.58 38.9Z" fill="#0071BC"/>
<path d="M105.01 42.4999C104.241 42.4999 103.503 42.1944 102.959 41.6506C102.415 41.1067 102.11 40.3691 102.11 39.6C102.11 38.8308 102.415 38.0932 102.959 37.5493C103.503 37.0055 104.241 36.7 105.01 36.7C105.387 36.7004 105.76 36.7799 106.104 36.9332C106.449 37.0865 106.757 37.3102 107.01 37.59V36.9899C107.01 36.9654 107.015 36.9412 107.025 36.9187C107.034 36.8962 107.048 36.8759 107.066 36.859C107.084 36.8422 107.105 36.8291 107.128 36.8207C107.151 36.8122 107.176 36.8086 107.2 36.8099H107.73C107.778 36.8099 107.823 36.8289 107.857 36.8627C107.891 36.8964 107.91 36.9422 107.91 36.9899V42.2C107.91 42.2477 107.891 42.2935 107.857 42.3272C107.823 42.361 107.778 42.3799 107.73 42.3799H107.2C107.176 42.3813 107.151 42.3777 107.128 42.3693C107.105 42.3608 107.084 42.3478 107.066 42.3309C107.048 42.3141 107.034 42.2938 107.025 42.2712C107.015 42.2487 107.01 42.2245 107.01 42.2V41.6C106.759 41.883 106.451 42.1096 106.107 42.2648C105.762 42.4199 105.388 42.5001 105.01 42.4999ZM105.01 37.5699C104.614 37.5699 104.228 37.6873 103.899 37.907C103.57 38.1268 103.314 38.4391 103.162 38.8046C103.011 39.17 102.971 39.5722 103.048 39.9601C103.126 40.3481 103.316 40.7045 103.596 40.9842C103.875 41.2639 104.232 41.4544 104.62 41.5316C105.008 41.6087 105.41 41.5691 105.775 41.4177C106.141 41.2663 106.453 41.01 106.673 40.6811C106.893 40.3522 107.01 39.9655 107.01 39.5699C107.01 39.0464 106.805 38.5436 106.438 38.1697C106.072 37.7957 105.573 37.5804 105.05 37.5699H105.01Z" fill="#0071BC"/>
<path d="M107.78 36.9899V42.1999H107.25V41.02C107.029 41.4179 106.703 41.7482 106.309 41.9755C105.914 42.2027 105.465 42.3183 105.01 42.3099C104.318 42.2679 103.669 41.9637 103.194 41.4591C102.719 40.9546 102.455 40.2878 102.455 39.595C102.455 38.9021 102.719 38.2354 103.194 37.7308C103.669 37.2263 104.318 36.9219 105.01 36.8799C105.465 36.8716 105.914 36.9872 106.309 37.2144C106.703 37.4417 107.029 37.772 107.25 38.17V36.9899H107.78ZM107.25 39.6C107.248 39.1653 107.117 38.7409 106.874 38.3804C106.631 38.02 106.287 37.7396 105.885 37.5746C105.483 37.4096 105.041 37.3674 104.615 37.4534C104.189 37.5394 103.798 37.7498 103.491 38.0579C103.184 38.3659 102.976 38.758 102.892 39.1844C102.807 39.6109 102.852 40.0527 103.018 40.4542C103.185 40.8556 103.467 41.1986 103.829 41.4399C104.19 41.6812 104.615 41.8099 105.05 41.8099C105.34 41.8113 105.628 41.7549 105.896 41.6442C106.164 41.5335 106.407 41.3707 106.612 41.165C106.817 40.9594 106.979 40.7151 107.088 40.4465C107.198 40.1778 107.253 39.8901 107.25 39.6Z" fill="#0071BC"/>
<path d="M110 42.3799C109.952 42.3799 109.906 42.361 109.873 42.3272C109.839 42.2934 109.82 42.2477 109.82 42.1999V36.9899C109.82 36.9422 109.839 36.8964 109.873 36.8627C109.906 36.8289 109.952 36.8099 110 36.8099H110.52C110.569 36.8099 110.616 36.8285 110.651 36.862C110.686 36.8955 110.707 36.9413 110.71 36.9899V37.33C110.908 37.1192 111.148 36.9538 111.416 36.8451C111.684 36.7363 111.972 36.6868 112.26 36.6999C112.308 36.6999 112.354 36.7189 112.387 36.7527C112.421 36.7864 112.44 36.8322 112.44 36.8799V37.3799C112.44 37.4286 112.421 37.4755 112.388 37.5109C112.355 37.5462 112.309 37.5674 112.26 37.5699C112.041 37.5591 111.823 37.5966 111.62 37.6797C111.418 37.7629 111.236 37.8897 111.088 38.051C110.94 38.2124 110.83 38.4043 110.764 38.6133C110.699 38.8222 110.68 39.043 110.71 39.2599V42.16C110.707 42.2086 110.686 42.2544 110.651 42.2879C110.616 42.3214 110.569 42.34 110.52 42.34L110 42.3799Z" fill="#0071BC"/>
<path d="M112.26 36.92V37.42C112.014 37.4088 111.768 37.452 111.54 37.5465C111.312 37.6411 111.108 37.7846 110.942 37.9669C110.776 38.1492 110.652 38.3658 110.579 38.6014C110.506 38.837 110.486 39.0857 110.52 39.33V42.23H110V37.02H110.52V38.02C110.658 37.6772 110.9 37.3865 111.212 37.1891C111.525 36.9916 111.891 36.8975 112.26 36.92Z" fill="#0071BC"/>
<path d="M115.99 42.4399C115.567 42.4737 115.147 42.341 114.82 42.07C114.671 41.914 114.556 41.7283 114.484 41.5249C114.411 41.3215 114.383 41.1051 114.4 40.89V37.6899H113.4C113.375 37.6914 113.349 37.6875 113.326 37.6785C113.302 37.6694 113.28 37.6555 113.262 37.6375C113.244 37.6196 113.231 37.5981 113.222 37.5743C113.213 37.5506 113.209 37.5253 113.21 37.4999V36.9899C113.21 36.9654 113.215 36.9412 113.225 36.9187C113.234 36.8962 113.248 36.8759 113.266 36.859C113.284 36.8422 113.305 36.8291 113.328 36.8207C113.351 36.8123 113.376 36.8086 113.4 36.8099H114.4V35.6899C114.401 35.6501 114.416 35.6118 114.441 35.5811C114.466 35.5503 114.501 35.5288 114.54 35.52L115.07 35.36H115.12C115.156 35.3502 115.194 35.3502 115.23 35.36C115.253 35.3776 115.271 35.4004 115.283 35.4265C115.295 35.4526 115.301 35.4812 115.3 35.51V36.78H116.67C116.718 36.78 116.764 36.799 116.797 36.8327C116.831 36.8665 116.85 36.9122 116.85 36.96V37.47C116.851 37.4944 116.848 37.5189 116.839 37.5419C116.831 37.5649 116.818 37.586 116.801 37.6038C116.784 37.6216 116.764 37.6357 116.741 37.6454C116.719 37.6551 116.695 37.66 116.67 37.66H115.3V40.86C115.3 41.44 115.49 41.5499 116.03 41.5499C116.21 41.5499 116.42 41.5499 116.65 41.5499C116.689 41.5353 116.731 41.5353 116.77 41.5499C116.808 41.5869 116.829 41.6372 116.83 41.6899V42.16C116.831 42.2029 116.816 42.2447 116.788 42.2777C116.761 42.3107 116.722 42.3328 116.68 42.34C116.453 42.3902 116.222 42.4236 115.99 42.4399Z" fill="#0071BC"/>
<path d="M115.12 37.5V40.89C115.12 41.8 115.61 41.82 116.67 41.73V42.2C115.31 42.4 114.59 42.07 114.59 40.89V37.5H113.44V36.99H114.59V35.69L115.12 35.54V36.99H116.67V37.5H115.12Z" fill="#0071BC"/>
<path d="M120.61 42.4999C119.841 42.4999 119.103 42.1944 118.559 41.6506C118.016 41.1067 117.71 40.3691 117.71 39.6C117.71 38.8308 118.016 38.0932 118.559 37.5493C119.103 37.0055 119.841 36.7 120.61 36.7C120.985 36.7035 121.355 36.7827 121.698 36.9329C122.041 37.0831 122.35 37.3011 122.607 37.5739C122.864 37.8466 123.063 38.1685 123.193 38.5201C123.322 38.8717 123.379 39.2458 123.36 39.6199V39.8699C123.36 39.9177 123.341 39.9635 123.307 39.9973C123.273 40.031 123.228 40.0499 123.18 40.0499H118.68C118.766 40.5104 119.016 40.9241 119.384 41.2145C119.752 41.5049 120.212 41.6525 120.68 41.6299C121.005 41.6497 121.329 41.5811 121.617 41.4314C121.906 41.2817 122.149 41.0566 122.32 40.78C122.329 40.7565 122.343 40.7358 122.363 40.72C122.382 40.7041 122.405 40.6938 122.43 40.6899H122.53L122.98 40.97C123.003 40.9786 123.024 40.9934 123.04 41.0127C123.056 41.032 123.066 41.0553 123.07 41.08C123.085 41.1254 123.085 41.1745 123.07 41.22C122.81 41.6321 122.445 41.9678 122.013 42.1927C121.581 42.4177 121.097 42.5236 120.61 42.4999ZM122.39 39.17C122.338 38.7255 122.123 38.3159 121.787 38.0204C121.451 37.725 121.018 37.5645 120.57 37.5699C120.106 37.55 119.651 37.7025 119.293 37.9979C118.935 38.2933 118.699 38.7108 118.63 39.17H122.39Z" fill="#0071BC"/>
<path d="M123.14 39.62C123.14 39.7 123.14 39.78 123.14 39.87H118.42C118.463 40.4155 118.717 40.9228 119.128 41.2848C119.538 41.6467 120.073 41.8351 120.62 41.81C120.982 41.8222 121.341 41.7356 121.659 41.5594C121.976 41.3833 122.239 41.1242 122.42 40.81L122.88 41.08C122.638 41.4578 122.3 41.7655 121.902 41.9725C121.504 42.1796 121.058 42.2787 120.61 42.26C120.064 42.2982 119.52 42.171 119.047 41.8949C118.575 41.6188 118.197 41.2067 117.963 40.7125C117.728 40.2182 117.648 39.6647 117.733 39.1243C117.818 38.5839 118.064 38.0817 118.439 37.6832C118.813 37.2847 119.3 37.0084 119.834 36.8906C120.368 36.7727 120.926 36.8186 121.433 37.0224C121.941 37.2262 122.375 37.5783 122.68 38.0328C122.984 38.4873 123.145 39.023 123.14 39.57V39.62ZM118.42 39.33H122.6C122.6 38.7996 122.389 38.2909 122.014 37.9158C121.639 37.5408 121.13 37.33 120.6 37.33C120.325 37.3179 120.051 37.3601 119.793 37.4542C119.535 37.5482 119.298 37.6922 119.095 37.8779C118.893 38.0637 118.729 38.2876 118.613 38.5367C118.497 38.7859 118.432 39.0555 118.42 39.33Z" fill="#0071BC"/>
<path d="M124.98 42.38C124.931 42.3801 124.884 42.3615 124.849 42.328C124.814 42.2945 124.793 42.2487 124.79 42.2V36.99C124.793 36.9414 124.814 36.8956 124.849 36.8621C124.884 36.8286 124.931 36.81 124.98 36.81H125.5C125.548 36.81 125.594 36.829 125.627 36.8628C125.661 36.8965 125.68 36.9423 125.68 36.99V37.33C125.879 37.118 126.121 36.9518 126.391 36.843C126.66 36.7342 126.95 36.6854 127.24 36.7C127.288 36.7 127.334 36.719 127.367 36.7528C127.401 36.7865 127.42 36.8323 127.42 36.88V37.38C127.42 37.4287 127.401 37.4756 127.368 37.511C127.334 37.5463 127.289 37.5675 127.24 37.57C127.021 37.5577 126.801 37.594 126.597 37.6765C126.394 37.7589 126.211 37.8855 126.061 38.047C125.912 38.2086 125.801 38.4011 125.735 38.6108C125.669 38.8205 125.65 39.0422 125.68 39.26V42.1601C125.68 42.2078 125.661 42.2536 125.627 42.2873C125.594 42.3211 125.548 42.3401 125.5 42.3401L124.98 42.38Z" fill="#0071BC"/>
<path d="M127.24 36.92V37.42C126.996 37.4096 126.754 37.4522 126.528 37.545C126.303 37.6378 126.1 37.7785 125.935 37.9573C125.769 38.1362 125.645 38.349 125.57 38.5808C125.494 38.8127 125.471 39.058 125.5 39.3V42.2H124.98V36.99H125.5V37.99C125.641 37.6519 125.886 37.3668 126.198 37.1748C126.51 36.9828 126.874 36.8937 127.24 36.92Z" fill="#0071BC"/>
</g>
<defs>
<clipPath id="clip0_281_68">
<rect width="127.44" height="44.57" fill="white"/>
</clipPath>
</defs>
</svg>
