<svg width="32" height="33" viewBox="0 0 32 33" fill="none" xmlns="http://www.w3.org/2000/svg">
<path d="M16.103 4.75098H16.281C17.9251 4.75712 26.2556 4.81851 28.5018 5.43654C29.1808 5.62515 29.7996 5.99281 30.2962 6.50275C30.7929 7.0127 31.15 7.64707 31.332 8.34249C31.534 9.12014 31.676 10.1495 31.772 11.2116L31.792 11.4244L31.836 11.9565L31.852 12.1693C31.982 14.0398 31.998 15.7915 32 16.1742V16.3277C31.998 16.7247 31.98 18.5952 31.836 20.5434L31.82 20.7583L31.802 20.9711C31.702 22.1417 31.554 23.3041 31.332 24.1595C31.1506 24.8552 30.7936 25.4898 30.2969 25.9999C29.8001 26.5099 29.1811 26.8774 28.5018 27.0654C26.1816 27.7039 17.3631 27.7489 16.141 27.751H15.857C15.239 27.751 12.6828 27.7387 10.0026 27.6446L9.6626 27.6323L9.48859 27.6241L9.14657 27.6098L8.80455 27.5954C6.58441 27.4952 4.47028 27.3335 3.49622 27.0634C2.81716 26.8755 2.19827 26.5083 1.70156 25.9987C1.20484 25.489 0.847747 24.8548 0.666042 24.1595C0.444028 23.3061 0.296019 22.1417 0.196012 20.9711L0.180011 20.7562L0.16401 20.5434C0.0652993 19.1567 0.0106004 17.7671 0 16.3768L0 16.1251C0.00400025 15.6851 0.0200013 14.1646 0.128008 12.4865L0.142009 12.2758L0.148009 12.1693L0.16401 11.9565L0.208013 11.4244L0.228014 11.2116C0.32402 10.1495 0.466029 9.11809 0.668042 8.34249C0.84944 7.64679 1.2064 7.01212 1.70313 6.50208C2.19987 5.99205 2.81892 5.62459 3.49822 5.43654C4.47228 5.1705 6.58641 5.00678 8.80655 4.90446L9.14657 4.89013L9.49059 4.87786L9.6626 4.87172L10.0046 4.85739C11.9082 4.79472 13.8125 4.75993 15.717 4.75302H16.103V4.75098ZM12.8008 11.3201V21.1798L21.1153 16.252L12.8008 11.3201Z" fill="#E01919"/>
</svg>
