<svg width="32" height="33" viewBox="0 0 32 33" fill="none" xmlns="http://www.w3.org/2000/svg">
<rect y="0.750977" width="32" height="32" rx="10" fill="white"/>
<path d="M16.49 15.233V14.783H17.837V21.105H17.067C16.9146 21.1052 16.7683 21.0451 16.6601 20.9377C16.552 20.8303 16.4908 20.6844 16.49 20.532C15.9277 20.9436 15.2488 21.166 14.552 21.165C13.6814 21.165 12.8464 20.8193 12.2306 20.2038C11.6148 19.5884 11.2685 18.7536 11.268 17.883C11.2685 17.0124 11.6148 16.1776 12.2306 15.5621C12.8464 14.9467 13.6814 14.601 14.552 14.601C15.2485 14.6002 15.928 14.8216 16.49 15.233ZM10.919 12.751V12.956C10.919 13.338 10.868 13.65 10.619 14.016L10.589 14.05C10.506 14.143 10.4254 14.238 10.347 14.335L6.024 19.761H10.919V20.529C10.919 20.6047 10.9041 20.6797 10.8751 20.7496C10.846 20.8196 10.8035 20.8831 10.7499 20.9366C10.6963 20.9901 10.6327 21.0325 10.5627 21.0614C10.4927 21.0903 10.4177 21.1051 10.342 21.105H4V20.743C4 20.3 4.11 20.102 4.25 19.896L8.857 14.191H4.192V12.751H10.919ZM19.47 21.105C19.3427 21.105 19.2206 21.0544 19.1306 20.9644C19.0406 20.8744 18.99 20.7523 18.99 20.625V12.751H20.431V21.105H19.47ZM24.693 14.561C25.1272 14.5608 25.5571 14.6462 25.9582 14.8122C26.3594 14.9783 26.7239 15.2217 27.031 15.5286C27.3381 15.8355 27.5817 16.1998 27.748 16.6009C27.9142 17.002 27.9999 17.4318 28 17.866C28.0001 18.3001 27.9147 18.7301 27.7487 19.1312C27.5827 19.5324 27.3393 19.8969 27.0324 20.204C26.7255 20.511 26.3611 20.7547 25.9601 20.9209C25.559 21.0872 25.1292 21.1728 24.695 21.173C23.8182 21.1732 22.9772 20.8252 22.357 20.2054C21.7368 19.5856 21.3883 18.7448 21.388 17.868C21.3877 16.9912 21.7358 16.1502 22.3556 15.53C22.9754 14.9098 23.8162 14.5612 24.693 14.561ZM14.553 19.814C14.8103 19.8198 15.0663 19.7742 15.3057 19.6798C15.5452 19.5853 15.7634 19.444 15.9475 19.2641C16.1315 19.0841 16.2778 18.8692 16.3777 18.632C16.4775 18.3947 16.529 18.1399 16.529 17.8825C16.529 17.6251 16.4775 17.3702 16.3777 17.133C16.2778 16.8957 16.1315 16.6808 15.9475 16.5009C15.7634 16.321 15.5452 16.1796 15.3057 16.0852C15.0663 15.9908 14.8103 15.9451 14.553 15.951C14.0483 15.9625 13.5682 16.171 13.2154 16.532C12.8625 16.893 12.665 17.3777 12.665 17.8825C12.665 18.3873 12.8625 18.872 13.2154 19.233C13.5682 19.594 14.0483 19.8025 14.553 19.814ZM24.693 19.811C25.2088 19.811 25.7036 19.6061 26.0683 19.2413C26.4331 18.8765 26.638 18.3818 26.638 17.866C26.638 17.3501 26.4331 16.8554 26.0683 16.4907C25.7036 16.1259 25.2088 15.921 24.693 15.921C24.1772 15.921 23.6824 16.1259 23.3177 16.4907C22.9529 16.8554 22.748 17.3501 22.748 17.866C22.748 18.3818 22.9529 18.8765 23.3177 19.2413C23.6824 19.6061 24.1772 19.811 24.693 19.811Z" fill="#1877F2"/>
</svg>
