<?xml version="1.0" standalone="no"?>
<!DOCTYPE svg PUBLIC "-//W3C//DTD SVG 1.1//EN" "http://www.w3.org/Graphics/SVG/1.1/DTD/svg11.dtd" >
<svg xmlns="http://www.w3.org/2000/svg" xmlns:xlink="http://www.w3.org/1999/xlink" version="1.1">
<metadata></metadata>
<defs>
<font id="mmcregular" horiz-adv-x="1222" >
<font-face units-per-em="2048" ascent="1638" descent="-410" />
<missing-glyph horiz-adv-x="565" />
<glyph horiz-adv-x="0" />
<glyph horiz-adv-x="682" />
<glyph unicode="&#xd;" horiz-adv-x="460" />
<glyph unicode=" "  horiz-adv-x="565" />
<glyph unicode="&#x09;" horiz-adv-x="565" />
<glyph unicode="&#xa0;" horiz-adv-x="565" />
<glyph unicode="!" horiz-adv-x="561" d="M186 0v199h191v-199h-191zM193 1393h176l-23 -1039h-131z" />
<glyph unicode="&#x22;" horiz-adv-x="724" d="M111 1475h178l-29 -441h-119zM436 1475h178l-28 -441h-119z" />
<glyph unicode="#" horiz-adv-x="1437" d="M29 279v131h286l101 407h-316v129h349l61 262h145l-61 -262h377l65 262h142l-62 -262h293v-129h-324l-98 -407h369v-131h-402l-69 -279h-142l68 279h-383l-68 -279h-141l66 279h-256zM461 410h377l100 407h-377z" />
<glyph unicode="$" horiz-adv-x="1126" d="M100 1028q0 162 92 237t304 87v225h163v-225q164 -5 312 -47v-162q-154 57 -379 57q-184 0 -252 -37t-68 -139q0 -40 12.5 -68.5t43 -51t65 -38t96.5 -37.5l263 -92q156 -57 215 -133t59 -217q0 -152 -84 -241.5t-283 -110.5v-221h-163v215q-234 6 -383 57v164 q199 -64 424 -64q173 0 245 49t72 144q0 87 -36.5 131t-141.5 82l-285 108q-76 28 -123.5 53.5t-89 63t-60 89t-18.5 122.5z" />
<glyph unicode="%" horiz-adv-x="1554" d="M111 1106q0 169 59.5 238t212.5 69t212.5 -69t59.5 -238t-59.5 -238t-212.5 -69t-212.5 69t-59.5 238zM240 1106q0 -114 28 -152.5t115 -38.5q86 0 114.5 39t28.5 152t-28.5 151.5t-114.5 38.5q-87 0 -115 -38t-28 -152zM336 0l731 1393h150l-730 -1393h-151zM899 287 q0 169 59.5 238t212.5 69q154 0 213.5 -69t59.5 -238t-59.5 -238t-213.5 -69q-153 0 -212.5 69t-59.5 238zM1028 287q0 -114 28 -152.5t115 -38.5q86 0 115 39t29 152t-29 151.5t-115 38.5q-87 0 -115 -38t-28 -152z" />
<glyph unicode="&#x26;" horiz-adv-x="1507" d="M115 348q0 71 18 126t60 103.5t93 86.5t136 90q-54 48 -80.5 74t-60 64t-48.5 67.5t-25.5 69.5t-10.5 85q0 135 96.5 217t292.5 82q198 0 296.5 -80t98.5 -217q0 -44 -9.5 -82t-33.5 -72.5t-45.5 -59.5t-66.5 -58t-73 -52t-87 -57l366 -338l299 320l119 -109l-301 -319 l317 -289h-221l-198 182q-206 -202 -469 -202q-236 0 -349.5 95t-113.5 273zM289 360q0 -117 69 -172t228 -55q110 0 191.5 43.5t152.5 114.5l-400 364q-71 -42 -111.5 -71t-72.5 -63.5t-44.5 -72.5t-12.5 -88zM360 1104q0 -31 8.5 -59t17.5 -46.5t38.5 -50t46 -46.5 t66.5 -59q12 -11 18 -16q14 9 46.5 29.5t45.5 29t39 26t37 27.5t29 27t26 30.5t17 31.5t12.5 37t3.5 41q0 76 -50.5 119t-174.5 43q-127 0 -176.5 -43t-49.5 -121z" />
<glyph unicode="'" horiz-adv-x="399" d="M111 1475h178l-29 -441h-119z" />
<glyph unicode="(" horiz-adv-x="628" d="M109 610q0 135 21 264.5t60 241t74.5 191t83.5 168.5h172q-246 -444 -246 -865q0 -420 246 -864h-172q-48 89 -83.5 168.5t-74.5 191t-60 240.5t-21 264z" />
<glyph unicode=")" horiz-adv-x="628" d="M109 -254q245 442 245 864q0 423 -245 865h172q48 -89 83.5 -168.5t74.5 -191t60 -241t21 -264.5t-21 -264t-60 -240.5t-74.5 -191t-83.5 -168.5h-172z" />
<glyph unicode="*" horiz-adv-x="1009" d="M113 1130l47 148l293 -117l-29 314h162l-27 -314l289 119l49 -150l-307 -67l209 -242l-131 -94l-162 272l-162 -274l-131 94l207 244z" />
<glyph unicode="+" horiz-adv-x="1150" d="M111 573v154h389v387h153v-387h389v-154h-389v-389h-153v389h-389z" />
<glyph unicode="," horiz-adv-x="442" d="M43 -387l111 586h176l-140 -586h-147z" />
<glyph unicode="-" horiz-adv-x="1019" d="M166 541v147h688v-147h-688z" />
<glyph unicode="." horiz-adv-x="415" d="M113 0v199h190v-199h-190z" />
<glyph unicode="/" horiz-adv-x="983" d="M27 -254l757 1729h174l-759 -1729h-172z" />
<glyph unicode="0" horiz-adv-x="1245" d="M109 696q0 273 50.5 428t160.5 222t303 67q145 0 240.5 -35.5t157.5 -120.5t88 -220t26 -341q0 -274 -50 -428t-159.5 -221t-302.5 -67q-145 0 -240.5 35.5t-158 120t-89 219.5t-26.5 341zM276 696q0 -222 34.5 -343t107.5 -169.5t205 -48.5t204.5 48.5t106 169 t33.5 343.5t-33.5 343.5t-106 169t-204.5 48.5t-205 -48.5t-107.5 -169.5t-34.5 -343z" />
<glyph unicode="1" horiz-adv-x="788" d="M49 1159v152l524 102v-1413h-163v1225z" />
<glyph unicode="2" horiz-adv-x="1179" d="M115 0v150l614 589q43 42 63 64.5t42.5 57.5t31 74t8.5 91q0 135 -75.5 183t-263.5 48q-187 0 -385 -65v162q66 23 176.5 41t234.5 18q123 0 209.5 -17.5t149 -59t92.5 -113t30 -176.5q0 -62 -10.5 -114.5t-23.5 -87t-40 -71.5t-45.5 -56.5t-54.5 -53.5l-524 -508h707 l-31 -156h-905z" />
<glyph unicode="3" horiz-adv-x="1128" d="M90 35v164q205 -66 424 -66q183 0 267.5 67.5t84.5 215.5q0 143 -68 203.5t-220 60.5q-120 0 -199 -8l-51 127l432 444h-651v150h831l47 -133l-442 -451q58 4 84 4q208 0 306.5 -98t98.5 -301q0 -225 -128 -329.5t-394 -104.5q-248 0 -422 55z" />
<glyph unicode="4" horiz-adv-x="1196" d="M78 307v131l641 955h186l-629 -938h609v358h164v-813h-164v307h-807z" />
<glyph unicode="5" horiz-adv-x="1142" d="M119 41v162q198 -70 416 -70q85 0 143.5 12.5t105 43.5t68.5 87.5t22 141.5q0 84 -20 139.5t-65 86.5t-106 43.5t-153 12.5q-196 0 -380 -18v711h811v-150h-648v-405q126 12 248 12q118 0 203.5 -21t150 -69.5t96 -133.5t31.5 -208t-33 -209t-100.5 -135.5t-158.5 -71.5 t-218 -22q-252 0 -413 61z" />
<glyph unicode="6" horiz-adv-x="1208" d="M121 551q0 122 24.5 228t65 185t101.5 146t125 113t144.5 84t151.5 62t154 44l47 -145q-81 -22 -142.5 -42.5t-130 -49.5t-119.5 -64.5t-98.5 -81.5t-80 -106.5t-50.5 -132.5q158 81 355 81q442 0 442 -440q0 -99 -27.5 -179t-85 -142.5t-154.5 -96.5t-227 -34 q-115 0 -202 29t-142 78.5t-89.5 123.5t-48 156t-13.5 184zM287 547q0 -216 74.5 -316t256.5 -100q324 0 324 299q0 150 -70 225.5t-227 75.5q-189 0 -350 -74q-8 -54 -8 -110z" />
<glyph unicode="7" horiz-adv-x="1077" d="M70 1243v150h919v-301q0 -65 -28 -124.5t-73.5 -107t-100 -95t-109 -98.5t-100 -106.5t-73.5 -129t-28 -157.5v-274h-164v274q0 100 28 187t73.5 149.5t100 117t109 99.5t100 87.5t73.5 90.5t28 99v139h-755z" />
<glyph unicode="8" horiz-adv-x="1241" d="M104 377q0 296 271 356q-110 47 -163.5 122t-53.5 206q0 179 112.5 265.5t350.5 86.5t350 -86.5t112 -265.5q0 -131 -53 -206t-162 -122q271 -61 271 -356q0 -199 -119.5 -298t-398.5 -99q-188 0 -304 47.5t-164.5 133t-48.5 216.5zM272 385q0 -132 83 -194t266 -62 t266.5 62t83.5 194q0 147 -88.5 207.5t-261.5 60.5q-172 0 -260.5 -60.5t-88.5 -207.5zM326 1051q0 -130 74.5 -188.5t220.5 -61.5q147 3 222 61.5t75 188.5q0 111 -70 163t-227 52q-156 0 -225.5 -51.5t-69.5 -163.5z" />
<glyph unicode="9" horiz-adv-x="1185" d="M86 961q0 99 27.5 179t85 142.5t154.5 96.5t227 34q115 0 202 -29t142 -78.5t89.5 -123.5t48 -156t13.5 -184q0 -122 -24.5 -228t-65 -185t-101.5 -146t-125 -113t-144.5 -84t-151.5 -62t-154 -44l-47 145q81 22 142.5 42.5t130 49.5t119.5 64.5t98.5 81.5t80 106.5 t50.5 132.5q-160 -82 -355 -82q-442 0 -442 441zM254 963q0 -150 70 -225.5t227 -75.5q191 0 350 73q8 54 8 111q0 216 -74.5 316t-256.5 100q-324 0 -324 -299z" />
<glyph unicode=":" horiz-adv-x="415" d="M113 0v199h190v-199h-190zM113 887v198h190v-198h-190z" />
<glyph unicode=";" horiz-adv-x="450" d="M43 -387l111 586h176l-140 -586h-147zM147 887v198h191v-198h-191z" />
<glyph unicode="&#x3c;" horiz-adv-x="1148" d="M164 594v141l819 277v-154l-647 -192l647 -197v-152z" />
<glyph unicode="=" horiz-adv-x="1130" d="M166 391v152h799v-152h-799zM166 768v152h799v-152h-799z" />
<glyph unicode="&#x3e;" horiz-adv-x="1148" d="M166 317v152l647 197l-647 192v154l819 -277v-141z" />
<glyph unicode="?" horiz-adv-x="1114" d="M109 1198v160q156 55 401 55q260 0 378 -77t118 -261q0 -57 -13 -103.5t-30.5 -76.5t-49 -57.5t-54.5 -42t-62 -35.5l-119 -66q-58 -32 -83.5 -53.5t-38.5 -55t-13 -91.5v-140h-168v150q0 63 9.5 106.5t35 76t55.5 55t84 51.5l96 53q53 28 79 45t53 43t37 57.5t10 75.5 q0 110 -72.5 150t-249.5 40q-242 0 -403 -59zM362 0v199h191v-199h-191z" />
<glyph unicode="@" horiz-adv-x="1837" d="M109 586q0 230 42.5 384.5t141.5 255t254 144t387 43.5q230 0 380.5 -37.5t244 -125t132 -219t38.5 -331.5q0 -91 -10.5 -163.5t-34.5 -128.5t-55.5 -97t-80.5 -70t-101.5 -47.5t-127 -28.5t-149.5 -14t-175 -4q-86 0 -152.5 10.5t-128.5 40t-102 79t-64 130t-24 189.5 q0 124 25 209t77 135.5t125 72t177 21.5q160 0 352 -41v-700q175 24 237 110.5t62 296.5q0 115 -11.5 197t-41 148.5t-75.5 108.5t-120 69.5t-169.5 39t-227.5 11.5q-159 0 -269 -21t-191 -68t-127 -128.5t-67.5 -195t-21.5 -275.5q0 -200 37 -329.5t123 -207t211.5 -108.5 t318.5 -31q139 0 219 16v-137q-90 -18 -219 -18q-229 0 -385 42t-259 139t-149 251.5t-46 382.5zM662 596q0 -179 74 -248t249 -69q113 0 160 2v606q-99 18 -215 18q-82 0 -134 -17t-82 -56.5t-41 -94.5t-11 -141z" />
<glyph unicode="A" horiz-adv-x="1329" d="M27 0l538 1393h197l541 -1393h-179l-141 371h-639l-141 -371h-176zM399 518h529l-264 696z" />
<glyph unicode="B" horiz-adv-x="1318" d="M184 0v1393h512q252 0 366 -76.5t114 -272.5q0 -143 -52.5 -214.5t-150.5 -98.5q51 -13 90.5 -35t74.5 -61t53.5 -104t18.5 -152q0 -111 -30.5 -186t-94 -117t-147.5 -59t-205 -17h-549zM352 150h361q93 0 148.5 8.5t98.5 34t60.5 73.5t17.5 125q0 144 -62.5 202 t-215.5 58h-408v-501zM352 797h404q128 0 189 50t61 185q0 119 -71 165t-257 46h-326v-446z" />
<glyph unicode="C" horiz-adv-x="1181" d="M109 696q0 154 19 268.5t61 201.5t110.5 140.5t166 80t230.5 26.5q219 0 387 -53v-162q-160 55 -354 55q-137 0 -221.5 -25.5t-136.5 -92.5t-71 -169.5t-19 -269.5q0 -168 19 -270.5t71 -169t136.5 -92t221.5 -25.5q191 0 354 56v-162q-168 -53 -387 -53 q-216 0 -342.5 69t-185.5 224.5t-59 422.5z" />
<glyph unicode="D" horiz-adv-x="1351" d="M184 0v1393h455q129 0 224 -21t169 -69.5t119.5 -129t68.5 -197t23 -276.5q0 -197 -36 -331.5t-113.5 -216t-188.5 -117t-270 -35.5h-451zM352 156h262q133 0 219.5 28.5t140 95.5t75.5 167t22 253q0 162 -20 263t-72 164t-131 86.5t-207 23.5h-289v-1081z" />
<glyph unicode="E" horiz-adv-x="1212" d="M184 0v1393h889v-156h-721v-453h690v-151h-690v-477h748l-39 -156h-877z" />
<glyph unicode="F" horiz-adv-x="1155" d="M184 0v1393h889v-156h-721v-481h643l-37 -156h-606v-600h-168z" />
<glyph unicode="G" horiz-adv-x="1331" d="M109 694q0 148 16 258.5t51.5 191t85 132t124.5 82.5t162 43t206 12q200 0 385 -49v-162q-189 51 -373 51q-70 0 -120.5 -3.5t-101 -14t-84.5 -28.5t-66 -47t-51.5 -70t-34 -98.5t-21 -130.5t-6.5 -167t5.5 -167.5t20 -130.5t32.5 -97.5t48.5 -69.5t63.5 -46.5t82 -27 t98 -13t119 -3.5q177 0 292 37v531l164 47v-703q-207 -71 -452 -71q-118 0 -203.5 11.5t-161.5 41t-125.5 81t-86 130.5t-52.5 190t-16 260z" />
<glyph unicode="H" horiz-adv-x="1435" d="M184 0v1393h168v-605h731v605h168v-1393h-168v633h-731v-633h-168z" />
<glyph unicode="I" horiz-adv-x="536" d="M184 0v1393h168v-1393h-168z" />
<glyph unicode="J" horiz-adv-x="1042" d="M94 27v163q137 -51 312 -51q55 0 95 4t83.5 17.5t71 37t45.5 66t18 101.5v872h-598l45 156h721v-1035q0 -112 -35 -188.5t-102 -117t-146 -56.5t-186 -16q-201 0 -324 47z" />
<glyph unicode="K" horiz-adv-x="1234" d="M184 0v1393h168v-670l629 670h217l-655 -682l692 -711h-225l-658 694v-694h-168z" />
<glyph unicode="L" horiz-adv-x="1099" d="M184 0v1393h168v-1235h705l-35 -158h-838z" />
<glyph unicode="M" horiz-adv-x="1783" d="M184 0v1393h199l510 -717l506 717h203v-1393h-168v1171l-541 -755l-541 755v-1171h-168z" />
<glyph unicode="N" horiz-adv-x="1449" d="M184 0v1393h138l776 -1096v1096h168v-1393h-142l-772 1087v-1087h-168z" />
<glyph unicode="O" horiz-adv-x="1363" d="M109 694q0 204 29 338.5t98 221t176.5 123t269.5 36.5q108 0 190.5 -16t147 -52t108 -91t72 -136t41 -184.5t12.5 -239.5q0 -269 -54.5 -422.5t-177.5 -222.5t-339 -69t-339.5 69t-178.5 222.5t-55 422.5zM281 694q0 -131 13 -223t40.5 -157.5t75.5 -103t113.5 -54.5 t158.5 -17q117 0 191 25.5t122 91t67 170t19 268.5q0 111 -7.5 191.5t-26.5 145t-48 105.5t-74.5 68t-104 38t-138.5 11t-138.5 -11t-104.5 -38t-75 -68t-48 -105t-27 -145t-8 -192z" />
<glyph unicode="P" horiz-adv-x="1251" d="M184 0v1393h498q127 0 215.5 -22t153 -73.5t95 -140t30.5 -219.5t-30.5 -219.5t-95 -140t-153 -73.5t-215.5 -22h-330v-483h-168zM352 639h299q80 0 134 7t98.5 26t69.5 53t38 86t13 127t-13 127t-38 86t-69.5 53t-98.5 26t-134 7h-299v-598z" />
<glyph unicode="Q" horiz-adv-x="1363" d="M109 694q0 204 29 338.5t98 221t176.5 123t269.5 36.5q108 0 190.5 -16t147 -52t108 -91t72 -136t41 -184.5t12.5 -239.5q0 -353 -96.5 -514t-331.5 -192l164 -312h-180l-160 304q-300 7 -420 166.5t-120 547.5zM281 694q0 -131 13 -223t40.5 -157.5t75.5 -103 t113.5 -54.5t158.5 -17q117 0 191 25.5t122 91t67 170t19 268.5q0 111 -7.5 191.5t-26.5 145t-48 105.5t-74.5 68t-104 38t-138.5 11t-138.5 -11t-104.5 -38t-75 -68t-48 -105t-27 -145t-8 -192z" />
<glyph unicode="R" horiz-adv-x="1310" d="M184 0v1393h473q132 0 223.5 -19.5t159 -66.5t99.5 -129.5t32 -204.5q0 -186 -77.5 -280t-235.5 -124l385 -569h-194l-367 547h-330v-547h-168zM352 700h287q100 0 163 10t111.5 38.5t69.5 82t21 138.5t-21 138.5t-70 81.5t-111.5 38t-162.5 10h-287v-537z" />
<glyph unicode="S" horiz-adv-x="1153" d="M100 1063q0 193 116.5 271.5t387.5 78.5q235 0 391 -55v-160q-154 59 -389 59q-192 0 -263 -41t-71 -157q0 -84 49 -124.5t179 -90.5l270 -107q160 -62 221.5 -142.5t61.5 -232.5q0 -90 -24.5 -157t-80.5 -119t-155.5 -79t-241.5 -27q-273 0 -438 61v166q200 -72 438 -72 q179 0 254.5 56.5t75.5 162.5q0 97 -38.5 147t-148.5 93l-293 115q-78 31 -127.5 58.5t-92 68t-62 96t-19.5 131.5z" />
<glyph unicode="T" horiz-adv-x="1161" d="M41 1235v158h1094l-43 -158h-428v-1235h-168v1235h-455z" />
<glyph unicode="U" horiz-adv-x="1353" d="M150 428v965h167v-959q0 -172 81 -233.5t280 -61.5q99 0 163.5 13t110 46t65 90t19.5 146v959h168v-965q0 -128 -30.5 -214.5t-97.5 -138t-162.5 -73.5t-235.5 -22q-141 0 -237 22t-163 74t-97.5 138t-30.5 214z" />
<glyph unicode="V" horiz-adv-x="1273" d="M27 1393h182l430 -1221l428 1221h182l-510 -1393h-204z" />
<glyph unicode="W" horiz-adv-x="1945" d="M53 1393h172l310 -1192l358 1192h160l358 -1192l311 1192h170l-376 -1393h-197l-346 1135l-346 -1135h-197z" />
<glyph unicode="X" horiz-adv-x="1196" d="M39 1393h192l367 -576l367 576h192l-459 -707l451 -686h-191l-360 555l-360 -555h-193l451 686z" />
<glyph unicode="Y" horiz-adv-x="1234" d="M23 1393h186l407 -713l410 713h186l-512 -879v-514h-168v514z" />
<glyph unicode="Z" horiz-adv-x="1155" d="M94 0v117l756 1120h-735v156h944v-125l-756 -1112h748v-156h-957z" />
<glyph unicode="[" horiz-adv-x="788" d="M184 -254v1729h496v-160h-330v-1411h330v-158h-496z" />
<glyph unicode="\" horiz-adv-x="983" d="M25 1475h174l757 -1729h-172z" />
<glyph unicode="]" horiz-adv-x="788" d="M109 -96h329v1411h-329v160h495v-1729h-495v158z" />
<glyph unicode="^" horiz-adv-x="1132" d="M111 543l391 852h131l389 -852h-174l-283 645l-282 -645h-172z" />
<glyph unicode="_" horiz-adv-x="876" d="M-2 0v143h881v-143h-881z" />
<glyph unicode="`" horiz-adv-x="684" d="M133 1563h184l179 -316h-150z" />
<glyph unicode="a" horiz-adv-x="1140" d="M94 319q0 92 26 155t79 97t120 48t162 14q178 0 338 -49v182q0 106 -75 149t-232 43q-159 0 -317 -47v152q158 43 333 43q108 0 187 -15.5t141.5 -52.5t94.5 -104t32 -164v-770h-125l-24 78q-132 -98 -363 -98q-200 0 -288.5 79t-88.5 260zM262 317q0 -113 58 -153.5 t217 -40.5q150 0 282 47v297q-145 27 -276 27q-161 0 -221 -36.5t-60 -140.5z" />
<glyph unicode="b" horiz-adv-x="1239" d="M166 0v1475h164v-451q128 82 323 82q240 0 357.5 -132t117.5 -431q0 -157 -32 -267t-95 -174.5t-148 -93t-200 -28.5q-187 0 -331 98l-27 -78h-129zM330 184q117 -55 278 -55q201 0 277 96t76 318q0 111 -16.5 185t-56.5 126.5t-108.5 76t-171.5 23.5q-165 0 -278 -53 v-717z" />
<glyph unicode="c" horiz-adv-x="1058" d="M111 543q0 163 29.5 271t95 173t161 92t238.5 27q174 0 311 -49v-156q-144 53 -301 53q-107 0 -172 -16t-111 -62t-64.5 -125.5t-18.5 -207.5q0 -103 12.5 -173.5t38 -118t70.5 -73.5t102.5 -36.5t142.5 -10.5q157 0 301 53v-155q-137 -49 -311 -49q-143 0 -238.5 27 t-161 92t-95 173t-29.5 271z" />
<glyph unicode="d" horiz-adv-x="1239" d="M111 543q0 299 117.5 431t357.5 132q195 0 323 -82v451h164v-1475h-129l-26 78q-144 -98 -332 -98q-115 0 -200 28.5t-148 93t-95 174.5t-32 267zM279 543q0 -111 16.5 -185.5t56 -127.5t108 -77t171.5 -24q161 0 278 55v717q-113 53 -278 53q-103 0 -171.5 -23.5 t-108.5 -76t-56 -126.5t-16 -185z" />
<glyph unicode="e" horiz-adv-x="1148" d="M111 543q0 289 111 426t366 137q243 0 347.5 -120t104.5 -400q0 -22 -6 -103h-760q4 -204 82 -280t273 -76q198 0 348 59v-151q-140 -55 -363 -55q-137 0 -229.5 27.5t-155 93t-90.5 173t-28 269.5zM274 621h603q-2 188 -63.5 265t-225.5 77t-235 -81.5t-79 -260.5z" />
<glyph unicode="f" horiz-adv-x="780" d="M35 942v143h221v48q0 68 11.5 117t44.5 98t98.5 89.5t167.5 75.5l108 39l49 -139l-82 -29q-87 -29 -133.5 -56.5t-73 -76.5t-26.5 -125v-41h330v-143h-330v-942h-164v942h-221z" />
<glyph unicode="g" horiz-adv-x="1239" d="M111 551q0 294 116.5 424.5t356.5 130.5q194 0 327 -88v67h162v-1056q0 -204 -123.5 -303.5t-427.5 -137.5q-127 -14 -293 -18v154q348 10 508 63q90 29 133 79.5t43 127.5v59q-138 -57 -327 -57q-108 0 -191.5 28.5t-149 91t-100 172.5t-34.5 263zM279 551 q0 -103 16.5 -175.5t56 -126.5t108.5 -80t171 -26q135 0 278 33v725q-116 53 -278 53q-104 0 -172.5 -23.5t-108 -76t-55.5 -124.5t-16 -179z" />
<glyph unicode="h" horiz-adv-x="1230" d="M166 0v1475h164v-459q60 35 155.5 62.5t210.5 27.5q109 0 183 -20.5t116.5 -63.5t60 -101t17.5 -141v-780h-164v748q0 116 -56 161t-198 45q-195 0 -325 -61v-893h-164z" />
<glyph unicode="i" horiz-adv-x="487" d="M147 1282v176h193v-176h-193zM162 0v1085h164v-1085h-164z" />
<glyph unicode="j" horiz-adv-x="497" d="M-86 -326q104 126 155 208t75 170t24 208v825h164v-839q0 -131 -21.5 -221t-83.5 -195.5t-188 -259.5zM154 1282v176h192v-176h-192z" />
<glyph unicode="k" horiz-adv-x="1075" d="M166 0v1475h164v-895l485 505h211l-504 -516l541 -569h-213l-520 559v-559h-164z" />
<glyph unicode="l" horiz-adv-x="493" d="M166 0v1475h164v-1475h-164z" />
<glyph unicode="m" horiz-adv-x="1933" d="M166 0v1085h158v-75q163 96 356 96q239 0 319 -111q199 111 404 111q108 0 181 -20.5t115 -63.5t59.5 -101t17.5 -141v-780h-164v748q0 116 -57.5 161t-208.5 45t-302 -65q9 -49 9 -109v-780h-164v748q0 116 -57.5 161t-208.5 45q-159 0 -293 -63v-891h-164z" />
<glyph unicode="n" horiz-adv-x="1230" d="M166 0v1085h158v-73q57 35 155 64.5t217 29.5q109 0 183 -20.5t116.5 -63.5t60 -101t17.5 -141v-780h-164v748q0 116 -56 161t-198 45q-195 0 -325 -61v-893h-164z" />
<glyph unicode="o" d="M111 543q0 156 31.5 265t96.5 174.5t156 94.5t217 29t216.5 -29t156 -94.5t97.5 -174.5t32 -265t-32 -265.5t-97.5 -174.5t-156 -94t-216.5 -29q-127 0 -217.5 29t-155.5 94t-96.5 174t-31.5 266zM279 543q0 -102 15 -175t41 -118.5t69 -72.5t91.5 -36.5t116.5 -9.5 t116.5 9.5t91.5 36.5t69.5 72.5t41.5 118.5t15 175t-15 175t-41.5 118.5t-69.5 72t-91.5 36t-116.5 9.5t-116.5 -9.5t-91.5 -36t-69 -72t-41 -118.5t-15 -175z" />
<glyph unicode="p" horiz-adv-x="1239" d="M166 -410v1495h164v-71q141 92 323 92q116 0 201 -28t148 -92t94.5 -174t31.5 -269q0 -301 -116.5 -432t-358.5 -131q-191 0 -323 59v-449h-164zM330 172q108 -41 278 -41q103 0 171.5 23.5t108.5 76t56.5 127t16.5 185.5q0 222 -76 317.5t-277 95.5q-161 0 -278 -55 v-729z" />
<glyph unicode="q" horiz-adv-x="1239" d="M111 543q0 159 31.5 269t94.5 174t148 92t201 28q182 0 323 -92v71h164v-1495h-164v449q-132 -59 -323 -59q-242 0 -358.5 131t-116.5 432zM279 543q0 -222 75.5 -317t276.5 -95q170 0 278 41v729q-117 55 -278 55q-103 0 -171.5 -24t-108.5 -76.5t-56 -127t-16 -185.5z " />
<glyph unicode="r" horiz-adv-x="784" d="M166 0v1085h158v-118q71 46 178 85.5t235 53.5v-158q-250 -26 -407 -104v-844h-164z" />
<glyph unicode="s" horiz-adv-x="1028" d="M111 821q0 158 99 221.5t320 63.5q185 0 338 -45v-158q-167 55 -340 55q-151 0 -202.5 -29t-51.5 -112q0 -71 37 -100.5t142 -59.5l182 -55q78 -23 126.5 -45t88 -57t57 -86.5t17.5 -124.5q0 -172 -94.5 -240.5t-335.5 -68.5q-224 0 -373 61v162q181 -76 373 -76 q154 0 211 33t57 127q0 29 -5 51t-18 39t-26.5 29t-40 23.5t-48.5 18.5t-61 19l-182 55q-70 20 -114 40.5t-82.5 53.5t-56 83.5t-17.5 121.5z" />
<glyph unicode="t" horiz-adv-x="845" d="M29 942v143h217v256l162 50v-306h358v-143h-358v-670q0 -78 42 -109.5t125 -31.5q94 0 197 35v-150q-88 -36 -223 -36q-154 0 -228.5 65t-74.5 217v680h-217z" />
<glyph unicode="u" d="M158 305v780h164v-747q0 -116 55 -161.5t194 -45.5q168 0 322 64v890h164v-1085h-131l-23 76q-158 -96 -366 -96q-144 0 -228.5 38t-117.5 107t-33 180z" />
<glyph unicode="v" horiz-adv-x="1083" d="M35 1085h174l334 -911l334 911h172l-416 -1085h-180z" />
<glyph unicode="w" horiz-adv-x="1671" d="M35 1085h168l266 -919l279 919h176l276 -919l268 919h168l-333 -1085h-199l-268 885l-271 -885h-196z" />
<glyph unicode="x" horiz-adv-x="1058" d="M39 0l395 551l-377 534h191l282 -413l283 413h188l-374 -536l393 -549h-197l-293 424l-294 -424h-197z" />
<glyph unicode="y" horiz-adv-x="1079" d="M35 1085h172l336 -901l323 901h178l-354 -917q-73 -187 -190.5 -333.5t-317.5 -264.5l-78 125q259 180 349 336z" />
<glyph unicode="z" horiz-adv-x="1038" d="M82 0v117l649 825h-620v143h823v-124l-643 -818h635v-143h-844z" />
<glyph unicode="{" horiz-adv-x="827" d="M109 539v147h38q77 0 103 51t26 164v285q0 154 73.5 221.5t225.5 67.5h142v-150h-117q-92 0 -127 -35.5t-35 -138.5v-266q0 -114 -26 -176t-101 -97q75 -35 101 -96.5t26 -175.5v-270q0 -103 35 -138.5t127 -35.5h117v-150h-139q-152 0 -227 67.5t-75 221.5v289 q0 113 -26 164t-103 51h-38z" />
<glyph unicode="|" horiz-adv-x="497" d="M166 -254v1729h166v-1729h-166z" />
<glyph unicode="}" horiz-adv-x="827" d="M111 -104h116q92 0 127 35.5t35 138.5v270q0 114 26 175.5t101 96.5q-75 35 -101 97t-26 176v266q0 103 -35 138.5t-127 35.5h-116v150h141q152 0 225.5 -67.5t73.5 -221.5v-285q0 -113 26 -164t103 -51h39v-147h-39q-77 0 -103 -51t-26 -164v-289q0 -154 -74.5 -221.5 t-226.5 -67.5h-139v150z" />
<glyph unicode="~" horiz-adv-x="903" d="M109 514q0 229 198 229q48 0 91 -17.5t69.5 -38.5t58.5 -38.5t60 -17.5q43 0 62 24.5t22 81.5h121q0 -113 -48 -171t-151 -58q-47 0 -90 17.5t-69.5 39t-58.5 39t-59 17.5q-44 0 -63 -25.5t-21 -81.5h-122z" />
<glyph unicode="&#xa1;" horiz-adv-x="561" d="M186 969v198h191v-198h-191zM193 -225l22 1038h131l23 -1038h-176z" />
<glyph unicode="&#xa2;" horiz-adv-x="1058" d="M111 592q0 292 100.5 418t331.5 141v219h159v-217q131 -7 244 -47v-156q-146 54 -301 54q-85 0 -142.5 -10.5t-102.5 -36.5t-70.5 -73.5t-38 -118t-12.5 -173.5t12.5 -173.5t38 -118t70.5 -73.5t102.5 -36.5t142.5 -10.5q157 0 301 53v-155q-113 -40 -244 -47v-217h-159 v219q-231 15 -331.5 141t-100.5 418z" />
<glyph unicode="&#xa3;" horiz-adv-x="1243" d="M100 0v156h154v477h-154v151h154v242q0 191 120 289t355 98q200 0 379 -51v-162q-178 55 -373 55q-313 0 -313 -251v-220h528v-151h-528v-477h745l-45 -156h-1022z" />
<glyph unicode="&#xa4;" horiz-adv-x="1146" d="M39 264l162 162q-47 109 -47 281q0 171 47 280l-162 162l94 94l148 -147q100 84 292 84q193 0 293 -84l148 147l94 -94l-162 -162q49 -104 49 -280q0 -177 -49 -281l162 -162l-94 -96l-150 149q-100 -84 -291 -84q-190 0 -290 84l-150 -149zM307 707q0 -100 16 -165.5 t51.5 -102t82 -50.5t116.5 -14t116.5 14t82 50.5t52 102t16.5 165.5q0 99 -16.5 164t-52 101t-82 50t-116.5 14t-116.5 -14t-82 -50t-51.5 -101t-16 -164z" />
<glyph unicode="&#xa5;" horiz-adv-x="1234" d="M23 1393h186l407 -713l410 713h186l-450 -775h282v-116h-344v-133h344v-119h-344v-250h-168v250h-342v119h342v133h-342v116h281z" />
<glyph unicode="&#xa6;" horiz-adv-x="497" d="M166 -254v676h166v-676h-166zM166 799v676h166v-676h-166z" />
<glyph unicode="&#xa7;" horiz-adv-x="1138" d="M109 674q0 88 38 145t109 99q-84 87 -84 223q0 147 101.5 209.5t320.5 62.5q176 0 340 -45v-158q-170 56 -340 56q-150 0 -204 -29t-54 -100q0 -66 28 -106t119 -87l308 -160q121 -60 180 -131t59 -190q0 -88 -38 -145t-109 -99q84 -87 84 -223q0 -147 -101.5 -209.5 t-320.5 -62.5q-176 0 -340 45v157q167 -55 340 -55q150 0 204 29t54 100q0 65 -28.5 105.5t-119.5 87.5l-307 159q-121 60 -180 131.5t-59 190.5zM272 680q0 -41 9.5 -70.5t33 -52.5t44 -36.5t61.5 -35.5l317 -163q6 -2 15 -8t12 -7q53 28 77.5 61t24.5 89q0 41 -9.5 70.5 t-32.5 52t-43.5 36t-61.5 35.5l-318 164q-6 2 -15 7.5t-11 6.5q-54 -28 -78.5 -61t-24.5 -88z" />
<glyph unicode="&#xa8;" horiz-adv-x="831" d="M133 1282v176h178v-176h-178zM539 1282v176h178v-176h-178z" />
<glyph unicode="&#xa9;" horiz-adv-x="1167" d="M111 950q0 249 118.5 356t354.5 107t354.5 -107t118.5 -356q0 -250 -114.5 -355.5t-358.5 -105.5q-247 0 -360 105t-113 356zM209 950q0 -101 17.5 -168.5t61 -113.5t115 -66t181.5 -20t181.5 20t114.5 66t60.5 113t17.5 169q0 197 -88.5 284t-285.5 87 q-199 0 -287 -85.5t-88 -285.5zM391 950q0 119 48.5 168t164.5 49q69 0 127 -14v-88q-76 12 -125 12q-59 0 -86.5 -26t-27.5 -99q0 -75 27.5 -102t86.5 -27q64 0 125 13v-93q-52 -10 -127 -10q-116 0 -164.5 49t-48.5 168z" />
<glyph unicode="&#xaa;" horiz-adv-x="743" d="M111 969q0 97 53 139.5t168 42.5q102 0 186 -23v68q0 62 -32 86.5t-117 24.5q-101 0 -199 -27v109q92 24 203 24q141 0 200.5 -49.5t59.5 -161.5v-416h-84l-21 43q-74 -53 -196 -53q-115 0 -168 46.5t-53 146.5zM229 971q0 -52 26.5 -72t94.5 -20q110 0 168 22v139 q-91 17 -162 17q-72 0 -99.5 -18.5t-27.5 -67.5z" />
<glyph unicode="&#xab;" horiz-adv-x="1085" d="M111 625l309 448h160l-275 -448l254 -449h-160zM506 625l309 448h160l-275 -448l254 -449h-159z" />
<glyph unicode="&#xac;" horiz-adv-x="1335" d="M166 573v156h1003v-729h-163v573h-840z" />
<glyph unicode="&#xad;" horiz-adv-x="1019" d="M166 541v147h688v-147h-688z" />
<glyph unicode="&#xae;" horiz-adv-x="1167" d="M111 950q0 247 118.5 355t352.5 108q236 0 355.5 -108t119.5 -355q0 -249 -114 -355t-361 -106q-244 0 -357.5 106t-113.5 355zM205 950q0 -102 18 -169.5t61.5 -114t115.5 -66.5t182 -20q111 0 183.5 20t116.5 66.5t61.5 114t17.5 169.5q0 198 -90 285.5t-289 87.5 t-288 -85.5t-89 -287.5zM420 752v444h180q95 0 132.5 -33.5t37.5 -111.5q0 -98 -84 -131l115 -168h-115l-98 153h-72v-153h-96zM516 989h76q43 0 59.5 11.5t16.5 48.5t-15.5 48t-58.5 11h-78v-119z" />
<glyph unicode="&#xaf;" horiz-adv-x="825" d="M127 1311v133h571v-133h-571z" />
<glyph unicode="&#xb0;" horiz-adv-x="813" d="M111 1202q0 139 75 216t222 77q297 0 297 -293q0 -140 -74.5 -216.5t-222.5 -76.5q-147 0 -222 77t-75 216zM248 1202q0 -166 160 -166q159 0 159 166q0 82 -35 125t-124 43q-160 0 -160 -168z" />
<glyph unicode="&#xb1;" horiz-adv-x="1165" d="M111 668v153h389v387h153v-387h389v-153h-389v-389h-153v389h-389zM125 0v143h930v-143h-930z" />
<glyph unicode="&#xb2;" horiz-adv-x="720" d="M76 598v90l313 299q63 59 89 97.5t26 91.5q0 63 -40.5 87.5t-133.5 24.5q-107 0 -238 -41v125q126 41 248 41q145 0 220 -50t75 -179q0 -85 -30 -135t-111 -127l-203 -199h344l-25 -125h-534z" />
<glyph unicode="&#xb3;" horiz-adv-x="720" d="M76 608v127q2 0 28 -6.5t36 -8.5t37 -7t45.5 -7t46 -4t53.5 -2q94 0 137 30t43 99t-37.5 96t-112.5 27q-61 0 -114 -6l-58 109l240 213h-324v125h494l31 -90l-271 -244q8 2 27 2q124 0 190 -54t66 -176q0 -137 -76.5 -195t-232.5 -58q-145 0 -248 30z" />
<glyph unicode="&#xb4;" horiz-adv-x="622" d="M127 1247l178 316h184l-213 -316h-149z" />
<glyph unicode="&#xb5;" horiz-adv-x="1228" d="M166 -410v1495h164v-788q0 -72 73.5 -119t184.5 -47q159 0 313 68v886h164v-1085h-133l-21 76q-138 -96 -321 -96q-86 0 -159 24t-101 66v-480h-164z" />
<glyph unicode="&#xb6;" horiz-adv-x="1067" d="M111 989q0 96 20 167t65.5 126t127 83t198.5 28h129v-1647h-139v834h-37q-195 0 -279.5 105t-84.5 304zM745 -254v1647h140v-1647h-140z" />
<glyph unicode="&#xb7;" horiz-adv-x="415" d="M113 518v199h190v-199h-190z" />
<glyph unicode="&#xb8;" horiz-adv-x="634" d="M127 -309q46 -8 119 -8q72 0 100.5 13.5t28.5 49.5q0 40 -41.5 53t-171.5 13l51 188h121l-29 -102q109 -4 156 -43t47 -115q0 -86 -59.5 -128t-182.5 -42q-85 0 -139 8v113z" />
<glyph unicode="&#xb9;" horiz-adv-x="720" d="M129 598v119h174v543l-172 -33v125l303 61v-696h160v-119h-465z" />
<glyph unicode="&#xba;" horiz-adv-x="790" d="M111 1094q0 171 67 245t217 74q149 0 217 -74.5t68 -244.5q0 -169 -68 -243.5t-217 -74.5q-150 0 -217 74.5t-67 243.5zM231 1094q0 -121 37 -167t131 -46q92 0 129 46.5t37 166.5q0 122 -37 168.5t-129 46.5q-94 0 -131 -46.5t-37 -168.5z" />
<glyph unicode="&#xbb;" horiz-adv-x="1085" d="M111 1073h159l310 -448l-289 -449h-160l254 449zM506 1073h160l309 -448l-289 -449h-160l254 449z" />
<glyph unicode="&#xbc;" horiz-adv-x="1908" d="M227 598v119h174v543l-172 -33v125l303 61v-696h160v-119h-465zM399 0l1006 1393h145l-997 -1393h-154zM1069 160v102l328 533h147l-313 -516h246v165h131v-444h-131v160h-408z" />
<glyph unicode="&#xbd;" horiz-adv-x="1908" d="M190 598v119h175v543l-172 -33v125l303 61v-696h159v-119h-465zM375 0l1005 1393h146l-998 -1393h-153zM1200 0v90l313 299q63 59 89 97.5t26 91.5q0 63 -40.5 87.5t-133.5 24.5q-106 0 -237 -41v125q126 41 247 41q145 0 220 -50t75 -179q0 -85 -30 -135t-111 -127 l-203 -199h344l-24 -125h-535z" />
<glyph unicode="&#xbe;" horiz-adv-x="1908" d="M211 608v127q2 0 28 -6.5t36 -8.5t37 -7t45.5 -7t46 -4t53.5 -2q94 0 137 30t43 99t-37.5 96t-112.5 27q-61 0 -114 -6l-58 109l240 213h-324v125h494l31 -90l-271 -244q8 2 27 2q124 0 190 -54t66 -176q0 -137 -76.5 -195t-232.5 -58q-145 0 -248 30zM430 0l1006 1393 h145l-997 -1393h-154zM1092 160v102l327 533h148l-314 -516h246v165h131v-444h-131v160h-407z" />
<glyph unicode="&#xbf;" horiz-adv-x="923" d="M27 -92q0 57 13 103.5t30.5 76.5t49 57.5t54.5 42t62 35.5l118 66q58 32 83.5 53.5t38.5 55t13 91.5v140h168v-150q0 -63 -9.5 -106.5t-35 -76t-55.5 -55t-84 -51.5l-96 -53q-101 -54 -139.5 -95.5t-38.5 -125.5q0 -110 72 -150t249 -40q243 0 404 59v-160 q-156 -55 -402 -55q-260 0 -377.5 77t-117.5 261zM479 784v199h191v-199h-191z" />
<glyph unicode="&#xc0;" horiz-adv-x="1329" d="M27 0l540 1393h197l539 -1393h-177l-141 371h-639l-141 -371h-178zM385 1870h184l179 -316h-150zM401 518h529l-264 696z" />
<glyph unicode="&#xc1;" horiz-adv-x="1329" d="M27 0l538 1393h197l541 -1393h-179l-141 371h-639l-141 -371h-176zM399 518h529l-264 696zM582 1554l178 316h184l-213 -316h-149z" />
<glyph unicode="&#xc2;" horiz-adv-x="1329" d="M27 0l538 1393h197l541 -1393h-179l-141 371h-639l-141 -371h-176zM311 1554l275 316h159l273 -316h-178l-174 211l-177 -211h-178zM399 518h529l-264 696z" />
<glyph unicode="&#xc3;" horiz-adv-x="1329" d="M27 0l538 1393h197l541 -1393h-179l-141 371h-639l-141 -371h-176zM324 1552q0 230 198 230q48 0 91 -17.5t69.5 -39t58.5 -39t60 -17.5q43 0 62 25t22 82h121q0 -230 -199 -230q-47 0 -90 17.5t-69.5 39t-58.5 39t-59 17.5q-44 0 -63 -25.5t-21 -81.5h-122zM399 518h529 l-264 696z" />
<glyph unicode="&#xc4;" horiz-adv-x="1329" d="M27 0l538 1393h197l541 -1393h-179l-141 371h-639l-141 -371h-176zM373 1589v176h178v-176h-178zM399 518h529l-264 696zM778 1589v176h178v-176h-178z" />
<glyph unicode="&#xc5;" horiz-adv-x="1329" d="M27 0l538 1393h197l541 -1393h-179l-141 371h-639l-141 -371h-176zM399 518h529l-264 696zM416 1735q0 105 59 158t191 53q131 0 189 -53t58 -158q0 -104 -58 -156.5t-189 -52.5q-132 0 -191 52.5t-59 156.5zM528 1737q0 -55 30 -83t108 -28q75 0 105 28t30 83 q0 56 -29.5 84t-105.5 28q-79 0 -108.5 -27.5t-29.5 -84.5z" />
<glyph unicode="&#xc6;" horiz-adv-x="1861" d="M27 0l534 1393h1161v-156h-659v-453h629v-151h-629v-477h688l-41 -156h-815v371h-551l-139 -371h-178zM403 526h492v711h-225z" />
<glyph unicode="&#xc7;" horiz-adv-x="1181" d="M109 696q0 154 19 268.5t61 201.5t110.5 140.5t166 80t230.5 26.5q219 0 387 -53v-162q-160 55 -354 55q-137 0 -221.5 -25.5t-136.5 -92.5t-71 -169.5t-19 -269.5q0 -168 19 -270.5t71 -169t136.5 -92t221.5 -25.5q191 0 354 56v-162q-144 -46 -350 -53l-22 -82 q109 -4 155.5 -43t46.5 -115q0 -86 -59 -128t-182 -42q-86 0 -140 8v113q46 -8 119 -8q72 0 100.5 13.5t28.5 49.5q0 40 -41.5 53t-171.5 13l47 170q-185 13 -294 87.5t-160 225.5t-51 401z" />
<glyph unicode="&#xc8;" horiz-adv-x="1212" d="M184 0v1393h889v-156h-721v-453h690v-151h-690v-477h748l-39 -156h-877zM401 1870h185l178 -316h-150z" />
<glyph unicode="&#xc9;" horiz-adv-x="1212" d="M184 0v1393h889v-156h-721v-453h690v-151h-690v-477h748l-39 -156h-877zM514 1554l178 316h185l-213 -316h-150z" />
<glyph unicode="&#xca;" horiz-adv-x="1212" d="M184 0v1393h889v-156h-721v-453h690v-151h-690v-477h748l-39 -156h-877zM291 1554l274 316h160l272 -316h-178l-174 211l-176 -211h-178z" />
<glyph unicode="&#xcb;" horiz-adv-x="1212" d="M184 0v1393h889v-156h-721v-453h690v-151h-690v-477h748l-39 -156h-877zM350 1589v176h178v-176h-178zM756 1589v176h178v-176h-178z" />
<glyph unicode="&#xcc;" horiz-adv-x="536" d="M-10 1870h184l178 -316h-149zM184 0v1393h168v-1393h-168z" />
<glyph unicode="&#xcd;" horiz-adv-x="536" d="M184 0v1393h168v-1393h-168zM184 1554l178 316h185l-213 -316h-150z" />
<glyph unicode="&#xce;" horiz-adv-x="536" d="M-84 1554l274 316h160l273 -316h-179l-174 211l-176 -211h-178zM184 0v1393h168v-1393h-168z" />
<glyph unicode="&#xcf;" horiz-adv-x="536" d="M-25 1589v176h179v-176h-179zM184 0v1393h168v-1393h-168zM381 1589v176h178v-176h-178z" />
<glyph unicode="&#xd0;" horiz-adv-x="1351" d="M51 637v117h133v639h455q129 0 224 -21t169 -69.5t119.5 -129t68.5 -197t23 -276.5q0 -197 -36 -331.5t-113.5 -216t-188.5 -117t-270 -35.5h-451v637h-133zM352 156h262q133 0 219.5 28.5t140 95.5t75.5 167t22 253q0 162 -20 263t-72 164t-131 86.5t-207 23.5h-289 v-483h379v-117h-379v-481z" />
<glyph unicode="&#xd1;" horiz-adv-x="1449" d="M184 0v1393h138l776 -1096v1096h168v-1393h-142l-772 1087v-1087h-168zM383 1552q0 230 199 230q48 0 91 -17.5t69 -39t58 -39t60 -17.5q43 0 62 25t22 82h121q0 -230 -199 -230q-47 0 -90 17.5t-69 39t-58 39t-59 17.5q-44 0 -63 -25.5t-21 -81.5h-123z" />
<glyph unicode="&#xd2;" horiz-adv-x="1363" d="M111 694q0 136 12.5 239.5t41 184.5t72 136t108 91t147 52t190.5 16q162 0 269.5 -36.5t176.5 -123t98 -221t29 -338.5q0 -269 -55 -422.5t-178.5 -222.5t-339.5 -69t-339 69t-177.5 222.5t-54.5 422.5zM283 694q0 -164 19 -268.5t67 -170t122 -91t191 -25.5 q93 0 158.5 17t113.5 54.5t75.5 103t40.5 157.5t13 223q0 111 -8 192t-27 145t-48 105t-75 68t-104.5 38t-138.5 11t-138.5 -11t-104 -38t-74.5 -68t-48 -105.5t-26.5 -145t-7.5 -191.5zM422 1870h184l178 -316h-149z" />
<glyph unicode="&#xd3;" horiz-adv-x="1363" d="M109 694q0 204 29 338.5t98 221t176.5 123t269.5 36.5q108 0 190.5 -16t147 -52t108 -91t72 -136t41 -184.5t12.5 -239.5q0 -269 -54.5 -422.5t-177.5 -222.5t-339 -69t-339.5 69t-178.5 222.5t-55 422.5zM281 694q0 -131 13 -223t40.5 -157.5t75.5 -103t113.5 -54.5 t158.5 -17q117 0 191 25.5t122 91t67 170t19 268.5q0 111 -7.5 191.5t-26.5 145t-48 105.5t-74.5 68t-104 38t-138.5 11t-138.5 -11t-104.5 -38t-75 -68t-48 -105t-27 -145t-8 -192zM580 1554l178 316h184l-213 -316h-149z" />
<glyph unicode="&#xd4;" horiz-adv-x="1363" d="M109 694q0 204 29 338.5t98 221t176.5 123t269.5 36.5q108 0 190.5 -16t147 -52t108 -91t72 -136t41 -184.5t12.5 -239.5q0 -269 -54.5 -422.5t-177.5 -222.5t-339 -69t-339.5 69t-178.5 222.5t-55 422.5zM281 694q0 -131 13 -223t40.5 -157.5t75.5 -103t113.5 -54.5 t158.5 -17q117 0 191 25.5t122 91t67 170t19 268.5q0 111 -7.5 191.5t-26.5 145t-48 105.5t-74.5 68t-104 38t-138.5 11t-138.5 -11t-104.5 -38t-75 -68t-48 -105t-27 -145t-8 -192zM328 1554l274 316h160l272 -316h-178l-174 211l-176 -211h-178z" />
<glyph unicode="&#xd5;" horiz-adv-x="1363" d="M109 694q0 204 29 338.5t98 221t176.5 123t269.5 36.5q108 0 190.5 -16t147 -52t108 -91t72 -136t41 -184.5t12.5 -239.5q0 -269 -54.5 -422.5t-177.5 -222.5t-339 -69t-339.5 69t-178.5 222.5t-55 422.5zM281 694q0 -131 13 -223t40.5 -157.5t75.5 -103t113.5 -54.5 t158.5 -17q117 0 191 25.5t122 91t67 170t19 268.5q0 111 -7.5 191.5t-26.5 145t-48 105.5t-74.5 68t-104 38t-138.5 11t-138.5 -11t-104.5 -38t-75 -68t-48 -105t-27 -145t-8 -192zM340 1552q0 230 199 230q48 0 91 -17.5t69 -39t58 -39t60 -17.5q43 0 62 25t22 82h121 q0 -230 -199 -230q-47 0 -90 17.5t-69 39t-58 39t-59 17.5q-44 0 -63 -25.5t-21 -81.5h-123z" />
<glyph unicode="&#xd6;" horiz-adv-x="1363" d="M109 694q0 204 29 338.5t98 221t176.5 123t269.5 36.5q108 0 190.5 -16t147 -52t108 -91t72 -136t41 -184.5t12.5 -239.5q0 -269 -54.5 -422.5t-177.5 -222.5t-339 -69t-339.5 69t-178.5 222.5t-55 422.5zM281 694q0 -131 13 -223t40.5 -157.5t75.5 -103t113.5 -54.5 t158.5 -17q117 0 191 25.5t122 91t67 170t19 268.5q0 111 -7.5 191.5t-26.5 145t-48 105.5t-74.5 68t-104 38t-138.5 11t-138.5 -11t-104.5 -38t-75 -68t-48 -105t-27 -145t-8 -192zM389 1589v176h178v-176h-178zM795 1589v176h178v-176h-178z" />
<glyph unicode="&#xd7;" horiz-adv-x="987" d="M109 369l276 274l-276 277l108 108l277 -276l272 274l108 -108l-272 -275l275 -274l-109 -109l-274 275l-277 -275z" />
<glyph unicode="&#xd8;" horiz-adv-x="1363" d="M109 694q0 204 29 338.5t98 221t176.5 123t269.5 36.5q108 0 190.5 -16t147 -52t108 -91t72 -136t41 -184.5t12.5 -239.5q0 -269 -54.5 -422.5t-177.5 -222.5t-339 -69t-339.5 69t-178.5 222.5t-55 422.5zM281 694q0 -295 71 -415l570 927q-84 47 -240 47 q-80 0 -138.5 -11t-104.5 -38t-75 -68t-48 -105t-27 -145t-8 -192zM442 188q83 -49 240 -49q117 0 191 25.5t122 91t67 170t19 268.5q0 303 -69 422z" />
<glyph unicode="&#xd9;" horiz-adv-x="1353" d="M150 428v965h167v-959q0 -89 19.5 -146t65.5 -90t110.5 -46t163.5 -13q199 0 279.5 61.5t80.5 233.5v959h168v-965q0 -128 -30.5 -214t-97.5 -138t-163 -74t-237 -22q-140 0 -235.5 22t-162.5 73.5t-97.5 138t-30.5 214.5zM410 1870h184l178 -316h-149z" />
<glyph unicode="&#xda;" horiz-adv-x="1353" d="M150 428v965h167v-959q0 -172 81 -233.5t280 -61.5q99 0 163.5 13t110 46t65 90t19.5 146v959h168v-965q0 -128 -30.5 -214.5t-97.5 -138t-162.5 -73.5t-235.5 -22q-141 0 -237 22t-163 74t-97.5 138t-30.5 214zM582 1554l178 316h184l-213 -316h-149z" />
<glyph unicode="&#xdb;" horiz-adv-x="1353" d="M150 428v965h167v-959q0 -172 81 -233.5t280 -61.5q99 0 163.5 13t110 46t65 90t19.5 146v959h168v-965q0 -128 -30.5 -214.5t-97.5 -138t-162.5 -73.5t-235.5 -22q-141 0 -237 22t-163 74t-97.5 138t-30.5 214zM324 1554l274 316h160l272 -316h-178l-174 211l-176 -211 h-178z" />
<glyph unicode="&#xdc;" horiz-adv-x="1353" d="M150 428v965h167v-959q0 -172 81 -233.5t280 -61.5q99 0 163.5 13t110 46t65 90t19.5 146v959h168v-965q0 -128 -30.5 -214.5t-97.5 -138t-162.5 -73.5t-235.5 -22q-141 0 -237 22t-163 74t-97.5 138t-30.5 214zM385 1589v176h178v-176h-178zM791 1589v176h178v-176h-178 z" />
<glyph unicode="&#xdd;" horiz-adv-x="1234" d="M23 1393h186l407 -713l410 713h186l-512 -879v-514h-168v514zM526 1554l179 316h184l-213 -316h-150z" />
<glyph unicode="&#xde;" horiz-adv-x="1286" d="M184 0v1393h168v-217h330q127 0 215.5 -22t153 -74t95 -140.5t30.5 -218.5q0 -245 -127 -351t-381 -106h-316v-264h-168zM352 420h303q93 0 153.5 12t107 44.5t67.5 93t21 153.5q0 75 -13 127t-38 85.5t-69.5 52t-98.5 25.5t-134 7h-299v-600z" />
<glyph unicode="&#xdf;" horiz-adv-x="1202" d="M166 0v1067q0 211 103.5 319.5t338.5 108.5q221 0 328.5 -94t107.5 -283q0 -80 -14.5 -139t-43.5 -98.5t-64 -64.5t-86 -46q48 -11 82.5 -24.5t72.5 -40.5t62 -64t39.5 -98t15.5 -140q0 -117 -29 -195t-92.5 -124t-152.5 -65t-220 -19h-149v150h135q92 0 152 11t104.5 40 t64 81t19.5 132q0 66 -16.5 115t-44.5 80t-72 50t-93.5 26t-113.5 7h-68v150h64q285 0 285 268q0 115 -63 174t-214 59q-148 0 -211 -72t-63 -210v-1061h-164z" />
<glyph unicode="&#xe0;" horiz-adv-x="1140" d="M94 319q0 92 26 155t79 97t120 48t162 14q178 0 338 -49v182q0 106 -75 149t-232 43q-159 0 -317 -47v152q158 43 333 43q108 0 187 -15.5t141.5 -52.5t94.5 -104t32 -164v-770h-125l-24 78q-132 -98 -363 -98q-200 0 -288.5 79t-88.5 260zM262 317q0 -113 58 -153.5 t217 -40.5q150 0 282 47v297q-145 27 -276 27q-161 0 -221 -36.5t-60 -140.5zM311 1563h185l178 -316h-150z" />
<glyph unicode="&#xe1;" horiz-adv-x="1140" d="M94 319q0 92 26 155t79 97t120 48t162 14q178 0 338 -49v182q0 106 -75 149t-232 43q-159 0 -317 -47v152q158 43 333 43q108 0 187 -15.5t141.5 -52.5t94.5 -104t32 -164v-770h-125l-24 78q-132 -98 -363 -98q-200 0 -288.5 79t-88.5 260zM262 317q0 -113 58 -153.5 t217 -40.5q150 0 282 47v297q-145 27 -276 27q-161 0 -221 -36.5t-60 -140.5zM471 1247l178 316h185l-213 -316h-150z" />
<glyph unicode="&#xe2;" horiz-adv-x="1140" d="M94 319q0 92 26 155t79 97t120 48t162 14q178 0 338 -49v182q0 106 -75 149t-232 43q-159 0 -317 -47v152q158 43 333 43q108 0 187 -15.5t141.5 -52.5t94.5 -104t32 -164v-770h-125l-24 78q-132 -98 -363 -98q-200 0 -288.5 79t-88.5 260zM213 1247l274 316h160 l273 -316h-179l-174 211l-176 -211h-178zM262 317q0 -113 58 -153.5t217 -40.5q150 0 282 47v297q-145 27 -276 27q-161 0 -221 -36.5t-60 -140.5z" />
<glyph unicode="&#xe3;" horiz-adv-x="1140" d="M94 319q0 92 26 155t79 97t120 48t162 14q178 0 338 -49v182q0 106 -75 149t-232 43q-159 0 -317 -47v152q158 43 333 43q108 0 187 -15.5t141.5 -52.5t94.5 -104t32 -164v-770h-125l-24 78q-132 -98 -363 -98q-200 0 -288.5 79t-88.5 260zM225 1245q0 230 199 230 q48 0 91 -17.5t69 -39t58 -39t60 -17.5q43 0 62 24.5t22 81.5h121q0 -113 -47.5 -171t-150.5 -58q-47 0 -90 17.5t-69.5 39t-58.5 39t-59 17.5q-44 0 -63 -25.5t-21 -81.5h-123zM262 317q0 -113 58 -153.5t217 -40.5q150 0 282 47v297q-145 27 -276 27q-161 0 -221 -36.5 t-60 -140.5z" />
<glyph unicode="&#xe4;" horiz-adv-x="1140" d="M94 319q0 92 26 155t79 97t120 48t162 14q178 0 338 -49v182q0 106 -75 149t-232 43q-159 0 -317 -47v152q158 43 333 43q108 0 187 -15.5t141.5 -52.5t94.5 -104t32 -164v-770h-125l-24 78q-132 -98 -363 -98q-200 0 -288.5 79t-88.5 260zM262 317q0 -113 58 -153.5 t217 -40.5q150 0 282 47v297q-145 27 -276 27q-161 0 -221 -36.5t-60 -140.5zM270 1282v176h179v-176h-179zM676 1282v176h178v-176h-178z" />
<glyph unicode="&#xe5;" horiz-adv-x="1140" d="M94 319q0 92 26 155t79 97t120 48t162 14q178 0 338 -49v182q0 106 -75 149t-232 43q-159 0 -317 -47v152q158 43 333 43q108 0 187 -15.5t141.5 -52.5t94.5 -104t32 -164v-770h-125l-24 78q-132 -98 -363 -98q-200 0 -288.5 79t-88.5 260zM262 317q0 -113 58 -153.5 t217 -40.5q150 0 282 47v297q-145 27 -276 27q-161 0 -221 -36.5t-60 -140.5zM326 1438q0 105 58.5 158t190.5 53q131 0 189.5 -53t58.5 -158q0 -103 -58.5 -156t-189.5 -53q-132 0 -190.5 52.5t-58.5 156.5zM438 1440q0 -56 29.5 -83.5t107.5 -27.5q75 0 105.5 28t30.5 83 q0 56 -30 84t-106 28q-79 0 -108 -27.5t-29 -84.5z" />
<glyph unicode="&#xe6;" horiz-adv-x="1726" d="M94 313q0 88 28.5 148.5t86 94.5t131 48t176.5 14h238v109q0 231 -256 231q-141 0 -305 -51v150q152 49 309 49q130 0 221 -45t123 -139q85 184 352 184q225 0 322.5 -120t97.5 -400q0 -32 -6 -101h-694q1 -207 70 -282.5t251 -75.5q185 0 324 59v-151q-129 -55 -336 -55 q-129 0 -216.5 29t-144.5 95q-156 -124 -395 -124q-200 0 -288.5 79t-88.5 254zM264 311q0 -106 53 -148t179 -42q156 0 309 84q-45 102 -51 282h-191q-174 0 -236.5 -36t-62.5 -140zM918 618h536q-1 96 -13 159t-41.5 106t-78.5 61.5t-125 18.5q-278 0 -278 -267v-78z" />
<glyph unicode="&#xe7;" horiz-adv-x="1058" d="M111 543q0 163 29.5 271t95 173t161 92t238.5 27q174 0 311 -49v-156q-144 53 -301 53q-107 0 -172 -16t-111 -62t-64.5 -125.5t-18.5 -207.5q0 -103 12.5 -173.5t38 -118t70.5 -73.5t102.5 -36.5t142.5 -10.5q157 0 301 53v-155q-126 -46 -297 -49l-22 -82 q109 -4 155.5 -43t46.5 -115q0 -86 -59 -128t-182 -42q-85 0 -139 8v113q46 -8 118 -8t100.5 13.5t28.5 49.5q0 40 -41.5 53t-171.5 13l47 172q-225 19 -322 144.5t-97 414.5z" />
<glyph unicode="&#xe8;" horiz-adv-x="1148" d="M111 543q0 289 111 426t366 137q243 0 347.5 -120t104.5 -400q0 -22 -6 -103h-760q4 -204 82 -280t273 -76q198 0 348 59v-151q-140 -55 -363 -55q-137 0 -229.5 27.5t-155 93t-90.5 173t-28 269.5zM274 621h603q-2 188 -63.5 265t-225.5 77t-235 -81.5t-79 -260.5z M319 1563h185l178 -316h-150z" />
<glyph unicode="&#xe9;" horiz-adv-x="1148" d="M111 543q0 289 111 426t366 137q243 0 347.5 -120t104.5 -400q0 -22 -6 -103h-760q4 -204 82 -280t273 -76q198 0 348 59v-151q-140 -55 -363 -55q-137 0 -229.5 27.5t-155 93t-90.5 173t-28 269.5zM274 621h603q-2 188 -63.5 265t-225.5 77t-235 -81.5t-79 -260.5z M479 1247l178 316h185l-213 -316h-150z" />
<glyph unicode="&#xea;" horiz-adv-x="1148" d="M111 543q0 289 111 426t366 137q243 0 347.5 -120t104.5 -400q0 -22 -6 -103h-760q4 -204 82 -280t273 -76q198 0 348 59v-151q-140 -55 -363 -55q-137 0 -229.5 27.5t-155 93t-90.5 173t-28 269.5zM221 1247l275 316h159l273 -316h-178l-175 211l-176 -211h-178z M274 621h603q-2 188 -63.5 265t-225.5 77t-235 -81.5t-79 -260.5z" />
<glyph unicode="&#xeb;" horiz-adv-x="1148" d="M111 543q0 289 111 426t366 137q243 0 347.5 -120t104.5 -400q0 -22 -6 -103h-760q4 -204 82 -280t273 -76q198 0 348 59v-151q-140 -55 -363 -55q-137 0 -229.5 27.5t-155 93t-90.5 173t-28 269.5zM274 621h603q-2 188 -63.5 265t-225.5 77t-235 -81.5t-79 -260.5z M283 1282v176h178v-176h-178zM688 1282v176h178v-176h-178z" />
<glyph unicode="&#xec;" horiz-adv-x="489" d="M-23 1563h185l178 -316h-150zM176 0v1085h164v-1085h-164z" />
<glyph unicode="&#xed;" horiz-adv-x="489" d="M150 0v1085h163v-1085h-163zM150 1247l178 316h184l-213 -316h-149z" />
<glyph unicode="&#xee;" horiz-adv-x="489" d="M-109 1247l275 316h160l272 -316h-178l-174 211l-176 -211h-179zM164 0v1085h164v-1085h-164z" />
<glyph unicode="&#xef;" horiz-adv-x="489" d="M-47 1282v176h178v-176h-178zM164 0v1085h164v-1085h-164zM358 1282v176h179v-176h-179z" />
<glyph unicode="&#xf0;" horiz-adv-x="1206" d="M111 479q0 475 446 475q183 0 338 -92q-35 119 -103 208.5t-196 160.5l-143 -131l-72 78l111 102q-101 41 -230 78l43 137q187 -50 305 -106l144 131l73 -78l-118 -109q387 -241 387 -766q0 -131 -24.5 -233t-79.5 -184t-154 -126t-238 -44q-129 0 -225 37.5t-153 106.5 t-84 157.5t-27 197.5zM279 481q0 -81 15.5 -141.5t51.5 -108.5t100.5 -73t157.5 -25q177 0 251.5 104.5t74.5 325.5q0 77 -15 160q-159 86 -333 86q-159 0 -231 -83.5t-72 -244.5z" />
<glyph unicode="&#xf1;" horiz-adv-x="1230" d="M166 0v1085h158v-73q57 35 155 64.5t217 29.5q109 0 183 -20.5t116.5 -63.5t60 -101t17.5 -141v-780h-164v748q0 116 -56 161t-198 45q-195 0 -325 -61v-893h-164zM281 1245q0 230 198 230q48 0 91 -17.5t69.5 -39t58.5 -39t60 -17.5q43 0 62 24.5t22 81.5h121 q0 -113 -48 -171t-151 -58q-47 0 -90 17.5t-69.5 39t-58.5 39t-59 17.5q-44 0 -63 -25.5t-21 -81.5h-122z" />
<glyph unicode="&#xf2;" d="M109 543q0 156 32 265t97 174.5t155.5 94.5t216.5 29t217 -29t156.5 -94.5t97 -174.5t31.5 -265q0 -157 -31.5 -266t-97 -174t-156 -94t-217.5 -29q-126 0 -216.5 29t-155.5 94t-97 174t-32 266zM276 543q0 -102 15 -175t41.5 -118.5t69.5 -72.5t91.5 -36.5t116.5 -9.5 t116.5 9.5t91.5 36.5t69.5 72.5t41.5 118.5t15 175t-15 175t-41.5 118.5t-69.5 72t-91.5 36t-116.5 9.5t-116.5 -9.5t-91.5 -36t-69.5 -72t-41.5 -118.5t-15 -175zM332 1563h184l178 -316h-149z" />
<glyph unicode="&#xf3;" d="M111 543q0 156 31.5 265t96.5 174.5t156 94.5t217 29t216.5 -29t156 -94.5t97.5 -174.5t32 -265t-32 -265.5t-97.5 -174.5t-156 -94t-216.5 -29q-127 0 -217.5 29t-155.5 94t-96.5 174t-31.5 266zM279 543q0 -102 15 -175t41 -118.5t69 -72.5t91.5 -36.5t116.5 -9.5 t116.5 9.5t91.5 36.5t69.5 72.5t41.5 118.5t15 175t-15 175t-41.5 118.5t-69.5 72t-91.5 36t-116.5 9.5t-116.5 -9.5t-91.5 -36t-69 -72t-41 -118.5t-15 -175zM528 1247l179 316h184l-213 -316h-150z" />
<glyph unicode="&#xf4;" d="M111 543q0 156 31.5 265t96.5 174.5t156 94.5t217 29t216.5 -29t156 -94.5t97.5 -174.5t32 -265t-32 -265.5t-97.5 -174.5t-156 -94t-216.5 -29q-127 0 -217.5 29t-155.5 94t-96.5 174t-31.5 266zM258 1247l274 316h160l273 -316h-179l-174 211l-176 -211h-178zM279 543 q0 -102 15 -175t41 -118.5t69 -72.5t91.5 -36.5t116.5 -9.5t116.5 9.5t91.5 36.5t69.5 72.5t41.5 118.5t15 175t-15 175t-41.5 118.5t-69.5 72t-91.5 36t-116.5 9.5t-116.5 -9.5t-91.5 -36t-69 -72t-41 -118.5t-15 -175z" />
<glyph unicode="&#xf5;" d="M111 543q0 156 31.5 265t96.5 174.5t156 94.5t217 29t216.5 -29t156 -94.5t97.5 -174.5t32 -265t-32 -265.5t-97.5 -174.5t-156 -94t-216.5 -29q-127 0 -217.5 29t-155.5 94t-96.5 174t-31.5 266zM256 1245q0 230 199 230q48 0 91 -17.5t69 -39t58 -39t60 -17.5 q43 0 62 24.5t22 81.5h121q0 -113 -48 -171t-151 -58q-47 0 -90 17.5t-69 39t-58 39t-59 17.5q-44 0 -63 -25.5t-21 -81.5h-123zM279 543q0 -102 15 -175t41 -118.5t69 -72.5t91.5 -36.5t116.5 -9.5t116.5 9.5t91.5 36.5t69.5 72.5t41.5 118.5t15 175t-15 175t-41.5 118.5 t-69.5 72t-91.5 36t-116.5 9.5t-116.5 -9.5t-91.5 -36t-69 -72t-41 -118.5t-15 -175z" />
<glyph unicode="&#xf6;" d="M111 543q0 156 31.5 265t96.5 174.5t156 94.5t217 29t216.5 -29t156 -94.5t97.5 -174.5t32 -265t-32 -265.5t-97.5 -174.5t-156 -94t-216.5 -29q-127 0 -217.5 29t-155.5 94t-96.5 174t-31.5 266zM279 543q0 -102 15 -175t41 -118.5t69 -72.5t91.5 -36.5t116.5 -9.5 t116.5 9.5t91.5 36.5t69.5 72.5t41.5 118.5t15 175t-15 175t-41.5 118.5t-69.5 72t-91.5 36t-116.5 9.5t-116.5 -9.5t-91.5 -36t-69 -72t-41 -118.5t-15 -175zM319 1282v176h179v-176h-179zM725 1282v176h178v-176h-178z" />
<glyph unicode="&#xf7;" horiz-adv-x="1075" d="M111 573v154h854v-154h-854zM475 229v158h152v-158h-152zM475 913v158h152v-158h-152z" />
<glyph unicode="&#xf8;" d="M111 543q0 156 31.5 265t96.5 174.5t156 94.5t217 29t216.5 -29t156 -94.5t97.5 -174.5t32 -265t-32 -265.5t-97.5 -174.5t-156 -94t-216.5 -29q-127 0 -217.5 29t-155.5 94t-96.5 174t-31.5 266zM279 543q0 -211 63 -305l469 677q-71 39 -199 39q-68 0 -116.5 -9.5 t-91.5 -36t-69 -72t-41 -118.5t-15 -175zM428 164q65 -33 184 -33q68 0 116.5 9.5t91.5 36.5t69.5 72.5t41.5 118.5t15 175q0 198 -57 295z" />
<glyph unicode="&#xf9;" d="M158 305v780h164v-747q0 -116 55 -161.5t194 -45.5q168 0 322 64v890h164v-1085h-131l-23 76q-158 -96 -366 -96q-144 0 -228.5 38t-117.5 107t-33 180zM362 1563h185l178 -316h-150z" />
<glyph unicode="&#xfa;" d="M158 305v780h164v-747q0 -116 55 -161.5t194 -45.5q168 0 322 64v890h164v-1085h-131l-23 76q-158 -96 -366 -96q-144 0 -228.5 38t-117.5 107t-33 180zM502 1247l178 316h184l-213 -316h-149z" />
<glyph unicode="&#xfb;" d="M158 305v780h164v-747q0 -116 55 -161.5t194 -45.5q168 0 322 64v890h164v-1085h-131l-23 76q-158 -96 -366 -96q-144 0 -228.5 38t-117.5 107t-33 180zM254 1247l274 316h160l273 -316h-179l-174 211l-176 -211h-178z" />
<glyph unicode="&#xfc;" d="M158 305v780h164v-747q0 -116 55 -161.5t194 -45.5q168 0 322 64v890h164v-1085h-131l-23 76q-158 -96 -366 -96q-144 0 -228.5 38t-117.5 107t-33 180zM315 1282v176h179v-176h-179zM721 1282v176h178v-176h-178z" />
<glyph unicode="&#xfd;" horiz-adv-x="1079" d="M35 1085h172l336 -901l323 901h178l-354 -917q-73 -187 -190.5 -333.5t-317.5 -264.5l-78 125q259 180 349 336zM432 1247l178 316h185l-213 -316h-150z" />
<glyph unicode="&#xfe;" horiz-adv-x="1239" d="M166 -410v1885h164v-461q141 92 323 92q116 0 201 -28t148 -92t94.5 -174t31.5 -269q0 -301 -116.5 -432t-358.5 -131q-191 0 -323 59v-449h-164zM330 172q108 -41 278 -41q103 0 171.5 23.5t108.5 76t56.5 127t16.5 185.5q0 222 -76 317.5t-277 95.5q-161 0 -278 -55 v-729z" />
<glyph unicode="&#xff;" horiz-adv-x="1079" d="M35 1085h172l336 -901l323 901h178l-354 -917q-73 -187 -190.5 -333.5t-317.5 -264.5l-78 125q259 180 349 336zM248 1282v176h178v-176h-178zM653 1282v176h178v-176h-178z" />
<glyph unicode="&#x100;" horiz-adv-x="1329" d="M27 0l538 1393h197l541 -1393h-179l-141 371h-639l-141 -371h-176zM379 1618v133h571v-133h-571zM399 518h529l-264 696z" />
<glyph unicode="&#x101;" horiz-adv-x="1140" d="M94 319q0 92 26 155t79 97t120 48t162 14q178 0 338 -49v182q0 106 -75 149t-232 43q-159 0 -317 -47v152q158 43 333 43q108 0 187 -15.5t141.5 -52.5t94.5 -104t32 -164v-770h-125l-24 78q-132 -98 -363 -98q-200 0 -288.5 79t-88.5 260zM262 317q0 -113 58 -153.5 t217 -40.5q150 0 282 47v297q-145 27 -276 27q-161 0 -221 -36.5t-60 -140.5zM283 1311v133h571v-133h-571z" />
<glyph unicode="&#x102;" horiz-adv-x="1329" d="M27 0l538 1393h197l541 -1393h-179l-141 371h-639l-141 -371h-176zM350 1831h135q4 -86 49 -120t132 -34t131.5 34t48.5 120h133q-3 -146 -79 -206t-234 -60t-235 60t-81 206zM399 518h529l-264 696z" />
<glyph unicode="&#x103;" horiz-adv-x="1140" d="M94 319q0 92 26 155t79 97t120 48t162 14q178 0 338 -49v182q0 106 -75 149t-232 43q-159 0 -317 -47v152q158 43 333 43q108 0 187 -15.5t141.5 -52.5t94.5 -104t32 -164v-770h-125l-24 78q-132 -98 -363 -98q-200 0 -288.5 79t-88.5 260zM262 317q0 -113 58 -153.5 t217 -40.5q150 0 282 47v297q-145 27 -276 27q-161 0 -221 -36.5t-60 -140.5zM264 1524h135q4 -86 49 -120t132 -34t131.5 34t48.5 120h133q-3 -146 -79 -206.5t-234 -60.5t-235 60.5t-81 206.5z" />
<glyph unicode="&#x104;" horiz-adv-x="1329" d="M27 0l538 1393h197l541 -1393q-112 -98 -149.5 -149t-37.5 -93q0 -30 19 -43.5t59 -13.5q51 0 109 12v-127q-66 -16 -134 -16q-198 0 -198 156q0 68 41.5 127t144.5 147h-33l-141 371h-639l-141 -371h-176zM399 518h531l-266 696z" />
<glyph unicode="&#x105;" horiz-adv-x="1140" d="M94 319q0 91 26 152.5t79 95.5t120.5 48t161.5 14q182 0 338 -49v186q0 106 -75 149t-232 43q-156 0 -317 -45v150q158 43 333 43q107 0 186.5 -16t142 -53t94.5 -103t32 -160v-774q-111 -98 -148.5 -148.5t-37.5 -93.5q0 -30 18.5 -43.5t58.5 -13.5q51 0 109 12v-127 q-66 -16 -133 -16q-111 0 -155 45t-44 111q0 69 43.5 128.5t161.5 159.5l-20 64q-134 -98 -365 -98q-200 0 -288.5 79t-88.5 260zM264 317q0 -115 57 -155.5t216 -40.5q150 0 282 47v303q-142 27 -276 27q-160 0 -219.5 -37t-59.5 -144z" />
<glyph unicode="&#x106;" horiz-adv-x="1181" d="M109 696q0 154 19 268.5t61 201.5t110.5 140.5t166 80t230.5 26.5q219 0 387 -53v-162q-160 55 -354 55q-137 0 -221.5 -25.5t-136.5 -92.5t-71 -169.5t-19 -269.5q0 -168 19 -270.5t71 -169t136.5 -92t221.5 -25.5q191 0 354 56v-162q-168 -53 -387 -53 q-216 0 -342.5 69t-185.5 224.5t-59 422.5zM580 1554l178 316h184l-213 -316h-149z" />
<glyph unicode="&#x107;" horiz-adv-x="1058" d="M111 543q0 163 29.5 271t95 173t161 92t238.5 27q174 0 311 -49v-156q-144 53 -301 53q-107 0 -172 -16t-111 -62t-64.5 -125.5t-18.5 -207.5q0 -103 12.5 -173.5t38 -118t70.5 -73.5t102.5 -36.5t142.5 -10.5q157 0 301 53v-155q-137 -49 -311 -49q-143 0 -238.5 27 t-161 92t-95 173t-29.5 271zM506 1247l178 316h184l-213 -316h-149z" />
<glyph unicode="&#x108;" horiz-adv-x="1181" d="M109 696q0 154 19 268.5t61 201.5t110.5 140.5t166 80t230.5 26.5q219 0 387 -53v-162q-160 55 -354 55q-137 0 -221.5 -25.5t-136.5 -92.5t-71 -169.5t-19 -269.5q0 -168 19 -270.5t71 -169t136.5 -92t221.5 -25.5q191 0 354 56v-162q-168 -53 -387 -53 q-216 0 -342.5 69t-185.5 224.5t-59 422.5zM315 1554l275 316h160l272 -316h-178l-174 211l-176 -211h-179z" />
<glyph unicode="&#x109;" horiz-adv-x="1058" d="M111 543q0 163 29.5 271t95 173t161 92t238.5 27q174 0 311 -49v-156q-144 53 -301 53q-107 0 -172 -16t-111 -62t-64.5 -125.5t-18.5 -207.5q0 -103 12.5 -173.5t38 -118t70.5 -73.5t102.5 -36.5t142.5 -10.5q157 0 301 53v-155q-137 -49 -311 -49q-143 0 -238.5 27 t-161 92t-95 173t-29.5 271zM223 1247l275 316h159l273 -316h-178l-174 211l-177 -211h-178z" />
<glyph unicode="&#x10a;" horiz-adv-x="1181" d="M109 696q0 154 19 268.5t61 201.5t110.5 140.5t166 80t230.5 26.5q219 0 387 -53v-162q-160 55 -354 55q-137 0 -221.5 -25.5t-136.5 -92.5t-71 -169.5t-19 -269.5q0 -168 19 -270.5t71 -169t136.5 -92t221.5 -25.5q191 0 354 56v-162q-168 -53 -387 -53 q-216 0 -342.5 69t-185.5 224.5t-59 422.5zM594 1589v176h192v-176h-192z" />
<glyph unicode="&#x10b;" horiz-adv-x="1058" d="M111 543q0 163 29.5 271t95 173t161 92t238.5 27q174 0 311 -49v-156q-144 53 -301 53q-107 0 -172 -16t-111 -62t-64.5 -125.5t-18.5 -207.5q0 -103 12.5 -173.5t38 -118t70.5 -73.5t102.5 -36.5t142.5 -10.5q157 0 301 53v-155q-137 -49 -311 -49q-143 0 -238.5 27 t-161 92t-95 173t-29.5 271zM498 1282v176h192v-176h-192z" />
<glyph unicode="&#x10c;" horiz-adv-x="1181" d="M109 696q0 154 19 268.5t61 201.5t110.5 140.5t166 80t230.5 26.5q219 0 387 -53v-162q-160 55 -354 55q-137 0 -221.5 -25.5t-136.5 -92.5t-71 -169.5t-19 -269.5q0 -168 19 -270.5t71 -169t136.5 -92t221.5 -25.5q191 0 354 56v-162q-168 -53 -387 -53 q-216 0 -342.5 69t-185.5 224.5t-59 422.5zM350 1870h178l177 -211l174 211h178l-273 -316h-159z" />
<glyph unicode="&#x10d;" horiz-adv-x="1058" d="M111 543q0 163 29.5 271t95 173t161 92t238.5 27q174 0 311 -49v-156q-144 53 -301 53q-107 0 -172 -16t-111 -62t-64.5 -125.5t-18.5 -207.5q0 -103 12.5 -173.5t38 -118t70.5 -73.5t102.5 -36.5t142.5 -10.5q157 0 301 53v-155q-137 -49 -311 -49q-143 0 -238.5 27 t-161 92t-95 173t-29.5 271zM233 1563h179l176 -211l174 211h178l-272 -316h-160z" />
<glyph unicode="&#x10e;" horiz-adv-x="1351" d="M184 0v1393h455q129 0 224 -21t169 -69.5t119.5 -129t68.5 -197t23 -276.5q0 -197 -36 -331.5t-113.5 -216t-188.5 -117t-270 -35.5h-451zM295 1870h178l176 -211l174 211h178l-272 -316h-160zM352 156h262q133 0 219.5 28.5t140 95.5t75.5 167t22 253q0 162 -20 263 t-72 164t-131 86.5t-207 23.5h-289v-1081z" />
<glyph unicode="&#x10f;" horiz-adv-x="1318" d="M111 543q0 299 117.5 431t357.5 132q195 0 323 -82v451h164v-1475h-129l-26 78q-144 -98 -332 -98q-115 0 -200 28.5t-148 93t-95 174.5t-32 267zM279 543q0 -111 16.5 -185.5t56 -127.5t108 -77t171.5 -24q161 0 278 55v717q-113 53 -278 53q-103 0 -171.5 -23.5 t-108.5 -76t-56 -126.5t-16 -185zM1206 1106l37 369h154l-64 -369h-127z" />
<glyph unicode="&#x110;" horiz-adv-x="1351" d="M51 637v117h133v639h455q129 0 224 -21t169 -69.5t119.5 -129t68.5 -197t23 -276.5q0 -197 -36 -331.5t-113.5 -216t-188.5 -117t-270 -35.5h-451v637h-133zM352 156h262q133 0 219.5 28.5t140 95.5t75.5 167t22 253q0 162 -20 263t-72 164t-131 86.5t-207 23.5h-289 v-483h379v-117h-379v-481z" />
<glyph unicode="&#x111;" horiz-adv-x="1239" d="M111 543q0 299 117.5 431t357.5 132q195 0 323 -82v207h-362v117h362v127h164v-127h154v-117h-154v-1231h-129l-26 78q-144 -98 -332 -98q-115 0 -200 28.5t-148 93t-95 174.5t-32 267zM279 543q0 -111 16.5 -185.5t56 -127.5t108 -77t171.5 -24q161 0 278 55v717 q-113 53 -278 53q-103 0 -171.5 -23.5t-108.5 -76t-56 -126.5t-16 -185z" />
<glyph unicode="&#x112;" horiz-adv-x="1212" d="M184 0v1393h889v-156h-721v-453h690v-151h-690v-477h748l-39 -156h-877zM354 1618v133h572v-133h-572z" />
<glyph unicode="&#x113;" horiz-adv-x="1148" d="M111 543q0 289 111 426t366 137q243 0 347.5 -120t104.5 -400q0 -22 -6 -103h-760q4 -204 82 -280t273 -76q198 0 348 59v-151q-140 -55 -363 -55q-137 0 -229.5 27.5t-155 93t-90.5 173t-28 269.5zM274 621h603q-2 188 -63.5 265t-225.5 77t-235 -81.5t-79 -260.5z M289 1311v133h571v-133h-571z" />
<glyph unicode="&#x114;" horiz-adv-x="1212" d="M184 0v1393h889v-156h-721v-453h690v-151h-690v-477h748l-39 -156h-877zM328 1831h135q4 -86 48.5 -120t131.5 -34t131.5 34t48.5 120h133q-3 -146 -79 -206t-234 -60t-234.5 60t-80.5 206z" />
<glyph unicode="&#x115;" horiz-adv-x="1148" d="M111 543q0 289 111 426t366 137q243 0 347.5 -120t104.5 -400q0 -22 -6 -103h-760q4 -204 82 -280t273 -76q198 0 348 59v-151q-140 -55 -363 -55q-137 0 -229.5 27.5t-155 93t-90.5 173t-28 269.5zM266 1524h135q4 -86 49 -120t132 -34t131.5 34t48.5 120h133 q-3 -146 -79 -206.5t-234 -60.5t-235 60.5t-81 206.5zM274 621h603q-2 188 -63.5 265t-225.5 77t-235 -81.5t-79 -260.5z" />
<glyph unicode="&#x116;" horiz-adv-x="1212" d="M184 0v1393h889v-156h-721v-453h690v-151h-690v-477h748l-39 -156h-877zM547 1589v176h192v-176h-192z" />
<glyph unicode="&#x117;" horiz-adv-x="1148" d="M111 543q0 289 111 426t366 137q243 0 347.5 -120t104.5 -400q0 -22 -6 -103h-760q4 -204 82 -280t273 -76q198 0 348 59v-151q-140 -55 -363 -55q-137 0 -229.5 27.5t-155 93t-90.5 173t-28 269.5zM274 621h603q-2 188 -63.5 265t-225.5 77t-235 -81.5t-79 -260.5z M479 1282v176h193v-176h-193z" />
<glyph unicode="&#x118;" horiz-adv-x="1212" d="M184 0v1393h889v-156h-721v-453h690v-151h-690v-477h748l-39 -156q-113 -98 -151 -149t-38 -93q0 -30 19 -43.5t61 -13.5q51 0 109 12v-127q-70 -16 -135 -16q-111 0 -155 45t-44 111q0 68 41 126t145 148h-729z" />
<glyph unicode="&#x119;" horiz-adv-x="1148" d="M111 543q0 290 111 426.5t366 136.5q243 0 346.5 -120t103.5 -400q0 -55 -4 -101h-760q3 -206 80.5 -282t274.5 -76q199 0 346 59v-137l-47 -31q-103 -68 -156 -136.5t-53 -117.5q0 -35 19 -49t61 -14q48 0 106 12v-127q-66 -16 -133 -16q-59 0 -100 14t-61.5 38.5 t-29 50.5t-8.5 57q0 71 39 131.5t121 128.5q-48 -10 -119 -10q-137 0 -229.5 27.5t-155 93t-90.5 173t-28 269.5zM274 614h603q-2 192 -63.5 270.5t-225.5 78.5t-235 -82.5t-79 -266.5z" />
<glyph unicode="&#x11a;" horiz-adv-x="1212" d="M184 0v1393h889v-156h-721v-453h690v-151h-690v-477h748l-39 -156h-877zM291 1870h178l176 -211l174 211h178l-272 -316h-160z" />
<glyph unicode="&#x11b;" horiz-adv-x="1148" d="M111 543q0 289 111 426t366 137q243 0 347.5 -120t104.5 -400q0 -22 -6 -103h-760q4 -204 82 -280t273 -76q198 0 348 59v-151q-140 -55 -363 -55q-137 0 -229.5 27.5t-155 93t-90.5 173t-28 269.5zM221 1563h178l176 -211l175 211h178l-273 -316h-159zM274 621h603 q-2 188 -63.5 265t-225.5 77t-235 -81.5t-79 -260.5z" />
<glyph unicode="&#x11c;" horiz-adv-x="1331" d="M109 694q0 148 16 258.5t51.5 191t85 132t124.5 82.5t162 43t206 12q200 0 385 -49v-162q-189 51 -373 51q-70 0 -120.5 -3.5t-101 -14t-84.5 -28.5t-66 -47t-51.5 -70t-34 -98.5t-21 -130.5t-6.5 -167t5.5 -167.5t20 -130.5t32.5 -97.5t48.5 -69.5t63.5 -46.5t82 -27 t98 -13t119 -3.5q177 0 292 37v531l164 47v-703q-207 -71 -452 -71q-118 0 -203.5 11.5t-161.5 41t-125.5 81t-86 130.5t-52.5 190t-16 260zM369 1554l274 316h160l272 -316h-178l-174 211l-176 -211h-178z" />
<glyph unicode="&#x11d;" horiz-adv-x="1239" d="M111 551q0 294 116.5 424.5t356.5 130.5q194 0 327 -88v67h162v-1056q0 -204 -123.5 -303.5t-427.5 -137.5q-127 -14 -293 -18v154q348 10 508 63q90 29 133 79.5t43 127.5v59q-138 -57 -327 -57q-108 0 -191.5 28.5t-149 91t-100 172.5t-34.5 263zM262 1247l275 316h159 l273 -316h-178l-175 211l-176 -211h-178zM279 551q0 -103 16.5 -175.5t56 -126.5t108.5 -80t171 -26q135 0 278 33v725q-116 53 -278 53q-104 0 -172.5 -23.5t-108 -76t-55.5 -124.5t-16 -179z" />
<glyph unicode="&#x11e;" horiz-adv-x="1331" d="M109 694q0 148 16 258.5t51.5 191t85 132t124.5 82.5t162 43t206 12q200 0 385 -49v-162q-189 51 -373 51q-70 0 -120.5 -3.5t-101 -14t-84.5 -28.5t-66 -47t-51.5 -70t-34 -98.5t-21 -130.5t-6.5 -167t5.5 -167.5t20 -130.5t32.5 -97.5t48.5 -69.5t63.5 -46.5t82 -27 t98 -13t119 -3.5q177 0 292 37v531l164 47v-703q-207 -71 -452 -71q-118 0 -203.5 11.5t-161.5 41t-125.5 81t-86 130.5t-52.5 190t-16 260zM420 1831h135q4 -86 48.5 -120t131.5 -34t131.5 34t48.5 120h134q-3 -146 -79.5 -206t-234.5 -60t-234.5 60t-80.5 206z" />
<glyph unicode="&#x11f;" horiz-adv-x="1239" d="M111 551q0 294 116.5 424.5t356.5 130.5q194 0 327 -88v67h162v-1056q0 -204 -123.5 -303.5t-427.5 -137.5q-127 -14 -293 -18v154q348 10 508 63q90 29 133 79.5t43 127.5v59q-138 -57 -327 -57q-108 0 -191.5 28.5t-149 91t-100 172.5t-34.5 263zM279 551 q0 -103 16.5 -175.5t56 -126.5t108.5 -80t171 -26q135 0 278 33v725q-116 53 -278 53q-104 0 -172.5 -23.5t-108 -76t-55.5 -124.5t-16 -179zM313 1524h136q4 -86 48.5 -120t131.5 -34t131.5 34t48.5 120h133q-3 -146 -79 -206.5t-234 -60.5t-235 60.5t-81 206.5z" />
<glyph unicode="&#x120;" horiz-adv-x="1331" d="M109 694q0 148 16 258.5t51.5 191t85 132t124.5 82.5t162 43t206 12q200 0 385 -49v-162q-189 51 -373 51q-70 0 -120.5 -3.5t-101 -14t-84.5 -28.5t-66 -47t-51.5 -70t-34 -98.5t-21 -130.5t-6.5 -167t5.5 -167.5t20 -130.5t32.5 -97.5t48.5 -69.5t63.5 -46.5t82 -27 t98 -13t119 -3.5q177 0 292 37v531l164 47v-703q-207 -71 -452 -71q-118 0 -203.5 11.5t-161.5 41t-125.5 81t-86 130.5t-52.5 190t-16 260zM614 1589v176h193v-176h-193z" />
<glyph unicode="&#x121;" horiz-adv-x="1239" d="M111 551q0 294 116.5 424.5t356.5 130.5q194 0 327 -88v67h162v-1056q0 -204 -123.5 -303.5t-427.5 -137.5q-127 -14 -293 -18v154q348 10 508 63q90 29 133 79.5t43 127.5v59q-138 -57 -327 -57q-108 0 -191.5 28.5t-149 91t-100 172.5t-34.5 263zM279 551 q0 -103 16.5 -175.5t56 -126.5t108.5 -80t171 -26q135 0 278 33v725q-116 53 -278 53q-104 0 -172.5 -23.5t-108 -76t-55.5 -124.5t-16 -179zM520 1282v176h193v-176h-193z" />
<glyph unicode="&#x122;" horiz-adv-x="1331" d="M109 694q0 148 16 258.5t51.5 191t85 132t124.5 82.5t162 43t206 12q200 0 385 -49v-162q-189 51 -373 51q-70 0 -120.5 -3.5t-101 -14t-84.5 -28.5t-66 -47t-51.5 -70t-34 -98.5t-21 -130.5t-6.5 -167t5.5 -167.5t20 -130.5t32.5 -97.5t48.5 -69.5t63.5 -46.5t82 -27 t98 -13t119 -3.5q177 0 292 37v531l164 47v-703q-207 -71 -452 -71q-118 0 -203.5 11.5t-161.5 41t-125.5 81t-86 130.5t-52.5 190t-16 260zM565 -410l99 308h178l-125 -308h-152z" />
<glyph unicode="&#x123;" horiz-adv-x="1239" d="M111 551q0 294 116.5 424.5t356.5 130.5q194 0 327 -88v67h162v-1056q0 -204 -123.5 -303.5t-427.5 -137.5q-127 -14 -293 -18v154q348 10 508 63q90 29 133 79.5t43 127.5v59q-138 -57 -327 -57q-108 0 -191.5 28.5t-149 91t-100 172.5t-34.5 263zM279 551 q0 -103 16.5 -175.5t56 -126.5t108.5 -80t171 -26q135 0 278 33v725q-116 53 -278 53q-104 0 -172.5 -23.5t-108 -76t-55.5 -124.5t-16 -179zM512 1239l127 301h127l-72 -301h-182z" />
<glyph unicode="&#x124;" horiz-adv-x="1435" d="M184 0v1393h168v-605h731v605h168v-1393h-168v633h-731v-633h-168zM365 1554l274 316h160l272 -316h-178l-174 211l-176 -211h-178z" />
<glyph unicode="&#x125;" horiz-adv-x="1230" d="M166 0v1475h164v-459q60 35 155.5 62.5t210.5 27.5q109 0 183 -20.5t116.5 -63.5t60 -101t17.5 -141v-780h-164v748q0 116 -56 161t-198 45q-195 0 -325 -61v-893h-164zM268 1616l275 315h159l273 -315h-178l-174 211l-177 -211h-178z" />
<glyph unicode="&#x126;" horiz-adv-x="1435" d="M68 1051v120h116v222h168v-222h731v222h168v-222h117v-120h-117v-1051h-168v633h-731v-633h-168v1051h-116zM352 788h731v263h-731v-263z" />
<glyph unicode="&#x127;" horiz-adv-x="1230" d="M4 1233v117h162v125h164v-125h354v-117h-354v-217q60 35 155.5 62.5t210.5 27.5q109 0 183 -20.5t116.5 -63.5t60 -101t17.5 -141v-780h-164v748q0 116 -56 161t-198 45q-195 0 -325 -61v-893h-164v1233h-162z" />
<glyph unicode="&#x128;" horiz-adv-x="536" d="M-74 1548q0 230 199 230q48 0 91 -17.5t69 -39t58 -39t60 -17.5q43 0 62 25t22 82h121q0 -114 -47.5 -172t-150.5 -58q-47 0 -90 17.5t-69.5 39t-58.5 39t-59 17.5q-44 0 -63 -25.5t-21 -81.5h-123zM184 0v1393h168v-1393h-168z" />
<glyph unicode="&#x129;" horiz-adv-x="489" d="M-96 1245q0 230 198 230q48 0 91 -17.5t69.5 -39t58.5 -39t60 -17.5q43 0 62 24.5t22 81.5h121q0 -113 -48 -171t-151 -58q-47 0 -90 17.5t-69 39t-58 39t-59 17.5q-44 0 -63 -25.5t-21 -81.5h-123zM164 0v1085h164v-1085h-164z" />
<glyph unicode="&#x12a;" horiz-adv-x="536" d="M-18 1618v133h571v-133h-571zM184 0v1393h168v-1393h-168z" />
<glyph unicode="&#x12b;" horiz-adv-x="489" d="M-41 1311v133h571v-133h-571zM164 0v1085h164v-1085h-164z" />
<glyph unicode="&#x12c;" horiz-adv-x="536" d="M-47 1831h135q4 -86 48.5 -120t131.5 -34t132 34t49 120h133q-3 -146 -79.5 -206t-234.5 -60t-234.5 60t-80.5 206zM184 0v1393h168v-1393h-168z" />
<glyph unicode="&#x12d;" horiz-adv-x="489" d="M-70 1524h136q4 -86 48.5 -120t131.5 -34t131.5 34t48.5 120h133q-3 -146 -79 -206.5t-234 -60.5t-235 60.5t-81 206.5zM164 0v1085h164v-1085h-164z" />
<glyph unicode="&#x12e;" horiz-adv-x="536" d="M20 -274q0 68 40.5 125.5t144.5 148.5h-21v1393h168v-1393q-113 -98 -150.5 -148.5t-37.5 -93.5q0 -30 19 -43.5t61 -13.5q50 0 108 12v-127q-70 -16 -135 -16q-197 0 -197 156z" />
<glyph unicode="&#x12f;" horiz-adv-x="487" d="M-6 -274q0 68 40.5 125.5t143.5 148.5h-16v1085h164v-1085q-112 -98 -149.5 -149t-37.5 -93q0 -30 19 -43.5t59 -13.5q51 0 109 12v-127q-70 -16 -133 -16q-111 0 -155 45t-44 111zM147 1282v176h193v-176h-193z" />
<glyph unicode="&#x130;" horiz-adv-x="536" d="M172 1589v176h193v-176h-193zM184 0v1393h168v-1393h-168z" />
<glyph unicode="&#x131;" horiz-adv-x="493" d="M166 0v1085h164v-1085h-164z" />
<glyph unicode="&#x134;" horiz-adv-x="1042" d="M94 27v163q137 -51 312 -51q55 0 95 4t83.5 17.5t71 37t45.5 66t18 101.5v872h-598l45 156h721v-1035q0 -112 -35 -188.5t-102 -117t-146 -56.5t-186 -16q-201 0 -324 47zM152 1554l274 316h160l272 -316h-178l-174 211l-176 -211h-178z" />
<glyph unicode="&#x135;" horiz-adv-x="489" d="M-104 1247l274 316h160l272 -316h-178l-174 211l-176 -211h-178zM-84 -326q104 125 154.5 208t74 170t23.5 208v825h164v-839q0 -131 -21.5 -221t-83.5 -195.5t-188 -259.5z" />
<glyph unicode="&#x136;" horiz-adv-x="1234" d="M184 0v1393h168v-670l629 670h217l-655 -682l692 -711h-225l-658 694v-694h-168zM465 -410l98 308h178l-125 -308h-151z" />
<glyph unicode="&#x137;" horiz-adv-x="1075" d="M166 0v1475h164v-895l485 505h211l-504 -516l541 -569h-213l-520 559v-559h-164zM399 -410l99 308h178l-125 -308h-152z" />
<glyph unicode="&#x138;" horiz-adv-x="1075" d="M166 0v1085h164v-505l485 505h211l-504 -516l541 -569h-213l-520 559v-559h-164z" />
<glyph unicode="&#x139;" horiz-adv-x="1099" d="M184 0v1393h168v-1235h705l-35 -158h-838zM190 1554l179 316h184l-213 -316h-150z" />
<glyph unicode="&#x13a;" horiz-adv-x="493" d="M182 1616l178 315h185l-213 -315h-150zM190 0v1475h164v-1475h-164z" />
<glyph unicode="&#x13b;" horiz-adv-x="1099" d="M184 0v1393h168v-1235h705l-35 -158h-838zM453 -410l98 308h178l-125 -308h-151z" />
<glyph unicode="&#x13c;" horiz-adv-x="493" d="M35 -410l98 308h178l-125 -308h-151zM145 0v1475h164v-1475h-164z" />
<glyph unicode="&#x13d;" horiz-adv-x="1099" d="M184 0v1393h168v-1235h705l-35 -158h-838zM535 963l94 430h174l-127 -430h-141z" />
<glyph unicode="&#x13e;" horiz-adv-x="612" d="M166 0v1475h164v-1475h-164zM434 1106l37 369h154l-64 -369h-127z" />
<glyph unicode="&#x13f;" horiz-adv-x="1099" d="M184 0v1393h168v-1235h705l-35 -158h-838zM614 518v199h191v-199h-191z" />
<glyph unicode="&#x140;" horiz-adv-x="671" d="M166 0v1475h164v-1475h-164zM449 596v199h190v-199h-190z" />
<glyph unicode="&#x141;" horiz-adv-x="1099" d="M68 563v137l116 39v654h168v-600l471 153v-137l-471 -154v-497h705l-35 -158h-838v602z" />
<glyph unicode="&#x142;" horiz-adv-x="589" d="M39 723v156l170 71v525h164v-457l178 74v-156l-178 -74v-862h-164v795z" />
<glyph unicode="&#x143;" horiz-adv-x="1449" d="M184 0v1393h138l776 -1096v1096h168v-1393h-142l-772 1087v-1087h-168zM618 1554l179 316h184l-213 -316h-150z" />
<glyph unicode="&#x144;" horiz-adv-x="1230" d="M166 0v1085h158v-73q57 35 155 64.5t217 29.5q109 0 183 -20.5t116.5 -63.5t60 -101t17.5 -141v-780h-164v748q0 116 -56 161t-198 45q-195 0 -325 -61v-893h-164zM535 1247l178 316h184l-213 -316h-149z" />
<glyph unicode="&#x145;" horiz-adv-x="1449" d="M184 0v1393h138l776 -1096v1096h168v-1393h-142l-772 1087v-1087h-168zM549 -410l98 308h178l-125 -308h-151z" />
<glyph unicode="&#x146;" horiz-adv-x="1230" d="M166 0v1085h158v-73q57 35 155 64.5t217 29.5q109 0 183 -20.5t116.5 -63.5t60 -101t17.5 -141v-780h-164v748q0 116 -56 161t-198 45q-195 0 -325 -61v-893h-164zM465 -410l98 308h178l-125 -308h-151z" />
<glyph unicode="&#x147;" horiz-adv-x="1449" d="M184 0v1393h138l776 -1096v1096h168v-1393h-142l-772 1087v-1087h-168zM375 1870h178l176 -211l174 211h178l-272 -316h-160z" />
<glyph unicode="&#x148;" horiz-adv-x="1230" d="M166 0v1085h158v-73q57 35 155 64.5t217 29.5q109 0 183 -20.5t116.5 -63.5t60 -101t17.5 -141v-780h-164v748q0 116 -56 161t-198 45q-195 0 -325 -61v-893h-164zM279 1563h178l176 -211l174 211h178l-272 -316h-160z" />
<glyph unicode="&#x149;" horiz-adv-x="1273" d="M98 1167l37 369h154l-64 -369h-127zM209 0v1085h158v-73q57 35 155 64.5t217 29.5q109 0 183 -20.5t116.5 -63.5t60 -101t17.5 -141v-780h-164v748q0 116 -56 161t-198 45q-195 0 -325 -61v-893h-164z" />
<glyph unicode="&#x14a;" horiz-adv-x="1449" d="M184 0v1393h138l776 -1096v1096h168v-1442q0 -76 -25 -136t-66 -99.5t-105 -69t-130 -46.5t-154 -30v158q42 10 64 15t60.5 17t60 22.5t49.5 28.5t42.5 37.5t25 47.5t10.5 61v84l-746 1046v-1087h-168z" />
<glyph unicode="&#x14b;" horiz-adv-x="1230" d="M166 0v1085h158v-73q57 35 155 64.5t217 29.5q109 0 183 -20.5t116.5 -63.5t60 -101t17.5 -141v-780q0 -53 -3.5 -91t-17 -75t-27 -61.5t-45.5 -61t-60.5 -63.5t-83.5 -78l-109 113q41 36 54 48t40.5 39.5t35 40.5t22.5 37.5t18.5 46t7.5 51t4 66.5v736q0 116 -56 161 t-198 45q-195 0 -325 -61v-893h-164z" />
<glyph unicode="&#x14c;" horiz-adv-x="1363" d="M109 694q0 204 29 338.5t98 221t176.5 123t269.5 36.5q108 0 190.5 -16t147 -52t108 -91t72 -136t41 -184.5t12.5 -239.5q0 -269 -54.5 -422.5t-177.5 -222.5t-339 -69t-339.5 69t-178.5 222.5t-55 422.5zM281 694q0 -131 13 -223t40.5 -157.5t75.5 -103t113.5 -54.5 t158.5 -17q117 0 191 25.5t122 91t67 170t19 268.5q0 111 -7.5 191.5t-26.5 145t-48 105.5t-74.5 68t-104 38t-138.5 11t-138.5 -11t-104.5 -38t-75 -68t-48 -105t-27 -145t-8 -192zM395 1618v133h572v-133h-572z" />
<glyph unicode="&#x14d;" d="M111 543q0 156 31.5 265t96.5 174.5t156 94.5t217 29t216.5 -29t156 -94.5t97.5 -174.5t32 -265t-32 -265.5t-97.5 -174.5t-156 -94t-216.5 -29q-127 0 -217.5 29t-155.5 94t-96.5 174t-31.5 266zM279 543q0 -102 15 -175t41 -118.5t69 -72.5t91.5 -36.5t116.5 -9.5 t116.5 9.5t91.5 36.5t69.5 72.5t41.5 118.5t15 175t-15 175t-41.5 118.5t-69.5 72t-91.5 36t-116.5 9.5t-116.5 -9.5t-91.5 -36t-69 -72t-41 -118.5t-15 -175zM326 1311v133h571v-133h-571z" />
<glyph unicode="&#x14e;" horiz-adv-x="1363" d="M109 694q0 204 29 338.5t98 221t176.5 123t269.5 36.5q108 0 190.5 -16t147 -52t108 -91t72 -136t41 -184.5t12.5 -239.5q0 -269 -54.5 -422.5t-177.5 -222.5t-339 -69t-339.5 69t-178.5 222.5t-55 422.5zM281 694q0 -131 13 -223t40.5 -157.5t75.5 -103t113.5 -54.5 t158.5 -17q117 0 191 25.5t122 91t67 170t19 268.5q0 111 -7.5 191.5t-26.5 145t-48 105.5t-74.5 68t-104 38t-138.5 11t-138.5 -11t-104.5 -38t-75 -68t-48 -105t-27 -145t-8 -192zM367 1831h135q4 -86 48.5 -120t131.5 -34t131.5 34t48.5 120h133q-3 -146 -79 -206 t-234 -60t-234.5 60t-80.5 206z" />
<glyph unicode="&#x14f;" d="M111 543q0 156 31.5 265t96.5 174.5t156 94.5t217 29t216.5 -29t156 -94.5t97.5 -174.5t32 -265t-32 -265.5t-97.5 -174.5t-156 -94t-216.5 -29q-127 0 -217.5 29t-155.5 94t-96.5 174t-31.5 266zM279 543q0 -102 15 -175t41 -118.5t69 -72.5t91.5 -36.5t116.5 -9.5 t116.5 9.5t91.5 36.5t69.5 72.5t41.5 118.5t15 175t-15 175t-41.5 118.5t-69.5 72t-91.5 36t-116.5 9.5t-116.5 -9.5t-91.5 -36t-69 -72t-41 -118.5t-15 -175zM297 1524h135q4 -86 48.5 -120t131.5 -34t132 34t49 120h133q-3 -146 -79.5 -206.5t-234.5 -60.5t-234.5 60.5 t-80.5 206.5z" />
<glyph unicode="&#x150;" horiz-adv-x="1363" d="M109 694q0 204 29 338.5t98 221t176.5 123t269.5 36.5q108 0 190.5 -16t147 -52t108 -91t72 -136t41 -184.5t12.5 -239.5q0 -269 -54.5 -422.5t-177.5 -222.5t-339 -69t-339.5 69t-178.5 222.5t-55 422.5zM281 694q0 -131 13 -223t40.5 -157.5t75.5 -103t113.5 -54.5 t158.5 -17q117 0 191 25.5t122 91t67 170t19 268.5q0 111 -7.5 191.5t-26.5 145t-48 105.5t-74.5 68t-104 38t-138.5 11t-138.5 -11t-104.5 -38t-75 -68t-48 -105t-27 -145t-8 -192zM451 1554l178 316h184l-213 -316h-149zM729 1554l178 316h185l-213 -316h-150z" />
<glyph unicode="&#x151;" d="M111 543q0 156 31.5 265t96.5 174.5t156 94.5t217 29t216.5 -29t156 -94.5t97.5 -174.5t32 -265t-32 -265.5t-97.5 -174.5t-156 -94t-216.5 -29q-127 0 -217.5 29t-155.5 94t-96.5 174t-31.5 266zM279 543q0 -102 15 -175t41 -118.5t69 -72.5t91.5 -36.5t116.5 -9.5 t116.5 9.5t91.5 36.5t69.5 72.5t41.5 118.5t15 175t-15 175t-41.5 118.5t-69.5 72t-91.5 36t-116.5 9.5t-116.5 -9.5t-91.5 -36t-69 -72t-41 -118.5t-15 -175zM365 1247l178 316h184l-213 -316h-149zM643 1247l178 316h185l-213 -316h-150z" />
<glyph unicode="&#x152;" horiz-adv-x="2029" d="M109 700q0 160 23 276.5t68.5 197t119.5 129t169 69.5t224 21h1177v-156h-721v-453h691v-151h-691v-477h748l-39 -156h-1161q-159 0 -270 35.5t-188.5 117t-113.5 216t-36 331.5zM281 700q0 -153 22 -253t75 -167t139.5 -95.5t219.5 -28.5h262v1081h-288 q-128 0 -207 -23.5t-131 -86.5t-72 -164t-20 -263z" />
<glyph unicode="&#x153;" horiz-adv-x="1986" d="M111 543q0 156 31.5 265t96.5 174.5t156 94.5t217 29q156 0 256.5 -55t155.5 -185q52 125 149 182.5t252 57.5q242 0 346.5 -120.5t104.5 -399.5q0 -55 -4 -101h-760q1 -206 79 -282t275 -76q199 0 346 59v-151q-137 -55 -356 -55q-176 0 -277.5 52t-152.5 183 q-56 -126 -158.5 -180.5t-255.5 -54.5q-127 0 -217.5 29t-155.5 94t-96.5 174t-31.5 266zM276 543q0 -102 15 -175t42 -118.5t70.5 -72.5t92 -36.5t116.5 -9.5t116.5 9.5t91.5 36.5t69.5 72.5t41.5 118.5t15 175t-15 175t-41.5 118.5t-69.5 72t-91.5 36t-116.5 9.5 t-116.5 -9.5t-92 -36t-70.5 -72t-42 -118.5t-15 -175zM1112 618h602q-1 95 -14.5 158t-47 106t-88.5 62t-139 19q-164 0 -234.5 -82t-78.5 -263z" />
<glyph unicode="&#x154;" horiz-adv-x="1310" d="M184 0v1393h473q132 0 223.5 -19.5t159 -66.5t99.5 -129.5t32 -204.5q0 -186 -77.5 -280t-235.5 -124l385 -569h-194l-367 547h-330v-547h-168zM352 700h287q100 0 163 10t111.5 38.5t69.5 82t21 138.5t-21 138.5t-70 81.5t-111.5 38t-162.5 10h-287v-537zM524 1554 l178 316h185l-213 -316h-150z" />
<glyph unicode="&#x155;" horiz-adv-x="784" d="M166 0v1085h158v-118q71 46 178 85.5t235 53.5v-158q-250 -26 -407 -104v-844h-164zM344 1247l178 316h185l-213 -316h-150z" />
<glyph unicode="&#x156;" horiz-adv-x="1310" d="M184 0v1393h473q132 0 223.5 -19.5t159 -66.5t99.5 -129.5t32 -204.5q0 -186 -77.5 -280t-235.5 -124l385 -569h-194l-367 547h-330v-547h-168zM352 700h287q100 0 163 10t111.5 38.5t69.5 82t21 138.5t-21 138.5t-70 81.5t-111.5 38t-162.5 10h-287v-537zM485 -410 l99 308h178l-125 -308h-152z" />
<glyph unicode="&#x157;" horiz-adv-x="784" d="M66 -410l98 308h178l-125 -308h-151zM162 0v1085h157v-118q70 46 178 85.5t236 53.5v-158q-250 -26 -407 -104v-844h-164z" />
<glyph unicode="&#x158;" horiz-adv-x="1310" d="M184 0v1393h473q132 0 223.5 -19.5t159 -66.5t99.5 -129.5t32 -204.5q0 -186 -77.5 -280t-235.5 -124l385 -569h-194l-367 547h-330v-547h-168zM281 1870h178l176 -211l174 211h178l-272 -316h-160zM352 700h287q100 0 163 10t111.5 38.5t69.5 82t21 138.5t-21 138.5 t-70 81.5t-111.5 38t-162.5 10h-287v-537z" />
<glyph unicode="&#x159;" horiz-adv-x="784" d="M117 1563h178l176 -211l174 211h178l-272 -316h-160zM166 0v1085h158v-118q71 46 178 85.5t235 53.5v-158q-250 -26 -407 -104v-844h-164z" />
<glyph unicode="&#x15a;" horiz-adv-x="1153" d="M100 1063q0 193 116.5 271.5t387.5 78.5q235 0 391 -55v-160q-154 59 -389 59q-192 0 -263 -41t-71 -157q0 -84 49 -124.5t179 -90.5l270 -107q160 -62 221.5 -142.5t61.5 -232.5q0 -90 -24.5 -157t-80.5 -119t-155.5 -79t-241.5 -27q-273 0 -438 61v166q200 -72 438 -72 q179 0 254.5 56.5t75.5 162.5q0 97 -38.5 147t-148.5 93l-293 115q-78 31 -127.5 58.5t-92 68t-62 96t-19.5 131.5zM481 1554l178 316h185l-213 -316h-150z" />
<glyph unicode="&#x15b;" horiz-adv-x="1028" d="M111 821q0 158 99 221.5t320 63.5q185 0 338 -45v-158q-167 55 -340 55q-151 0 -202.5 -29t-51.5 -112q0 -71 37 -100.5t142 -59.5l182 -55q78 -23 126.5 -45t88 -57t57 -86.5t17.5 -124.5q0 -172 -94.5 -240.5t-335.5 -68.5q-224 0 -373 61v162q181 -76 373 -76 q154 0 211 33t57 127q0 29 -5 51t-18 39t-26.5 29t-40 23.5t-48.5 18.5t-61 19l-182 55q-70 20 -114 40.5t-82.5 53.5t-56 83.5t-17.5 121.5zM387 1247l178 316h185l-213 -316h-150z" />
<glyph unicode="&#x15c;" horiz-adv-x="1153" d="M100 1063q0 193 116.5 271.5t387.5 78.5q235 0 391 -55v-160q-154 59 -389 59q-192 0 -263 -41t-71 -157q0 -84 49 -124.5t179 -90.5l270 -107q160 -62 221.5 -142.5t61.5 -232.5q0 -90 -24.5 -157t-80.5 -119t-155.5 -79t-241.5 -27q-273 0 -438 61v166q200 -72 438 -72 q179 0 254.5 56.5t75.5 162.5q0 97 -38.5 147t-148.5 93l-293 115q-78 31 -127.5 58.5t-92 68t-62 96t-19.5 131.5zM207 1554l274 316h160l272 -316h-178l-174 211l-176 -211h-178z" />
<glyph unicode="&#x15d;" horiz-adv-x="1028" d="M111 821q0 158 99 221.5t320 63.5q185 0 338 -45v-158q-167 55 -340 55q-151 0 -202.5 -29t-51.5 -112q0 -71 37 -100.5t142 -59.5l182 -55q78 -23 126.5 -45t88 -57t57 -86.5t17.5 -124.5q0 -172 -94.5 -240.5t-335.5 -68.5q-224 0 -373 61v162q181 -76 373 -76 q154 0 211 33t57 127q0 29 -5 51t-18 39t-26.5 29t-40 23.5t-48.5 18.5t-61 19l-182 55q-70 20 -114 40.5t-82.5 53.5t-56 83.5t-17.5 121.5zM133 1247l275 316h159l273 -316h-178l-175 211l-176 -211h-178z" />
<glyph unicode="&#x15e;" horiz-adv-x="1153" d="M100 1063q0 193 116.5 271.5t387.5 78.5q235 0 391 -55v-160q-154 59 -389 59q-192 0 -263 -41t-71 -157q0 -84 49 -124.5t179 -90.5l270 -107q160 -62 221.5 -142.5t61.5 -232.5q0 -85 -22 -149.5t-71.5 -116t-137 -80.5t-212.5 -34l-22 -84q109 -4 156 -43t47 -115 q0 -86 -59.5 -128t-182.5 -42q-85 0 -139 8v113q46 -8 118 -8t100.5 13.5t28.5 49.5q0 40 -41.5 53t-171.5 13l45 168q-233 9 -376 61v166q200 -72 438 -72q179 0 254.5 56.5t75.5 162.5q0 97 -38.5 147t-148.5 93l-293 115q-78 31 -127.5 58.5t-92 68t-62 96t-19.5 131.5z " />
<glyph unicode="&#x15f;" horiz-adv-x="1028" d="M111 821q0 158 99 221.5t320 63.5q185 0 338 -45v-158q-167 55 -340 55q-151 0 -202.5 -29t-51.5 -112q0 -71 37 -100.5t142 -59.5l182 -55q78 -23 126.5 -45t88 -57t57 -86.5t17.5 -124.5q0 -161 -81 -230.5t-282 -76.5l-22 -84q109 -4 155.5 -43t46.5 -115 q0 -86 -59 -128t-182 -42q-86 0 -140 8v113q46 -8 119 -8q72 0 100.5 13.5t28.5 49.5q0 40 -41.5 53t-171.5 13l45 170q-191 7 -319 59v162q181 -76 373 -76q154 0 211 33t57 127q0 29 -5 51t-18 39t-26.5 29t-40 23.5t-48.5 18.5t-61 19l-182 55q-70 20 -114 40.5 t-82.5 53.5t-56 83.5t-17.5 121.5z" />
<glyph unicode="&#x160;" horiz-adv-x="1153" d="M100 1063q0 193 116.5 271.5t387.5 78.5q235 0 391 -55v-160q-154 59 -389 59q-192 0 -263 -41t-71 -157q0 -84 49 -124.5t179 -90.5l270 -107q160 -62 221.5 -142.5t61.5 -232.5q0 -90 -24.5 -157t-80.5 -119t-155.5 -79t-241.5 -27q-273 0 -438 61v166q200 -72 438 -72 q179 0 254.5 56.5t75.5 162.5q0 97 -38.5 147t-148.5 93l-293 115q-78 31 -127.5 58.5t-92 68t-62 96t-19.5 131.5zM215 1870h178l176 -211l174 211h179l-273 -316h-160z" />
<glyph unicode="&#x161;" horiz-adv-x="1028" d="M111 821q0 158 99 221.5t320 63.5q185 0 338 -45v-158q-167 55 -340 55q-151 0 -202.5 -29t-51.5 -112q0 -71 37 -100.5t142 -59.5l182 -55q78 -23 126.5 -45t88 -57t57 -86.5t17.5 -124.5q0 -172 -94.5 -240.5t-335.5 -68.5q-224 0 -373 61v162q181 -76 373 -76 q154 0 211 33t57 127q0 29 -5 51t-18 39t-26.5 29t-40 23.5t-48.5 18.5t-61 19l-182 55q-70 20 -114 40.5t-82.5 53.5t-56 83.5t-17.5 121.5zM152 1563h178l176 -211l174 211h178l-272 -316h-160z" />
<glyph unicode="&#x162;" horiz-adv-x="1161" d="M41 1235v158h1094l-43 -158h-428v-1235l-29 -102q109 -4 156 -43t47 -115q0 -86 -59.5 -128t-182.5 -42q-87 0 -137 8v113q46 -8 119 -8q70 0 98.5 13.5t28.5 49.5q0 40 -41.5 53t-171.5 13l53 188h-49v1235h-455z" />
<glyph unicode="&#x163;" horiz-adv-x="845" d="M29 942v143h217v256l162 50v-306h358v-143h-358v-670q0 -78 42 -109.5t125 -31.5q94 0 197 35v-150q-80 -33 -192 -36l-23 -82q109 -4 156 -43t47 -115q0 -86 -59.5 -128t-182.5 -42q-85 0 -139 8v113q46 -8 119 -8q72 0 100.5 13.5t28.5 49.5q0 40 -41.5 53t-171.5 13 l47 174q-108 15 -161.5 81t-53.5 195v680h-217z" />
<glyph unicode="&#x164;" horiz-adv-x="1161" d="M41 1235v158h1094l-43 -158h-428v-1235h-168v1235h-455zM227 1870h179l176 -211l174 211h178l-272 -316h-160z" />
<glyph unicode="&#x165;" horiz-adv-x="845" d="M29 942v143h217v256l162 50v-306h358v-143h-358v-670q0 -78 42 -109.5t125 -31.5q94 0 197 35v-150q-88 -36 -223 -36q-154 0 -228.5 65t-74.5 217v680h-217zM524 1204l37 369h154l-64 -369h-127z" />
<glyph unicode="&#x166;" horiz-adv-x="1161" d="M41 1235v158h1094l-43 -158h-428v-569h258v-117h-258v-549h-168v549h-254v117h254v569h-455z" />
<glyph unicode="&#x167;" horiz-adv-x="845" d="M29 571v117h217v254h-217v143h217v256l162 50v-306h358v-143h-358v-254h364v-117h-364v-299q0 -78 42 -109.5t125 -31.5q94 0 197 35v-150q-88 -36 -223 -36q-154 0 -228.5 65t-74.5 217v309h-217z" />
<glyph unicode="&#x168;" horiz-adv-x="1353" d="M150 428v965h167v-959q0 -172 81 -233.5t280 -61.5q99 0 163.5 13t110 46t65 90t19.5 146v959h168v-965q0 -128 -30.5 -214.5t-97.5 -138t-162.5 -73.5t-235.5 -22q-141 0 -237 22t-163 74t-97.5 138t-30.5 214zM336 1552q0 230 199 230q48 0 91 -17.5t69 -39t58 -39 t60 -17.5q43 0 62 25t22 82h121q0 -230 -199 -230q-47 0 -90 17.5t-69 39t-58 39t-59 17.5q-44 0 -63 -25.5t-21 -81.5h-123z" />
<glyph unicode="&#x169;" d="M158 305v780h164v-747q0 -116 55 -161.5t194 -45.5q168 0 322 64v890h164v-1085h-131l-23 76q-158 -96 -366 -96q-144 0 -228.5 38t-117.5 107t-33 180zM266 1245q0 230 199 230q48 0 91 -17.5t69 -39t58 -39t60 -17.5q43 0 62 24.5t22 81.5h121q0 -113 -47.5 -171 t-150.5 -58q-47 0 -90 17.5t-69.5 39t-58.5 39t-59 17.5q-44 0 -63 -25.5t-21 -81.5h-123z" />
<glyph unicode="&#x16a;" horiz-adv-x="1353" d="M150 428v965h167v-959q0 -172 81 -233.5t280 -61.5q99 0 163.5 13t110 46t65 90t19.5 146v959h168v-965q0 -128 -30.5 -214.5t-97.5 -138t-162.5 -73.5t-235.5 -22q-141 0 -237 22t-163 74t-97.5 138t-30.5 214zM391 1618v133h572v-133h-572z" />
<glyph unicode="&#x16b;" d="M158 305v780h164v-747q0 -116 55 -161.5t194 -45.5q168 0 322 64v890h164v-1085h-131l-23 76q-158 -96 -366 -96q-144 0 -228.5 38t-117.5 107t-33 180zM322 1311v133h571v-133h-571z" />
<glyph unicode="&#x16c;" horiz-adv-x="1353" d="M150 428v965h167v-959q0 -172 81 -233.5t280 -61.5q99 0 163.5 13t110 46t65 90t19.5 146v959h168v-965q0 -128 -30.5 -214.5t-97.5 -138t-162.5 -73.5t-235.5 -22q-141 0 -237 22t-163 74t-97.5 138t-30.5 214zM362 1831h136q4 -86 48.5 -120t131.5 -34t131.5 34 t48.5 120h133q-3 -146 -79 -206t-234 -60t-235 60t-81 206z" />
<glyph unicode="&#x16d;" d="M158 305v780h164v-747q0 -116 55 -161.5t194 -45.5q168 0 322 64v890h164v-1085h-131l-23 76q-158 -96 -366 -96q-144 0 -228.5 38t-117.5 107t-33 180zM293 1524h135q4 -86 48.5 -120t131.5 -34t131.5 34t48.5 120h134q-3 -146 -79.5 -206.5t-234.5 -60.5t-234.5 60.5 t-80.5 206.5z" />
<glyph unicode="&#x16e;" horiz-adv-x="1353" d="M150 428v965h167v-959q0 -172 81 -233.5t280 -61.5q99 0 163.5 13t110 46t65 90t19.5 146v959h168v-965q0 -128 -30.5 -214.5t-97.5 -138t-162.5 -73.5t-235.5 -22q-141 0 -237 22t-163 74t-97.5 138t-30.5 214zM428 1745q0 105 59 158t191 53q131 0 189.5 -53t58.5 -158 q0 -103 -58.5 -156t-189.5 -53q-132 0 -191 52.5t-59 156.5zM541 1747q0 -56 29.5 -83.5t107.5 -27.5q75 0 105 28t30 83q0 56 -30 84.5t-105 28.5q-79 0 -108 -28t-29 -85z" />
<glyph unicode="&#x16f;" d="M158 305v780h164v-747q0 -116 55 -161.5t194 -45.5q168 0 322 64v890h164v-1085h-131l-23 76q-158 -96 -366 -96q-144 0 -228.5 38t-117.5 107t-33 180zM358 1438q0 105 59 158t191 53q131 0 189.5 -53t58.5 -158q0 -103 -58.5 -156t-189.5 -53q-132 0 -191 52.5 t-59 156.5zM471 1440q0 -56 29.5 -83.5t107.5 -27.5q75 0 105 28t30 83q0 56 -29.5 84t-105.5 28q-79 0 -108 -27.5t-29 -84.5z" />
<glyph unicode="&#x170;" horiz-adv-x="1353" d="M150 428v965h167v-959q0 -172 81 -233.5t280 -61.5q99 0 163.5 13t110 46t65 90t19.5 146v959h168v-965q0 -128 -30.5 -214.5t-97.5 -138t-162.5 -73.5t-235.5 -22q-141 0 -237 22t-163 74t-97.5 138t-30.5 214zM436 1554l178 316h185l-213 -316h-150zM715 1554l178 316 h184l-213 -316h-149z" />
<glyph unicode="&#x171;" d="M158 305v780h164v-747q0 -116 55 -161.5t194 -45.5q168 0 322 64v890h164v-1085h-131l-23 76q-158 -96 -366 -96q-144 0 -228.5 38t-117.5 107t-33 180zM354 1247l178 316h185l-213 -316h-150zM633 1247l178 316h184l-213 -316h-149z" />
<glyph unicode="&#x172;" horiz-adv-x="1353" d="M150 428v965h167v-959q0 -172 81 -233.5t280 -61.5q99 0 163.5 13t110 46t65 90t19.5 146v959h168v-965q0 -105 -18.5 -178.5t-58.5 -120t-85.5 -72.5t-115.5 -49q-88 -28 -152 -74.5t-90.5 -89.5t-26.5 -77q0 -36 19 -51t61 -15q51 0 109 12v-127q-70 -16 -135 -16 q-111 0 -155 45t-44 111t39 126t129 130h-21q-135 0 -228 22.5t-157.5 74.5t-94 137.5t-29.5 211.5z" />
<glyph unicode="&#x173;" d="M158 305v780h164v-747q0 -116 55 -161.5t194 -45.5q168 0 322 64v890h164v-1085q-112 -98 -149.5 -149t-37.5 -93q0 -30 19 -43.5t59 -13.5q51 0 109 12v-127q-66 -16 -133 -16q-111 0 -155 45t-44 111q0 68 43 131.5t152 158.5l-17 60q-158 -96 -366 -96 q-144 0 -228.5 38t-117.5 107t-33 180z" />
<glyph unicode="&#x174;" horiz-adv-x="1945" d="M53 1393h172l310 -1192l358 1192h160l358 -1192l311 1192h170l-376 -1393h-197l-346 1135l-346 -1135h-197zM621 1554l274 316h160l272 -316h-178l-174 211l-176 -211h-178z" />
<glyph unicode="&#x175;" horiz-adv-x="1671" d="M35 1085h168l266 -919l279 919h176l276 -919l268 919h168l-333 -1085h-199l-268 885l-271 -885h-196zM483 1247l275 316h160l272 -316h-178l-174 211l-176 -211h-179z" />
<glyph unicode="&#x176;" horiz-adv-x="1234" d="M23 1393h186l407 -713l410 713h186l-512 -879v-514h-168v514zM264 1554l275 316h159l273 -316h-178l-175 211l-176 -211h-178z" />
<glyph unicode="&#x177;" horiz-adv-x="1079" d="M35 1085h172l336 -901l323 901h178l-354 -917q-73 -187 -190.5 -333.5t-317.5 -264.5l-78 125q259 180 349 336zM186 1247l275 316h160l272 -316h-178l-174 211l-176 -211h-179z" />
<glyph unicode="&#x178;" horiz-adv-x="1234" d="M23 1393h186l407 -713l410 713h186l-512 -879v-514h-168v514zM326 1589v176h178v-176h-178zM731 1589v176h178v-176h-178z" />
<glyph unicode="&#x179;" horiz-adv-x="1155" d="M94 0v117l756 1120h-735v156h944v-125l-756 -1112h748v-156h-957zM471 1554l178 316h185l-213 -316h-150z" />
<glyph unicode="&#x17a;" horiz-adv-x="1038" d="M82 0v117l649 825h-620v143h823v-124l-643 -818h635v-143h-844zM387 1247l178 316h185l-213 -316h-150z" />
<glyph unicode="&#x17b;" horiz-adv-x="1155" d="M94 0v117l756 1120h-735v156h944v-125l-756 -1112h748v-156h-957zM481 1589v176h193v-176h-193z" />
<glyph unicode="&#x17c;" horiz-adv-x="1038" d="M82 0v117l649 825h-620v143h823v-124l-643 -818h635v-143h-844zM416 1282v176h192v-176h-192z" />
<glyph unicode="&#x17d;" horiz-adv-x="1155" d="M94 0v117l756 1120h-735v156h944v-125l-756 -1112h748v-156h-957zM223 1870h178l177 -211l174 211h178l-273 -316h-159z" />
<glyph unicode="&#x17e;" horiz-adv-x="1038" d="M82 0v117l649 825h-620v143h823v-124l-643 -818h635v-143h-844zM174 1563h178l176 -211l174 211h179l-273 -316h-159z" />
<glyph unicode="&#x18f;" horiz-adv-x="1355" d="M109 618v127h964q-2 98 -12.5 171.5t-28 128t-48 91.5t-65.5 60.5t-88.5 35.5t-108.5 16.5t-134 4.5q-183 0 -377 -32v157q194 35 375 35q105 0 183.5 -8t150.5 -28t122 -55t91 -88.5t65 -130t36.5 -177.5t12.5 -232q0 -197 -27.5 -328t-93.5 -219.5t-175 -127.5 t-273 -39q-159 0 -264 33t-172.5 110t-97.5 195.5t-35 299.5zM283 598q5 -135 26 -221t68 -140t118.5 -76t182.5 -22q114 0 186.5 23t118 79t65 140t23.5 217h-788z" />
<glyph unicode="&#x192;" horiz-adv-x="815" d="M35 -326q104 125 154.5 208t74 170t23.5 208v688h-219v137h221v48q0 68 11 115t45 97t103 91.5t177 79.5l94 32l49 -141l-84 -31q-128 -42 -179.5 -91t-51.5 -157v-43h329v-137h-329v-489h-2v-213q0 -131 -21.5 -221t-83.5 -195.5t-188 -259.5z" />
<glyph unicode="&#x19d;" horiz-adv-x="1449" d="M-25 -270q91 19 124 36q85 45 85 164v1463h138l776 -1096v1096h168v-1393h-142l-772 1087v-1163q0 -76 -21.5 -135.5t-55.5 -96t-86 -63t-101.5 -39t-112.5 -20.5v160z" />
<glyph unicode="&#x1a0;" horiz-adv-x="1363" d="M109 694q0 204 29 338.5t98 221t176.5 123t269.5 36.5q215 0 338 -67q51 60 51 198q0 61 -6 98h149q11 -55 11 -100q0 -190 -111 -272q73 -82 106 -222.5t33 -353.5q0 -269 -54.5 -422.5t-177.5 -222.5t-339 -69t-339.5 69t-178.5 222.5t-55 422.5zM281 694 q0 -131 13 -223t40.5 -157.5t75.5 -103t113.5 -54.5t158.5 -17q117 0 191 25.5t122 91t67 170t19 268.5q0 111 -7.5 191.5t-26.5 145t-48 105.5t-74.5 68t-104 38t-138.5 11t-138.5 -11t-104.5 -38t-75 -68t-48 -105t-27 -145t-8 -192z" />
<glyph unicode="&#x1a1;" d="M111 543q0 156 31.5 265t96.5 174.5t156 94.5t217 29q184 0 295 -64q49 61 49 195q0 61 -6 98h150q10 -50 10 -100q0 -190 -109 -270q113 -137 113 -422q0 -156 -32 -265.5t-97.5 -174.5t-156 -94t-216.5 -29q-127 0 -217.5 29t-155.5 94t-96.5 174t-31.5 266zM279 543 q0 -102 15 -175t41 -118.5t69 -72.5t91.5 -36.5t116.5 -9.5t116.5 9.5t91.5 36.5t69.5 72.5t41.5 118.5t15 175t-15 175t-41.5 118.5t-69.5 72t-91.5 36t-116.5 9.5t-116.5 -9.5t-91.5 -36t-69 -72t-41 -118.5t-15 -175z" />
<glyph unicode="&#x1af;" horiz-adv-x="1372" d="M150 428v965h167v-959q0 -172 81 -233.5t280 -61.5q99 0 163.5 13t110 46t65 90t19.5 146v959h92q76 0 108 33.5t32 107.5q0 61 -6 125h149q10 -55 10 -133q0 -214 -217 -246v-852q0 -128 -30.5 -214.5t-97.5 -138t-162.5 -73.5t-235.5 -22q-141 0 -237 22t-163 74 t-97.5 138t-30.5 214z" />
<glyph unicode="&#x1b0;" horiz-adv-x="1269" d="M158 305v780h164v-747q0 -116 55 -161.5t194 -45.5q168 0 322 64v890h88q75 0 107 33.5t32 108.5q0 61 -6 125h150q10 -55 10 -133q0 -214 -217 -246v-973h-131l-23 76q-158 -96 -366 -96q-144 0 -228.5 38t-117.5 107t-33 180z" />
<glyph unicode="&#x1e6;" horiz-adv-x="1331" d="M109 694q0 148 16 258.5t51.5 191t85 132t124.5 82.5t162 43t206 12q200 0 385 -49v-162q-189 51 -373 51q-70 0 -120.5 -3.5t-101 -14t-84.5 -28.5t-66 -47t-51.5 -70t-34 -98.5t-21 -130.5t-6.5 -167t5.5 -167.5t20 -130.5t32.5 -97.5t48.5 -69.5t63.5 -46.5t82 -27 t98 -13t119 -3.5q177 0 292 37v531l164 47v-703q-207 -71 -452 -71q-118 0 -203.5 11.5t-161.5 41t-125.5 81t-86 130.5t-52.5 190t-16 260zM385 1870h178l176 -211l174 211h179l-273 -316h-160z" />
<glyph unicode="&#x1e7;" horiz-adv-x="1239" d="M111 551q0 294 116.5 424.5t356.5 130.5q194 0 327 -88v67h162v-1056q0 -204 -123.5 -303.5t-427.5 -137.5q-127 -14 -293 -18v154q348 10 508 63q90 29 133 79.5t43 127.5v59q-138 -57 -327 -57q-108 0 -191.5 28.5t-149 91t-100 172.5t-34.5 263zM279 551 q0 -103 16.5 -175.5t56 -126.5t108.5 -80t171 -26q135 0 278 33v725q-116 53 -278 53q-104 0 -172.5 -23.5t-108 -76t-55.5 -124.5t-16 -179zM279 1563h178l176 -211l174 211h178l-272 -316h-160z" />
<glyph unicode="&#x1ea;" horiz-adv-x="1363" d="M109 694q0 204 29 338.5t98 221t176.5 123t269.5 36.5q108 0 190.5 -16t147 -52t108 -91t72 -136t41 -184.5t12.5 -239.5q0 -171 -20.5 -288t-67 -195.5t-108 -125.5t-158.5 -87q-119 -49 -177 -117t-58 -121q0 -31 19 -45t60 -14q51 0 109 12v-127q-70 -16 -135 -16 q-111 0 -155 45t-44 111t37.5 123.5t128.5 132.5h-22q-155 0 -259 37.5t-170.5 124t-95 219.5t-28.5 331zM281 694q0 -131 13 -223t40.5 -157.5t75.5 -103t113.5 -54.5t158.5 -17q117 0 191 25.5t122 91t67 170t19 268.5q0 111 -7.5 191.5t-26.5 145t-48 105.5t-74.5 68 t-104 38t-138.5 11t-138.5 -11t-104.5 -38t-75 -68t-48 -105t-27 -145t-8 -192z" />
<glyph unicode="&#x1eb;" d="M111 543q0 156 31.5 265t96.5 174.5t156 94.5t217 29t216.5 -29t156 -94.5t97.5 -174.5t32 -265q0 -109 -16.5 -194t-40 -137t-62.5 -93.5t-69.5 -61.5t-75.5 -41q-75 -36 -128.5 -75t-80 -73t-38 -61t-11.5 -49q0 -57 80 -57q50 0 108 12v-127q-70 -16 -135 -16 q-196 0 -196 156q0 67 38 125t131 129q-180 3 -289.5 58.5t-163.5 178t-54 326.5zM279 543q0 -102 15 -175t41 -118.5t69 -72.5t91.5 -36.5t116.5 -9.5t116.5 9.5t91.5 36.5t69.5 72.5t41.5 118.5t15 175t-15 175t-41.5 118.5t-69.5 72t-91.5 36t-116.5 9.5t-116.5 -9.5 t-91.5 -36t-69 -72t-41 -118.5t-15 -175z" />
<glyph unicode="&#x1fa;" horiz-adv-x="1329" d="M27 0l538 1393h197l541 -1393h-179l-141 371h-639l-141 -371h-176zM399 518h529l-264 696zM416 1735q0 105 59 158t191 53q131 0 189 -53t58 -158q0 -104 -58 -156.5t-189 -52.5q-132 0 -191 52.5t-59 156.5zM528 1737q0 -55 30 -83t108 -28q75 0 105 28t30 83 q0 56 -29.5 84t-105.5 28q-79 0 -108.5 -27.5t-29.5 -84.5zM608 2066l178 316h185l-213 -316h-150z" />
<glyph unicode="&#x1fb;" horiz-adv-x="1140" d="M94 319q0 92 26 155t79 97t120 48t162 14q178 0 338 -49v182q0 106 -75 149t-232 43q-159 0 -317 -47v152q158 43 333 43q108 0 187 -15.5t141.5 -52.5t94.5 -104t32 -164v-770h-125l-24 78q-132 -98 -363 -98q-200 0 -288.5 79t-88.5 260zM262 317q0 -113 58 -153.5 t217 -40.5q150 0 282 47v297q-145 27 -276 27q-161 0 -221 -36.5t-60 -140.5zM326 1438q0 105 58.5 158t190.5 53q131 0 189.5 -53t58.5 -158q0 -103 -58.5 -156t-189.5 -53q-132 0 -190.5 52.5t-58.5 156.5zM438 1440q0 -56 29.5 -83.5t107.5 -27.5q75 0 105.5 28t30.5 83 q0 56 -30 84t-106 28q-79 0 -108 -27.5t-29 -84.5zM504 1769l178 316h184l-213 -316h-149z" />
<glyph unicode="&#x1fc;" horiz-adv-x="1861" d="M27 0l534 1393h1161v-156h-659v-453h629v-151h-629v-477h688l-41 -156h-815v371h-551l-139 -371h-178zM403 526h492v711h-225zM1034 1554l178 316h185l-213 -316h-150z" />
<glyph unicode="&#x1fd;" horiz-adv-x="1726" d="M94 313q0 88 28.5 148.5t86 94.5t131 48t176.5 14h238v109q0 231 -256 231q-141 0 -305 -51v150q152 49 309 49q130 0 221 -45t123 -139q85 184 352 184q225 0 322.5 -120t97.5 -400q0 -32 -6 -101h-694q1 -207 70 -282.5t251 -75.5q185 0 324 59v-151q-129 -55 -336 -55 q-129 0 -216.5 29t-144.5 95q-156 -124 -395 -124q-200 0 -288.5 79t-88.5 254zM264 311q0 -106 53 -148t179 -42q156 0 309 84q-45 102 -51 282h-191q-174 0 -236.5 -36t-62.5 -140zM793 1247l178 316h184l-213 -316h-149zM918 618h536q-1 96 -13 159t-41.5 106t-78.5 61.5 t-125 18.5q-278 0 -278 -267v-78z" />
<glyph unicode="&#x1fe;" horiz-adv-x="1363" d="M109 694q0 204 29 338.5t98 221t176.5 123t269.5 36.5q108 0 190.5 -16t147 -52t108 -91t72 -136t41 -184.5t12.5 -239.5q0 -269 -54.5 -422.5t-177.5 -222.5t-339 -69t-339.5 69t-178.5 222.5t-55 422.5zM281 694q0 -295 71 -415l570 927q-84 47 -240 47 q-80 0 -138.5 -11t-104.5 -38t-75 -68t-48 -105t-27 -145t-8 -192zM442 188q83 -49 240 -49q117 0 191 25.5t122 91t67 170t19 268.5q0 303 -69 422zM571 1554l179 316h184l-213 -316h-150z" />
<glyph unicode="&#x1ff;" d="M111 543q0 156 31.5 265t96.5 174.5t156 94.5t217 29t216.5 -29t156 -94.5t97.5 -174.5t32 -265t-32 -265.5t-97.5 -174.5t-156 -94t-216.5 -29q-127 0 -217.5 29t-155.5 94t-96.5 174t-31.5 266zM279 543q0 -211 63 -305l469 677q-71 39 -199 39q-68 0 -116.5 -9.5 t-91.5 -36t-69 -72t-41 -118.5t-15 -175zM428 164q65 -33 184 -33q68 0 116.5 9.5t91.5 36.5t69.5 72.5t41.5 118.5t15 175q0 198 -57 295zM528 1247l179 316h184l-213 -316h-150z" />
<glyph unicode="&#x218;" horiz-adv-x="1153" d="M100 1063q0 193 116.5 271.5t387.5 78.5q235 0 391 -55v-160q-154 59 -389 59q-192 0 -263 -41t-71 -157q0 -84 49 -124.5t179 -90.5l270 -107q160 -62 221.5 -142.5t61.5 -232.5q0 -90 -24.5 -157t-80.5 -119t-155.5 -79t-241.5 -27q-273 0 -438 61v166q200 -72 438 -72 q179 0 254.5 56.5t75.5 162.5q0 97 -38.5 147t-148.5 93l-293 115q-78 31 -127.5 58.5t-92 68t-62 96t-19.5 131.5zM375 -410l98 308h178l-125 -308h-151z" />
<glyph unicode="&#x219;" horiz-adv-x="1028" d="M111 821q0 158 99 221.5t320 63.5q185 0 338 -45v-158q-167 55 -340 55q-151 0 -202.5 -29t-51.5 -112q0 -71 37 -100.5t142 -59.5l182 -55q78 -23 126.5 -45t88 -57t57 -86.5t17.5 -124.5q0 -172 -94.5 -240.5t-335.5 -68.5q-224 0 -373 61v162q181 -76 373 -76 q154 0 211 33t57 127q0 29 -5 51t-18 39t-26.5 29t-40 23.5t-48.5 18.5t-61 19l-182 55q-70 20 -114 40.5t-82.5 53.5t-56 83.5t-17.5 121.5zM344 -410l98 308h179l-125 -308h-152z" />
<glyph unicode="&#x21a;" horiz-adv-x="1161" d="M41 1235v158h1094l-43 -158h-428v-1235h-168v1235h-455zM393 -410l99 308h178l-125 -308h-152z" />
<glyph unicode="&#x21b;" horiz-adv-x="845" d="M29 942v143h217v256l162 50v-306h358v-143h-358v-670q0 -78 42 -109.5t125 -31.5q94 0 197 35v-150q-88 -36 -223 -36q-154 0 -228.5 65t-74.5 217v680h-217zM344 -410l98 308h179l-125 -308h-152z" />
<glyph unicode="&#x2c6;" horiz-adv-x="964" d="M129 1247l274 316h160l273 -316h-179l-174 211l-176 -211h-178z" />
<glyph unicode="&#x2da;" horiz-adv-x="751" d="M127 1438q0 105 59 158t191 53q131 0 189.5 -53t58.5 -158q0 -103 -58.5 -156t-189.5 -53q-132 0 -191 52.5t-59 156.5zM240 1440q0 -56 29.5 -83.5t107.5 -27.5q75 0 105 28t30 83q0 56 -29.5 84t-105.5 28q-79 0 -108 -27.5t-29 -84.5z" />
<glyph unicode="&#x2dc;" horiz-adv-x="935" d="M127 1245q0 230 199 230q48 0 91 -17.5t69 -39t58 -39t60 -17.5q43 0 62 24.5t22 81.5h121q0 -113 -48 -171t-151 -58q-47 0 -90 17.5t-69 39t-58 39t-59 17.5q-44 0 -63 -25.5t-21 -81.5h-123z" />
<glyph unicode="&#x1e80;" horiz-adv-x="1945" d="M53 1393h170l312 -1192l358 1192h160l358 -1192l309 1192h172l-376 -1393h-197l-346 1135l-346 -1135h-197zM688 1870h184l179 -316h-150z" />
<glyph unicode="&#x1e81;" horiz-adv-x="1671" d="M35 1085h168l268 -919l277 919h176l278 -919l266 919h168l-333 -1085h-197l-270 885l-269 -885h-198zM557 1563h184l179 -316h-150z" />
<glyph unicode="&#x1e82;" horiz-adv-x="1945" d="M53 1393h172l310 -1192l358 1192h160l358 -1192l311 1192h170l-376 -1393h-197l-346 1135l-346 -1135h-197zM895 1554l178 316h184l-213 -316h-149z" />
<glyph unicode="&#x1e83;" horiz-adv-x="1671" d="M35 1085h168l266 -919l279 919h176l276 -919l268 919h168l-333 -1085h-199l-268 885l-271 -885h-196zM752 1247l178 316h184l-213 -316h-149z" />
<glyph unicode="&#x1e84;" horiz-adv-x="1945" d="M53 1393h172l310 -1192l358 1192h160l358 -1192l311 1192h170l-376 -1393h-197l-346 1135l-346 -1135h-197zM682 1589v176h178v-176h-178zM1087 1589v176h179v-176h-179z" />
<glyph unicode="&#x1e85;" horiz-adv-x="1671" d="M35 1085h168l266 -919l279 919h176l276 -919l268 919h168l-333 -1085h-199l-268 885l-271 -885h-196zM545 1282v176h178v-176h-178zM950 1282v176h178v-176h-178z" />
<glyph unicode="&#x1e9e;" horiz-adv-x="1374" d="M150 0v979q0 101 26.5 177.5t71 125t111.5 78.5t141 41.5t166 11.5q101 0 188 -18t147.5 -48t100.5 -61.5t69 -66.5l-372 -431q30 5 47 5q237 0 336.5 -98.5t99.5 -299.5q0 -118 -31 -199t-95.5 -128.5t-152.5 -67.5t-212 -20q-157 0 -332 36v160q8 -1 56.5 -10 t83.5 -14.5t90 -11t102 -5.5q164 0 241.5 58t77.5 202q0 55 -9 95t-32 74t-62 54.5t-100 32t-145 11.5q-92 0 -168 -9v129l348 412q-98 66 -278 66q-87 0 -147.5 -12t-107.5 -42.5t-69.5 -86.5t-22.5 -140v-979h-167z" />
<glyph unicode="&#x1ea0;" horiz-adv-x="1329" d="M27 0l538 1393h197l541 -1393h-179l-141 371h-639l-141 -371h-176zM399 518h529l-264 696zM567 -174h193v-180h-193v180z" />
<glyph unicode="&#x1ea1;" horiz-adv-x="1140" d="M94 319q0 92 26 155t79 97t120 48t162 14q178 0 338 -49v182q0 106 -75 149t-232 43q-159 0 -317 -47v152q158 43 333 43q108 0 187 -15.5t141.5 -52.5t94.5 -104t32 -164v-770h-125l-24 78q-132 -98 -363 -98q-200 0 -288.5 79t-88.5 260zM262 317q0 -113 58 -153.5 t217 -40.5q150 0 282 47v297q-145 27 -276 27q-161 0 -221 -36.5t-60 -140.5zM453 -174h192v-180h-192v180z" />
<glyph unicode="&#x1ea2;" horiz-adv-x="1329" d="M27 0l538 1393h197l541 -1393h-179l-141 371h-639l-141 -371h-176zM399 518h529l-264 696zM467 1802v115q88 18 172 18q97 0 159 -44t62 -128q0 -75 -65.5 -135t-180.5 -88l-49 94q160 43 160 121q0 31 -27.5 50.5t-87.5 19.5q-49 0 -143 -23z" />
<glyph unicode="&#x1ea3;" horiz-adv-x="1140" d="M94 319q0 92 26 155t79 97t120 48t162 14q178 0 338 -49v182q0 106 -75 149t-232 43q-159 0 -317 -47v152q158 43 333 43q108 0 187 -15.5t141.5 -52.5t94.5 -104t32 -164v-770h-125l-24 78q-132 -98 -363 -98q-200 0 -288.5 79t-88.5 260zM262 317q0 -113 58 -153.5 t217 -40.5q150 0 282 47v297q-145 27 -276 27q-161 0 -221 -36.5t-60 -140.5zM377 1495v115q88 18 172 18q97 0 159 -44t62 -128q0 -75 -65.5 -135t-180.5 -88l-49 94q160 43 160 121q0 31 -27.5 50.5t-87.5 19.5q-49 0 -143 -23z" />
<glyph unicode="&#x1ea4;" horiz-adv-x="1351" d="M27 0l538 1393h197l541 -1393h-179l-141 371h-639l-141 -371h-176zM322 1567l260 266h159l258 -266h-184l-153 168l-158 -168h-182zM399 518h529l-264 696zM836 1833l155 250h185l-195 -250h-145z" />
<glyph unicode="&#x1ea5;" horiz-adv-x="1140" d="M94 319q0 92 26 155t79 97t120 48t162 14q178 0 338 -49v182q0 106 -75 149t-232 43q-159 0 -317 -47v152q158 43 333 43q108 0 187 -15.5t141.5 -52.5t94.5 -104t32 -164v-770h-125l-24 78q-132 -98 -363 -98q-200 0 -288.5 79t-88.5 260zM225 1260l260 266h160 l258 -266h-184l-154 167l-157 -167h-183zM262 317q0 -113 58 -153.5t217 -40.5q150 0 282 47v297q-145 27 -276 27q-161 0 -221 -36.5t-60 -140.5zM739 1526l156 250h184l-194 -250h-146z" />
<glyph unicode="&#x1ea6;" horiz-adv-x="1329" d="M27 0l538 1393h197l541 -1393h-179l-141 371h-639l-141 -371h-176zM328 1567l258 266h159l261 -266h-183l-157 168l-154 -168h-184zM399 518h529l-264 696zM690 2083h184l156 -250h-145z" />
<glyph unicode="&#x1ea7;" horiz-adv-x="1140" d="M94 319q0 92 26 155t79 97t120 48t162 14q178 0 338 -49v182q0 106 -75 149t-232 43q-159 0 -317 -47v152q158 43 333 43q108 0 187 -15.5t141.5 -52.5t94.5 -104t32 -164v-770h-125l-24 78q-132 -98 -363 -98q-200 0 -288.5 79t-88.5 260zM236 1260l258 266h159 l260 -266h-182l-158 167l-153 -167h-184zM262 317q0 -113 58 -153.5t217 -40.5q150 0 282 47v297q-145 27 -276 27q-161 0 -221 -36.5t-60 -140.5zM598 1776h184l156 -250h-145z" />
<glyph unicode="&#x1ea8;" horiz-adv-x="1329" d="M27 0l538 1393h197l541 -1393h-179l-141 371h-639l-141 -371h-176zM326 1567l260 266h159l259 -266h-185l-153 168l-158 -168h-182zM399 518h529l-264 696zM770 1993v116q97 19 152 19q87 0 146.5 -42t59.5 -118q0 -71 -59.5 -124.5t-163.5 -80.5l-49 90q131 36 131 97 t-96 61q-38 0 -121 -18z" />
<glyph unicode="&#x1ea9;" horiz-adv-x="1140" d="M94 319q0 92 26 155t79 97t120 48t162 14q178 0 338 -49v182q0 106 -75 149t-232 43q-159 0 -317 -47v152q158 43 333 43q108 0 187 -15.5t141.5 -52.5t94.5 -104t32 -164v-770h-125l-24 78q-132 -98 -363 -98q-200 0 -288.5 79t-88.5 260zM229 1260l260 266h160 l258 -266h-184l-154 167l-157 -167h-183zM262 317q0 -113 58 -153.5t217 -40.5q150 0 282 47v297q-145 27 -276 27q-161 0 -221 -36.5t-60 -140.5zM674 1686v116q97 19 151 19q87 0 147 -42t60 -118q0 -71 -59.5 -124.5t-163.5 -80.5l-49 90q131 36 131 96q0 62 -96 62 q-38 0 -121 -18z" />
<glyph unicode="&#x1eaa;" horiz-adv-x="1329" d="M27 0l538 1393h197l541 -1393h-179l-141 371h-639l-141 -371h-176zM324 1550l260 236h159l258 -236h-184l-153 148l-158 -148h-182zM352 1864q0 106 46 159.5t145 53.5q44 0 82.5 -16t61 -34.5t50.5 -34.5t54 -16q74 0 77 92h121q0 -107 -46.5 -160t-143.5 -53 q-45 0 -84 16t-61.5 34.5t-50.5 34.5t-54 16q-40 0 -57.5 -22t-20.5 -70h-119zM399 518h529l-264 696z" />
<glyph unicode="&#x1eab;" horiz-adv-x="1140" d="M94 319q0 92 26 155t79 97t120 48t162 14q178 0 338 -49v182q0 106 -75 149t-232 43q-159 0 -317 -47v152q158 43 333 43q108 0 187 -15.5t141.5 -52.5t94.5 -104t32 -164v-770h-125l-24 78q-132 -98 -363 -98q-200 0 -288.5 79t-88.5 260zM227 1243l260 236h160 l258 -236h-184l-154 148l-157 -148h-183zM256 1556q0 107 45.5 160t144.5 53q44 0 82.5 -15.5t61 -34.5t50.5 -34.5t54 -15.5q75 0 78 92h121q0 -213 -191 -213q-45 0 -83.5 16t-61 34.5t-50.5 34.5t-54 16q-40 0 -57.5 -22.5t-20.5 -70.5h-119zM262 317q0 -113 58 -153.5 t217 -40.5q150 0 282 47v297q-145 27 -276 27q-161 0 -221 -36.5t-60 -140.5z" />
<glyph unicode="&#x1eac;" horiz-adv-x="1329" d="M27 0l538 1393h197l541 -1393h-179l-141 371h-639l-141 -371h-176zM311 1554l275 316h159l273 -316h-178l-174 211l-177 -211h-178zM399 518h529l-264 696zM567 -174h193v-180h-193v180z" />
<glyph unicode="&#x1ead;" horiz-adv-x="1140" d="M94 319q0 92 26 155t79 97t120 48t162 14q178 0 338 -49v182q0 106 -75 149t-232 43q-159 0 -317 -47v152q158 43 333 43q108 0 187 -15.5t141.5 -52.5t94.5 -104t32 -164v-770h-125l-24 78q-132 -98 -363 -98q-200 0 -288.5 79t-88.5 260zM213 1247l274 316h160 l273 -316h-179l-174 211l-176 -211h-178zM262 317q0 -113 58 -153.5t217 -40.5q150 0 282 47v297q-145 27 -276 27q-161 0 -221 -36.5t-60 -140.5zM457 -174h192v-180h-192v180z" />
<glyph unicode="&#x1eae;" horiz-adv-x="1329" d="M27 0l538 1393h197l541 -1393h-179l-141 371h-639l-141 -371h-176zM344 1817h131q3 -84 49.5 -115t141.5 -31q94 0 140 30.5t50 115.5h131q-3 -143 -80 -200.5t-241 -57.5t-241.5 57.5t-80.5 200.5zM399 518h529l-264 696zM571 1853l156 250h184l-194 -250h-146z" />
<glyph unicode="&#x1eaf;" horiz-adv-x="1140" d="M94 319q0 92 26 155t79 97t120 48t162 14q178 0 338 -49v182q0 106 -75 149t-232 43q-159 0 -317 -47v152q158 43 333 43q108 0 187 -15.5t141.5 -52.5t94.5 -104t32 -164v-770h-125l-24 78q-132 -98 -363 -98q-200 0 -288.5 79t-88.5 260zM262 317q0 -113 58 -153.5 t217 -40.5q150 0 282 47v297q-145 27 -276 27q-161 0 -221 -36.5t-60 -140.5zM276 1509h132q3 -84 49 -114.5t141 -30.5t140.5 30.5t49.5 114.5h132q-3 -143 -80.5 -200.5t-241.5 -57.5t-241.5 57.5t-80.5 200.5zM504 1546l155 250h185l-195 -250h-145z" />
<glyph unicode="&#x1eb0;" horiz-adv-x="1329" d="M27 0l540 1393h197l539 -1393h-177l-141 371h-639l-141 -371h-178zM342 1817h131q4 -84 50 -115t141 -31t141 31t49 115h131q-3 -143 -80 -200.5t-241 -57.5t-241.5 57.5t-80.5 200.5zM401 518h529l-264 696zM418 2103h184l156 -250h-146z" />
<glyph unicode="&#x1eb1;" horiz-adv-x="1140" d="M94 319q0 92 26 155t79 97t120 48t162 14q178 0 338 -49v182q0 106 -75 149t-232 43q-159 0 -317 -47v152q158 43 333 43q108 0 187 -15.5t141.5 -52.5t94.5 -104t32 -164v-770h-125l-24 78q-132 -98 -363 -98q-200 0 -288.5 79t-88.5 260zM262 317q0 -113 58 -153.5 t217 -40.5q150 0 282 47v297q-145 27 -276 27q-161 0 -221 -36.5t-60 -140.5zM274 1509h132q4 -84 49.5 -114.5t140.5 -30.5t141 30.5t49 114.5h132q-3 -143 -80.5 -200.5t-241.5 -57.5t-241.5 57.5t-80.5 200.5zM350 1796h185l155 -250h-145z" />
<glyph unicode="&#x1eb2;" horiz-adv-x="1329" d="M27 0l538 1393h197l541 -1393h-179l-141 371h-639l-141 -371h-176zM344 1817h131q3 -84 49.5 -115t141.5 -31q94 0 140 30.5t50 115.5h131q-3 -143 -80 -200.5t-241 -57.5t-241.5 57.5t-80.5 200.5zM399 518h529l-264 696zM475 2030v114q93 19 172 19q97 0 159 -44 t62 -128q0 -76 -65.5 -136t-179.5 -88l-50 95q160 43 160 120q0 31 -27.5 50.5t-87.5 19.5q-53 0 -143 -22z" />
<glyph unicode="&#x1eb3;" horiz-adv-x="1140" d="M94 319q0 92 26 155t79 97t120 48t162 14q178 0 338 -49v182q0 106 -75 149t-232 43q-159 0 -317 -47v152q158 43 333 43q108 0 187 -15.5t141.5 -52.5t94.5 -104t32 -164v-770h-125l-24 78q-132 -98 -363 -98q-200 0 -288.5 79t-88.5 260zM262 317q0 -113 58 -153.5 t217 -40.5q150 0 282 47v297q-145 27 -276 27q-161 0 -221 -36.5t-60 -140.5zM274 1509h132q3 -84 49 -114.5t141 -30.5t140.5 30.5t49.5 114.5h132q-3 -143 -80.5 -200.5t-241.5 -57.5t-241.5 57.5t-80.5 200.5zM406 1722v115q88 18 172 18q97 0 159 -44t62 -128 q0 -75 -65.5 -135t-180.5 -88l-49 94q160 43 160 121q0 31 -27.5 50.5t-87.5 19.5q-49 0 -143 -23z" />
<glyph unicode="&#x1eb4;" horiz-adv-x="1329" d="M27 0l538 1393h197l541 -1393h-179l-141 371h-639l-141 -371h-176zM344 1817h131q3 -84 49.5 -115t141.5 -31q94 0 140 30.5t50 115.5h131q-3 -143 -80 -200.5t-241 -57.5t-241.5 57.5t-80.5 200.5zM344 1886q0 106 46 159.5t145 53.5q44 0 82.5 -15.5t60.5 -34.5 t50 -34.5t54 -15.5q75 0 78 92h121q0 -107 -46.5 -160t-143.5 -53q-45 0 -84 15.5t-61.5 34.5t-50.5 34.5t-54 15.5q-40 0 -57.5 -22t-20.5 -70h-119zM399 518h529l-264 696z" />
<glyph unicode="&#x1eb5;" horiz-adv-x="1140" d="M94 319q0 92 26 155t79 97t120 48t162 14q178 0 338 -49v182q0 106 -75 149t-232 43q-159 0 -317 -47v152q158 43 333 43q108 0 187 -15.5t141.5 -52.5t94.5 -104t32 -164v-770h-125l-24 78q-132 -98 -363 -98q-200 0 -288.5 79t-88.5 260zM262 317q0 -113 58 -153.5 t217 -40.5q150 0 282 47v297q-145 27 -276 27q-161 0 -221 -36.5t-60 -140.5zM262 1509h131q3 -84 49.5 -114.5t141.5 -30.5t140.5 30.5t49.5 114.5h131q-3 -143 -80 -200.5t-241 -57.5t-241.5 57.5t-80.5 200.5zM262 1579q0 106 46 159.5t145 53.5q44 0 82.5 -15.5 t60.5 -34.5t50 -34.5t54 -15.5q75 0 78 92h121q0 -107 -46.5 -160t-143.5 -53q-45 0 -84 15.5t-61.5 34.5t-50.5 34.5t-54 15.5q-40 0 -57.5 -22t-20.5 -70h-119z" />
<glyph unicode="&#x1eb6;" horiz-adv-x="1329" d="M27 0l538 1393h197l541 -1393h-179l-141 371h-639l-141 -371h-176zM350 1831h135q4 -86 49 -120t132 -34t131.5 34t48.5 120h133q-3 -146 -79 -206t-234 -60t-235 60t-81 206zM399 518h529l-264 696zM567 -174h193v-180h-193v180z" />
<glyph unicode="&#x1eb7;" horiz-adv-x="1140" d="M94 319q0 92 26 155t79 97t120 48t162 14q178 0 338 -49v182q0 106 -75 149t-232 43q-159 0 -317 -47v152q158 43 333 43q108 0 187 -15.5t141.5 -52.5t94.5 -104t32 -164v-770h-125l-24 78q-132 -98 -363 -98q-200 0 -288.5 79t-88.5 260zM262 317q0 -113 58 -153.5 t217 -40.5q150 0 282 47v297q-145 27 -276 27q-161 0 -221 -36.5t-60 -140.5zM264 1524h135q4 -86 49 -120t132 -34t131.5 34t48.5 120h133q-3 -146 -79 -206.5t-234 -60.5t-235 60.5t-81 206.5zM457 -174h192v-180h-192v180z" />
<glyph unicode="&#x1eb8;" horiz-adv-x="1212" d="M184 0v1393h889v-156h-721v-453h690v-151h-690v-477h748l-39 -156h-877zM543 -174h192v-180h-192v180z" />
<glyph unicode="&#x1eb9;" horiz-adv-x="1148" d="M111 543q0 289 111 426t366 137q243 0 347.5 -120t104.5 -400q0 -22 -6 -103h-760q4 -204 82 -280t273 -76q198 0 348 59v-151q-140 -55 -363 -55q-137 0 -229.5 27.5t-155 93t-90.5 173t-28 269.5zM274 621h603q-2 188 -63.5 265t-225.5 77t-235 -81.5t-79 -260.5z M489 -174h193v-180h-193v180z" />
<glyph unicode="&#x1eba;" horiz-adv-x="1212" d="M184 0v1393h889v-156h-721v-453h690v-151h-690v-477h748l-39 -156h-877zM457 1802v115q88 18 172 18q97 0 159 -44t62 -128q0 -75 -65.5 -135t-180.5 -88l-49 94q160 43 160 121q0 31 -27.5 50.5t-87.5 19.5q-49 0 -143 -23z" />
<glyph unicode="&#x1ebb;" horiz-adv-x="1148" d="M111 543q0 289 111 426t366 137q243 0 347.5 -120t104.5 -400q0 -22 -6 -103h-760q4 -204 82 -280t273 -76q198 0 348 59v-151q-140 -55 -363 -55q-137 0 -229.5 27.5t-155 93t-90.5 173t-28 269.5zM274 621h603q-2 188 -63.5 265t-225.5 77t-235 -81.5t-79 -260.5z M395 1495v115q88 18 172 18q97 0 159 -44t62 -128q0 -76 -65 -135.5t-180 -87.5l-49 94q159 43 159 121q0 70 -114 70q-50 0 -144 -23z" />
<glyph unicode="&#x1ebc;" horiz-adv-x="1212" d="M184 0v1393h889v-156h-721v-453h690v-151h-690v-477h748l-39 -156h-877zM301 1552q0 230 199 230q48 0 91 -17.5t69 -39t58 -39t60 -17.5q43 0 62 25t22 82h121q0 -230 -199 -230q-47 0 -90 17.5t-69 39t-58 39t-59 17.5q-44 0 -63 -25.5t-21 -81.5h-123z" />
<glyph unicode="&#x1ebd;" horiz-adv-x="1148" d="M111 543q0 289 111 426t366 137q243 0 347.5 -120t104.5 -400q0 -22 -6 -103h-760q4 -204 82 -280t273 -76q198 0 348 59v-151q-140 -55 -363 -55q-137 0 -229.5 27.5t-155 93t-90.5 173t-28 269.5zM233 1245q0 230 199 230q48 0 91 -17.5t69.5 -39t58.5 -39t60 -17.5 q43 0 62 24.5t22 81.5h120q0 -113 -47.5 -171t-150.5 -58q-47 0 -90 17.5t-69.5 39t-58.5 39t-59 17.5q-44 0 -63 -25.5t-21 -81.5h-123zM274 621h603q-2 188 -63.5 265t-225.5 77t-235 -81.5t-79 -260.5z" />
<glyph unicode="&#x1ebe;" horiz-adv-x="1212" d="M184 0v1393h889v-156h-721v-453h690v-151h-690v-477h748l-39 -156h-877zM330 1567l260 266h160l258 -266h-185l-153 168l-158 -168h-182zM844 1833l155 250h185l-195 -250h-145z" />
<glyph unicode="&#x1ebf;" horiz-adv-x="1148" d="M111 543q0 289 111 426t366 137q243 0 347.5 -120t104.5 -400q0 -22 -6 -103h-760q4 -204 82 -280t273 -76q198 0 348 59v-151q-140 -55 -363 -55q-137 0 -229.5 27.5t-155 93t-90.5 173t-28 269.5zM233 1260l261 266h159l258 -266h-184l-154 167l-157 -167h-183z M274 621h603q-2 188 -63.5 265t-225.5 77t-235 -81.5t-79 -260.5zM748 1526l155 250h184l-194 -250h-145z" />
<glyph unicode="&#x1ec0;" horiz-adv-x="1212" d="M184 0v1393h889v-156h-721v-453h690v-151h-690v-477h748l-39 -156h-877zM299 1567l258 266h160l260 -266h-182l-158 168l-154 -168h-184zM662 2083h184l155 -250h-145z" />
<glyph unicode="&#x1ec1;" horiz-adv-x="1148" d="M111 543q0 289 111 426t366 137q243 0 347.5 -120t104.5 -400q0 -22 -6 -103h-760q4 -204 82 -280t273 -76q198 0 348 59v-151q-140 -55 -363 -55q-137 0 -229.5 27.5t-155 93t-90.5 173t-28 269.5zM240 1260l258 266h159l261 -266h-183l-157 167l-154 -167h-184z M274 621h603q-2 188 -63.5 265t-225.5 77t-235 -81.5t-79 -260.5zM602 1776h184l156 -250h-145z" />
<glyph unicode="&#x1ec2;" horiz-adv-x="1212" d="M184 0v1393h889v-156h-721v-453h690v-151h-690v-477h748l-39 -156h-877zM295 1567l260 266h160l258 -266h-185l-153 168l-158 -168h-182zM739 1993v116q97 19 152 19q87 0 147 -42t60 -118q0 -71 -60 -124.5t-164 -80.5l-49 90q131 36 131 97t-96 61q-38 0 -121 -18z" />
<glyph unicode="&#x1ec3;" horiz-adv-x="1148" d="M111 543q0 289 111 426t366 137q243 0 347.5 -120t104.5 -400q0 -22 -6 -103h-760q4 -204 82 -280t273 -76q198 0 348 59v-151q-140 -55 -363 -55q-137 0 -229.5 27.5t-155 93t-90.5 173t-28 269.5zM242 1260l260 266h160l258 -266h-185l-153 167l-158 -167h-182z M274 621h603q-2 188 -63.5 265t-225.5 77t-235 -81.5t-79 -260.5zM686 1686v116q97 19 152 19q87 0 146.5 -42t59.5 -118q0 -71 -59.5 -124.5t-163.5 -80.5l-49 90q131 36 131 96q0 62 -96 62q-38 0 -121 -18z" />
<glyph unicode="&#x1ec4;" horiz-adv-x="1212" d="M184 0v1393h889v-156h-721v-453h690v-151h-690v-477h748l-39 -156h-877zM299 1550l260 236h160l258 -236h-184l-154 148l-158 -148h-182zM328 1864q0 107 45.5 160t144.5 53q44 0 82.5 -16t61 -34.5t50.5 -34.5t54 -16q75 0 78 92h121q0 -213 -191 -213q-45 0 -84 16 t-61.5 34.5t-50.5 34.5t-54 16q-40 0 -57.5 -22t-20.5 -70h-118z" />
<glyph unicode="&#x1ec5;" horiz-adv-x="1148" d="M111 543q0 289 111 426t366 137q243 0 347.5 -120t104.5 -400q0 -22 -6 -103h-760q4 -204 82 -280t273 -76q198 0 348 59v-151q-140 -55 -363 -55q-137 0 -229.5 27.5t-155 93t-90.5 173t-28 269.5zM242 1243l260 236h160l258 -236h-185l-153 148l-158 -148h-182z M270 1556q0 106 46 159.5t145 53.5q44 0 82.5 -15.5t61 -34.5t50.5 -34.5t54 -15.5q74 0 77 92h121q0 -107 -46.5 -160t-143.5 -53q-45 0 -84 16t-61.5 34.5t-50.5 34.5t-54 16q-40 0 -57.5 -22.5t-20.5 -70.5h-119zM274 621h603q-2 188 -63.5 265t-225.5 77t-235 -81.5 t-79 -260.5z" />
<glyph unicode="&#x1ec6;" horiz-adv-x="1212" d="M184 0v1393h889v-156h-721v-453h690v-151h-690v-477h748l-39 -156h-877zM291 1554l274 316h160l272 -316h-178l-174 211l-176 -211h-178zM547 -174h192v-180h-192v180z" />
<glyph unicode="&#x1ec7;" horiz-adv-x="1148" d="M111 543q0 289 111 426t366 137q243 0 347.5 -120t104.5 -400q0 -22 -6 -103h-760q4 -204 82 -280t273 -76q198 0 348 59v-151q-140 -55 -363 -55q-137 0 -229.5 27.5t-155 93t-90.5 173t-28 269.5zM221 1247l275 316h159l273 -316h-178l-175 211l-176 -211h-178z M274 621h603q-2 188 -63.5 265t-225.5 77t-235 -81.5t-79 -260.5zM496 -174h192v-180h-192v180z" />
<glyph unicode="&#x1ec8;" horiz-adv-x="536" d="M82 1802v115q88 18 172 18q97 0 159 -44t62 -128q0 -75 -65.5 -135t-180.5 -88l-49 94q160 43 160 121q0 31 -27.5 50.5t-87.5 19.5q-49 0 -143 -23zM182 0v1393h168v-1393h-168z" />
<glyph unicode="&#x1ec9;" horiz-adv-x="489" d="M43 1495v115q88 18 172 18q97 0 159 -44t62 -128q0 -75 -65.5 -135t-180.5 -88l-49 94q160 43 160 121q0 31 -27.5 50.5t-87.5 19.5q-49 0 -143 -23zM168 0v1085h164v-1085h-164z" />
<glyph unicode="&#x1eca;" horiz-adv-x="536" d="M170 -174h192v-180h-192v180zM184 0v1393h168v-1393h-168z" />
<glyph unicode="&#x1ecb;" horiz-adv-x="489" d="M147 -174h193v-180h-193v180zM147 1282v176h193v-176h-193zM162 0v1085h164v-1085h-164z" />
<glyph unicode="&#x1ecc;" horiz-adv-x="1363" d="M109 694q0 204 29 338.5t98 221t176.5 123t269.5 36.5q108 0 190.5 -16t147 -52t108 -91t72 -136t41 -184.5t12.5 -239.5q0 -269 -54.5 -422.5t-177.5 -222.5t-339 -69t-339.5 69t-178.5 222.5t-55 422.5zM281 694q0 -131 13 -223t40.5 -157.5t75.5 -103t113.5 -54.5 t158.5 -17q117 0 191 25.5t122 91t67 170t19 268.5q0 111 -7.5 191.5t-26.5 145t-48 105.5t-74.5 68t-104 38t-138.5 11t-138.5 -11t-104.5 -38t-75 -68t-48 -105t-27 -145t-8 -192zM584 -174h192v-180h-192v180z" />
<glyph unicode="&#x1ecd;" d="M111 543q0 156 31.5 265t96.5 174.5t156 94.5t217 29t216.5 -29t156 -94.5t97.5 -174.5t32 -265t-32 -265.5t-97.5 -174.5t-156 -94t-216.5 -29q-127 0 -217.5 29t-155.5 94t-96.5 174t-31.5 266zM279 543q0 -102 15 -175t41 -118.5t69 -72.5t91.5 -36.5t116.5 -9.5 t116.5 9.5t91.5 36.5t69.5 72.5t41.5 118.5t15 175t-15 175t-41.5 118.5t-69.5 72t-91.5 36t-116.5 9.5t-116.5 -9.5t-91.5 -36t-69 -72t-41 -118.5t-15 -175zM514 -174h193v-180h-193v180z" />
<glyph unicode="&#x1ece;" horiz-adv-x="1363" d="M109 694q0 204 29 338.5t98 221t176.5 123t269.5 36.5q108 0 190.5 -16t147 -52t108 -91t72 -136t41 -184.5t12.5 -239.5q0 -269 -54.5 -422.5t-177.5 -222.5t-339 -69t-339.5 69t-178.5 222.5t-55 422.5zM281 694q0 -131 13 -223t40.5 -157.5t75.5 -103t113.5 -54.5 t158.5 -17q117 0 191 25.5t122 91t67 170t19 268.5q0 111 -7.5 191.5t-26.5 145t-48 105.5t-74.5 68t-104 38t-138.5 11t-138.5 -11t-104.5 -38t-75 -68t-48 -105t-27 -145t-8 -192zM526 1802v115q88 18 172 18q98 0 160 -44t62 -128q0 -75 -65.5 -135t-180.5 -88l-49 94 q159 43 159 121q0 70 -114 70q-50 0 -144 -23z" />
<glyph unicode="&#x1ecf;" d="M111 543q0 156 31.5 265t96.5 174.5t156 94.5t217 29t216.5 -29t156 -94.5t97.5 -174.5t32 -265t-32 -265.5t-97.5 -174.5t-156 -94t-216.5 -29q-127 0 -217.5 29t-155.5 94t-96.5 174t-31.5 266zM279 543q0 -102 15 -175t41 -118.5t69 -72.5t91.5 -36.5t116.5 -9.5 t116.5 9.5t91.5 36.5t69.5 72.5t41.5 118.5t15 175t-15 175t-41.5 118.5t-69.5 72t-91.5 36t-116.5 9.5t-116.5 -9.5t-91.5 -36t-69 -72t-41 -118.5t-15 -175zM432 1495v115q88 18 172 18q97 0 159 -44t62 -128q0 -76 -65 -135.5t-180 -87.5l-50 94q160 43 160 121 q0 31 -27.5 50.5t-87.5 19.5q-49 0 -143 -23z" />
<glyph unicode="&#x1ed0;" horiz-adv-x="1366" d="M109 694q0 204 29 338.5t98 221t176.5 123t269.5 36.5q108 0 190.5 -16t147 -52t108 -91t72 -136t41 -184.5t12.5 -239.5q0 -269 -54.5 -422.5t-177.5 -222.5t-339 -69t-339.5 69t-178.5 222.5t-55 422.5zM281 694q0 -131 13 -223t40.5 -157.5t75.5 -103t113.5 -54.5 t158.5 -17q117 0 191 25.5t122 91t67 170t19 268.5q0 111 -7.5 191.5t-26.5 145t-48 105.5t-74.5 68t-104 38t-138.5 11t-138.5 -11t-104.5 -38t-75 -68t-48 -105t-27 -145t-8 -192zM346 1567l260 266h160l258 -266h-184l-154 168l-158 -168h-182zM860 1833l156 250h184 l-194 -250h-146z" />
<glyph unicode="&#x1ed1;" d="M111 543q0 156 31.5 265t96.5 174.5t156 94.5t217 29t216.5 -29t156 -94.5t97.5 -174.5t32 -265t-32 -265.5t-97.5 -174.5t-156 -94t-216.5 -29q-127 0 -217.5 29t-155.5 94t-96.5 174t-31.5 266zM268 1260l260 266h160l258 -266h-184l-154 167l-157 -167h-183zM279 543 q0 -102 15 -175t41 -118.5t69 -72.5t91.5 -36.5t116.5 -9.5t116.5 9.5t91.5 36.5t69.5 72.5t41.5 118.5t15 175t-15 175t-41.5 118.5t-69.5 72t-91.5 36t-116.5 9.5t-116.5 -9.5t-91.5 -36t-69 -72t-41 -118.5t-15 -175zM782 1526l156 250h184l-194 -250h-146z" />
<glyph unicode="&#x1ed2;" horiz-adv-x="1363" d="M109 694q0 204 29 338.5t98 221t176.5 123t269.5 36.5q108 0 190.5 -16t147 -52t108 -91t72 -136t41 -184.5t12.5 -239.5q0 -269 -54.5 -422.5t-177.5 -222.5t-339 -69t-339.5 69t-178.5 222.5t-55 422.5zM281 694q0 -131 13 -223t40.5 -157.5t75.5 -103t113.5 -54.5 t158.5 -17q117 0 191 25.5t122 91t67 170t19 268.5q0 111 -7.5 191.5t-26.5 145t-48 105.5t-74.5 68t-104 38t-138.5 11t-138.5 -11t-104.5 -38t-75 -68t-48 -105t-27 -145t-8 -192zM346 1567l258 266h160l260 -266h-182l-158 168l-154 -168h-184zM709 2083h184l156 -250 h-146z" />
<glyph unicode="&#x1ed3;" d="M111 543q0 156 31.5 265t96.5 174.5t156 94.5t217 29t216.5 -29t156 -94.5t97.5 -174.5t32 -265t-32 -265.5t-97.5 -174.5t-156 -94t-216.5 -29q-127 0 -217.5 29t-155.5 94t-96.5 174t-31.5 266zM268 1260l258 266h160l260 -266h-182l-158 167l-153 -167h-185zM279 543 q0 -102 15 -175t41 -118.5t69 -72.5t91.5 -36.5t116.5 -9.5t116.5 9.5t91.5 36.5t69.5 72.5t41.5 118.5t15 175t-15 175t-41.5 118.5t-69.5 72t-91.5 36t-116.5 9.5t-116.5 -9.5t-91.5 -36t-69 -72t-41 -118.5t-15 -175zM631 1776h184l156 -250h-146z" />
<glyph unicode="&#x1ed4;" horiz-adv-x="1363" d="M109 694q0 204 29 338.5t98 221t176.5 123t269.5 36.5q108 0 190.5 -16t147 -52t108 -91t72 -136t41 -184.5t12.5 -239.5q0 -269 -54.5 -422.5t-177.5 -222.5t-339 -69t-339.5 69t-178.5 222.5t-55 422.5zM281 694q0 -131 13 -223t40.5 -157.5t75.5 -103t113.5 -54.5 t158.5 -17q117 0 191 25.5t122 91t67 170t19 268.5q0 111 -7.5 191.5t-26.5 145t-48 105.5t-74.5 68t-104 38t-138.5 11t-138.5 -11t-104.5 -38t-75 -68t-48 -105t-27 -145t-8 -192zM297 1567l260 266h160l258 -266h-184l-154 168l-158 -168h-182zM741 1993v116 q97 19 152 19q87 0 147 -42t60 -118q0 -71 -59.5 -124.5t-163.5 -80.5l-50 90q131 36 131 97t-96 61q-38 0 -121 -18z" />
<glyph unicode="&#x1ed5;" d="M111 543q0 156 31.5 265t96.5 174.5t156 94.5t217 29t216.5 -29t156 -94.5t97.5 -174.5t32 -265t-32 -265.5t-97.5 -174.5t-156 -94t-216.5 -29q-127 0 -217.5 29t-155.5 94t-96.5 174t-31.5 266zM274 1260l261 266h159l258 -266h-184l-154 167l-157 -167h-183zM279 543 q0 -102 15 -175t41 -118.5t69 -72.5t91.5 -36.5t116.5 -9.5t116.5 9.5t91.5 36.5t69.5 72.5t41.5 118.5t15 175t-15 175t-41.5 118.5t-69.5 72t-91.5 36t-116.5 9.5t-116.5 -9.5t-91.5 -36t-69 -72t-41 -118.5t-15 -175zM719 1686v116q97 19 151 19q87 0 147 -42t60 -118 q0 -71 -59.5 -124.5t-163.5 -80.5l-49 90q131 36 131 96q0 62 -96 62q-38 0 -121 -18z" />
<glyph unicode="&#x1ed6;" horiz-adv-x="1363" d="M109 694q0 204 29 338.5t98 221t176.5 123t269.5 36.5q108 0 190.5 -16t147 -52t108 -91t72 -136t41 -184.5t12.5 -239.5q0 -269 -54.5 -422.5t-177.5 -222.5t-339 -69t-339.5 69t-178.5 222.5t-55 422.5zM281 694q0 -131 13 -223t40.5 -157.5t75.5 -103t113.5 -54.5 t158.5 -17q117 0 191 25.5t122 91t67 170t19 268.5q0 111 -7.5 191.5t-26.5 145t-48 105.5t-74.5 68t-104 38t-138.5 11t-138.5 -11t-104.5 -38t-75 -68t-48 -105t-27 -145t-8 -192zM340 1550l260 236h160l258 -236h-184l-154 148l-158 -148h-182zM369 1864q0 107 45.5 160 t144.5 53q44 0 82.5 -16t61 -34.5t50.5 -34.5t54 -16q75 0 78 92h121q0 -213 -191 -213q-45 0 -84 16t-61.5 34.5t-50.5 34.5t-54 16q-40 0 -57.5 -22t-20.5 -70h-118z" />
<glyph unicode="&#x1ed7;" d="M111 543q0 156 31.5 265t96.5 174.5t156 94.5t217 29t216.5 -29t156 -94.5t97.5 -174.5t32 -265t-32 -265.5t-97.5 -174.5t-156 -94t-216.5 -29q-127 0 -217.5 29t-155.5 94t-96.5 174t-31.5 266zM270 1243l260 236h160l258 -236h-184l-154 148l-157 -148h-183zM279 543 q0 -102 15 -175t41 -118.5t69 -72.5t91.5 -36.5t116.5 -9.5t116.5 9.5t91.5 36.5t69.5 72.5t41.5 118.5t15 175t-15 175t-41.5 118.5t-69.5 72t-91.5 36t-116.5 9.5t-116.5 -9.5t-91.5 -36t-69 -72t-41 -118.5t-15 -175zM299 1556q0 107 45.5 160t144.5 53q44 0 82.5 -15.5 t61 -34.5t50.5 -34.5t54 -15.5q75 0 78 92h121q0 -213 -191 -213q-45 0 -83.5 16t-61 34.5t-50.5 34.5t-54 16q-40 0 -57.5 -22.5t-20.5 -70.5h-119z" />
<glyph unicode="&#x1ed8;" horiz-adv-x="1363" d="M109 694q0 204 29 338.5t98 221t176.5 123t269.5 36.5q108 0 190.5 -16t147 -52t108 -91t72 -136t41 -184.5t12.5 -239.5q0 -269 -54.5 -422.5t-177.5 -222.5t-339 -69t-339.5 69t-178.5 222.5t-55 422.5zM281 694q0 -131 13 -223t40.5 -157.5t75.5 -103t113.5 -54.5 t158.5 -17q117 0 191 25.5t122 91t67 170t19 268.5q0 111 -7.5 191.5t-26.5 145t-48 105.5t-74.5 68t-104 38t-138.5 11t-138.5 -11t-104.5 -38t-75 -68t-48 -105t-27 -145t-8 -192zM328 1554l274 316h160l272 -316h-178l-174 211l-176 -211h-178zM584 -174h192v-180h-192 v180z" />
<glyph unicode="&#x1ed9;" d="M111 543q0 156 31.5 265t96.5 174.5t156 94.5t217 29t216.5 -29t156 -94.5t97.5 -174.5t32 -265t-32 -265.5t-97.5 -174.5t-156 -94t-216.5 -29q-127 0 -217.5 29t-155.5 94t-96.5 174t-31.5 266zM258 1247l274 316h160l273 -316h-179l-174 211l-176 -211h-178zM279 543 q0 -102 15 -175t41 -118.5t69 -72.5t91.5 -36.5t116.5 -9.5t116.5 9.5t91.5 36.5t69.5 72.5t41.5 118.5t15 175t-15 175t-41.5 118.5t-69.5 72t-91.5 36t-116.5 9.5t-116.5 -9.5t-91.5 -36t-69 -72t-41 -118.5t-15 -175zM514 -174h193v-180h-193v180z" />
<glyph unicode="&#x1eda;" horiz-adv-x="1363" d="M109 694q0 204 29 338.5t98 221t176.5 123t269.5 36.5q215 0 338 -67q51 60 51 198q0 61 -6 98h149q11 -55 11 -100q0 -190 -111 -272q73 -82 106 -222.5t33 -353.5q0 -269 -54.5 -422.5t-177.5 -222.5t-339 -69t-339.5 69t-178.5 222.5t-55 422.5zM281 694 q0 -131 13 -223t40.5 -157.5t75.5 -103t113.5 -54.5t158.5 -17q117 0 191 25.5t122 91t67 170t19 268.5q0 111 -7.5 191.5t-26.5 145t-48 105.5t-74.5 68t-104 38t-138.5 11t-138.5 -11t-104.5 -38t-75 -68t-48 -105t-27 -145t-8 -192zM563 1554l178 316h185l-213 -316h-150 z" />
<glyph unicode="&#x1edb;" d="M111 543q0 156 31.5 265t96.5 174.5t156 94.5t217 29q184 0 295 -64q49 61 49 195q0 61 -6 98h150q10 -50 10 -100q0 -190 -109 -270q113 -137 113 -422q0 -156 -32 -265.5t-97.5 -174.5t-156 -94t-216.5 -29q-127 0 -217.5 29t-155.5 94t-96.5 174t-31.5 266zM279 543 q0 -102 15 -175t41 -118.5t69 -72.5t91.5 -36.5t116.5 -9.5t116.5 9.5t91.5 36.5t69.5 72.5t41.5 118.5t15 175t-15 175t-41.5 118.5t-69.5 72t-91.5 36t-116.5 9.5t-116.5 -9.5t-91.5 -36t-69 -72t-41 -118.5t-15 -175zM469 1247l178 316h184l-213 -316h-149z" />
<glyph unicode="&#x1edc;" horiz-adv-x="1363" d="M109 694q0 204 29 338.5t98 221t176.5 123t269.5 36.5q215 0 338 -67q51 60 51 198q0 61 -6 98h149q11 -55 11 -100q0 -190 -111 -272q73 -82 106 -222.5t33 -353.5q0 -269 -54.5 -422.5t-177.5 -222.5t-339 -69t-339.5 69t-178.5 222.5t-55 422.5zM281 694 q0 -131 13 -223t40.5 -157.5t75.5 -103t113.5 -54.5t158.5 -17q117 0 191 25.5t122 91t67 170t19 268.5q0 111 -7.5 191.5t-26.5 145t-48 105.5t-74.5 68t-104 38t-138.5 11t-138.5 -11t-104.5 -38t-75 -68t-48 -105t-27 -145t-8 -192zM426 1870h184l178 -316h-149z" />
<glyph unicode="&#x1edd;" d="M111 543q0 156 31.5 265t96.5 174.5t156 94.5t217 29q184 0 295 -64q49 61 49 195q0 61 -6 98h150q10 -50 10 -100q0 -190 -109 -270q113 -137 113 -422q0 -156 -32 -265.5t-97.5 -174.5t-156 -94t-216.5 -29q-127 0 -217.5 29t-155.5 94t-96.5 174t-31.5 266zM279 543 q0 -102 15 -175t41 -118.5t69 -72.5t91.5 -36.5t116.5 -9.5t116.5 9.5t91.5 36.5t69.5 72.5t41.5 118.5t15 175t-15 175t-41.5 118.5t-69.5 72t-91.5 36t-116.5 9.5t-116.5 -9.5t-91.5 -36t-69 -72t-41 -118.5t-15 -175zM348 1563h184l179 -316h-150z" />
<glyph unicode="&#x1ede;" horiz-adv-x="1363" d="M109 694q0 204 29 338.5t98 221t176.5 123t269.5 36.5q215 0 338 -67q51 60 51 198q0 61 -6 98h149q11 -55 11 -100q0 -190 -111 -272q73 -82 106 -222.5t33 -353.5q0 -269 -54.5 -422.5t-177.5 -222.5t-339 -69t-339.5 69t-178.5 222.5t-55 422.5zM281 694 q0 -131 13 -223t40.5 -157.5t75.5 -103t113.5 -54.5t158.5 -17q117 0 191 25.5t122 91t67 170t19 268.5q0 111 -7.5 191.5t-26.5 145t-48 105.5t-74.5 68t-104 38t-138.5 11t-138.5 -11t-104.5 -38t-75 -68t-48 -105t-27 -145t-8 -192zM506 1802v115q88 18 172 18 q97 0 159 -44t62 -128q0 -75 -65.5 -135t-180.5 -88l-49 94q160 43 160 121q0 31 -27.5 50.5t-87.5 19.5q-49 0 -143 -23z" />
<glyph unicode="&#x1edf;" d="M111 543q0 156 31.5 265t96.5 174.5t156 94.5t217 29q184 0 295 -64q49 61 49 195q0 61 -6 98h150q10 -50 10 -100q0 -190 -109 -270q113 -137 113 -422q0 -156 -32 -265.5t-97.5 -174.5t-156 -94t-216.5 -29q-127 0 -217.5 29t-155.5 94t-96.5 174t-31.5 266zM279 543 q0 -102 15 -175t41 -118.5t69 -72.5t91.5 -36.5t116.5 -9.5t116.5 9.5t91.5 36.5t69.5 72.5t41.5 118.5t15 175t-15 175t-41.5 118.5t-69.5 72t-91.5 36t-116.5 9.5t-116.5 -9.5t-91.5 -36t-69 -72t-41 -118.5t-15 -175zM397 1495v115q88 18 172 18q98 0 160 -44t62 -128 q0 -75 -65.5 -135t-180.5 -88l-49 94q159 43 159 121q0 70 -114 70q-50 0 -144 -23z" />
<glyph unicode="&#x1ee0;" horiz-adv-x="1363" d="M109 694q0 204 29 338.5t98 221t176.5 123t269.5 36.5q215 0 338 -67q51 60 51 198q0 61 -6 98h149q11 -55 11 -100q0 -190 -111 -272q73 -82 106 -222.5t33 -353.5q0 -269 -54.5 -422.5t-177.5 -222.5t-339 -69t-339.5 69t-178.5 222.5t-55 422.5zM281 694 q0 -131 13 -223t40.5 -157.5t75.5 -103t113.5 -54.5t158.5 -17q117 0 191 25.5t122 91t67 170t19 268.5q0 111 -7.5 191.5t-26.5 145t-48 105.5t-74.5 68t-104 38t-138.5 11t-138.5 -11t-104.5 -38t-75 -68t-48 -105t-27 -145t-8 -192zM291 1552q0 230 198 230 q48 0 91 -17.5t69.5 -39t58.5 -39t60 -17.5q43 0 62 25t22 82h121q0 -230 -199 -230q-47 0 -90 17.5t-69 39t-58 39t-59 17.5q-44 0 -63 -25.5t-21 -81.5h-123z" />
<glyph unicode="&#x1ee1;" d="M111 543q0 156 31.5 265t96.5 174.5t156 94.5t217 29q184 0 295 -64q49 61 49 195q0 61 -6 98h150q10 -50 10 -100q0 -190 -109 -270q113 -137 113 -422q0 -156 -32 -265.5t-97.5 -174.5t-156 -94t-216.5 -29q-127 0 -217.5 29t-155.5 94t-96.5 174t-31.5 266zM174 1245 q0 230 199 230q48 0 91 -17.5t69 -39t58 -39t60 -17.5q43 0 62 24.5t22 81.5h121q0 -113 -48 -171t-151 -58q-47 0 -90 17.5t-69 39t-58 39t-59 17.5q-44 0 -63 -25.5t-21 -81.5h-123zM279 543q0 -102 15 -175t41 -118.5t69 -72.5t91.5 -36.5t116.5 -9.5t116.5 9.5 t91.5 36.5t69.5 72.5t41.5 118.5t15 175t-15 175t-41.5 118.5t-69.5 72t-91.5 36t-116.5 9.5t-116.5 -9.5t-91.5 -36t-69 -72t-41 -118.5t-15 -175z" />
<glyph unicode="&#x1ee2;" horiz-adv-x="1363" d="M109 694q0 204 29 338.5t98 221t176.5 123t269.5 36.5q215 0 338 -67q51 60 51 198q0 61 -6 98h149q11 -55 11 -100q0 -190 -111 -272q73 -82 106 -222.5t33 -353.5q0 -269 -54.5 -422.5t-177.5 -222.5t-339 -69t-339.5 69t-178.5 222.5t-55 422.5zM281 694 q0 -131 13 -223t40.5 -157.5t75.5 -103t113.5 -54.5t158.5 -17q117 0 191 25.5t122 91t67 170t19 268.5q0 111 -7.5 191.5t-26.5 145t-48 105.5t-74.5 68t-104 38t-138.5 11t-138.5 -11t-104.5 -38t-75 -68t-48 -105t-27 -145t-8 -192zM588 -174h192v-180h-192v180z" />
<glyph unicode="&#x1ee3;" d="M111 543q0 156 31.5 265t96.5 174.5t156 94.5t217 29q184 0 295 -64q49 61 49 195q0 61 -6 98h150q10 -50 10 -100q0 -190 -109 -270q113 -137 113 -422q0 -156 -32 -265.5t-97.5 -174.5t-156 -94t-216.5 -29q-127 0 -217.5 29t-155.5 94t-96.5 174t-31.5 266zM279 543 q0 -102 15 -175t41 -118.5t69 -72.5t91.5 -36.5t116.5 -9.5t116.5 9.5t91.5 36.5t69.5 72.5t41.5 118.5t15 175t-15 175t-41.5 118.5t-69.5 72t-91.5 36t-116.5 9.5t-116.5 -9.5t-91.5 -36t-69 -72t-41 -118.5t-15 -175zM514 -174h193v-180h-193v180z" />
<glyph unicode="&#x1ee4;" horiz-adv-x="1353" d="M150 428v965h167v-959q0 -172 81 -233.5t280 -61.5q99 0 163.5 13t110 46t65 90t19.5 146v959h168v-965q0 -128 -30.5 -214.5t-97.5 -138t-162.5 -73.5t-235.5 -22q-141 0 -237 22t-163 74t-97.5 138t-30.5 214zM580 -174h192v-180h-192v180z" />
<glyph unicode="&#x1ee5;" d="M158 305v780h164v-747q0 -116 55 -161.5t194 -45.5q168 0 322 64v890h164v-1085h-131l-23 76q-158 -96 -366 -96q-144 0 -228.5 38t-117.5 107t-33 180zM510 -174h192v-180h-192v180z" />
<glyph unicode="&#x1ee6;" horiz-adv-x="1353" d="M150 428v965h167v-959q0 -172 81 -233.5t280 -61.5q99 0 163.5 13t110 46t65 90t19.5 146v959h168v-965q0 -128 -30.5 -214.5t-97.5 -138t-162.5 -73.5t-235.5 -22q-141 0 -237 22t-163 74t-97.5 138t-30.5 214zM508 1802v115q88 18 172 18q97 0 159 -44t62 -128 q0 -75 -65.5 -135t-180.5 -88l-49 94q160 43 160 121q0 31 -27.5 50.5t-87.5 19.5q-49 0 -143 -23z" />
<glyph unicode="&#x1ee7;" d="M158 305v780h164v-747q0 -116 55 -161.5t194 -45.5q168 0 322 64v890h164v-1085h-131l-23 76q-158 -96 -366 -96q-144 0 -228.5 38t-117.5 107t-33 180zM426 1495v115q88 18 172 18q97 0 159 -44t62 -128q0 -75 -65.5 -135t-180.5 -88l-49 94q160 43 160 121 q0 31 -27.5 50.5t-87.5 19.5q-49 0 -143 -23z" />
<glyph unicode="&#x1ee8;" horiz-adv-x="1372" d="M150 428v965h167v-959q0 -172 81 -233.5t280 -61.5q99 0 163.5 13t110 46t65 90t19.5 146v959h92q76 0 108 33.5t32 107.5q0 61 -6 125h149q10 -55 10 -133q0 -214 -217 -246v-852q0 -128 -30.5 -214.5t-97.5 -138t-162.5 -73.5t-235.5 -22q-141 0 -237 22t-163 74 t-97.5 138t-30.5 214zM575 1554l179 316h184l-213 -316h-150z" />
<glyph unicode="&#x1ee9;" horiz-adv-x="1269" d="M158 305v780h164v-747q0 -116 55 -161.5t194 -45.5q168 0 322 64v890h88q75 0 107 33.5t32 108.5q0 61 -6 125h150q10 -55 10 -133q0 -214 -217 -246v-973h-131l-23 76q-158 -96 -366 -96q-144 0 -228.5 38t-117.5 107t-33 180zM510 1247l178 316h184l-213 -316h-149z " />
<glyph unicode="&#x1eea;" horiz-adv-x="1372" d="M150 428v965h167v-959q0 -172 81 -233.5t280 -61.5q99 0 163.5 13t110 46t65 90t19.5 146v959h92q76 0 108 33.5t32 107.5q0 61 -6 125h149q10 -55 10 -133q0 -214 -217 -246v-852q0 -128 -30.5 -214.5t-97.5 -138t-162.5 -73.5t-235.5 -22q-141 0 -237 22t-163 74 t-97.5 138t-30.5 214zM432 1870h184l179 -316h-150z" />
<glyph unicode="&#x1eeb;" horiz-adv-x="1269" d="M158 305v780h164v-747q0 -116 55 -161.5t194 -45.5q168 0 322 64v890h88q75 0 107 33.5t32 108.5q0 61 -6 125h150q10 -55 10 -133q0 -214 -217 -246v-973h-131l-23 76q-158 -96 -366 -96q-144 0 -228.5 38t-117.5 107t-33 180zM348 1563h184l179 -316h-150z" />
<glyph unicode="&#x1eec;" horiz-adv-x="1372" d="M150 428v965h167v-959q0 -172 81 -233.5t280 -61.5q99 0 163.5 13t110 46t65 90t19.5 146v959h92q76 0 108 33.5t32 107.5q0 61 -6 125h149q10 -55 10 -133q0 -214 -217 -246v-852q0 -128 -30.5 -214.5t-97.5 -138t-162.5 -73.5t-235.5 -22q-141 0 -237 22t-163 74 t-97.5 138t-30.5 214zM518 1802v115q88 18 172 18q97 0 159 -44t62 -128q0 -76 -65 -135.5t-180 -87.5l-50 94q160 43 160 121q0 70 -114 70q-50 0 -144 -23z" />
<glyph unicode="&#x1eed;" horiz-adv-x="1269" d="M158 305v780h164v-747q0 -116 55 -161.5t194 -45.5q168 0 322 64v890h88q75 0 107 33.5t32 108.5q0 61 -6 125h150q10 -55 10 -133q0 -214 -217 -246v-973h-131l-23 76q-158 -96 -366 -96q-144 0 -228.5 38t-117.5 107t-33 180zM428 1495v115q88 18 172 18q97 0 159 -44 t62 -128q0 -75 -65.5 -135t-180.5 -88l-49 94q160 43 160 121q0 31 -27.5 50.5t-87.5 19.5q-49 0 -143 -23z" />
<glyph unicode="&#x1eee;" horiz-adv-x="1372" d="M150 428v965h167v-959q0 -172 81 -233.5t280 -61.5q99 0 163.5 13t110 46t65 90t19.5 146v959h92q76 0 108 33.5t32 107.5q0 61 -6 125h149q10 -55 10 -133q0 -214 -217 -246v-852q0 -128 -30.5 -214.5t-97.5 -138t-162.5 -73.5t-235.5 -22q-141 0 -237 22t-163 74 t-97.5 138t-30.5 214zM342 1552q0 230 199 230q48 0 91 -17.5t69 -39t58 -39t60 -17.5q43 0 62 25t22 82h121q0 -230 -199 -230q-47 0 -90 17.5t-69 39t-58 39t-59 17.5q-44 0 -63 -25.5t-21 -81.5h-123z" />
<glyph unicode="&#x1eef;" horiz-adv-x="1269" d="M158 305v780h164v-747q0 -116 55 -161.5t194 -45.5q168 0 322 64v890h88q75 0 107 33.5t32 108.5q0 61 -6 125h150q10 -55 10 -133q0 -214 -217 -246v-973h-131l-23 76q-158 -96 -366 -96q-144 0 -228.5 38t-117.5 107t-33 180zM262 1245q0 230 199 230q48 0 91 -17.5 t69 -39t58 -39t60 -17.5q43 0 62 24.5t22 81.5h121q0 -113 -48 -171t-151 -58q-47 0 -90 17.5t-69 39t-58 39t-59 17.5q-44 0 -63 -25.5t-21 -81.5h-123z" />
<glyph unicode="&#x1ef0;" horiz-adv-x="1372" d="M150 428v965h167v-959q0 -172 81 -233.5t280 -61.5q99 0 163.5 13t110 46t65 90t19.5 146v959h92q76 0 108 33.5t32 107.5q0 61 -6 125h149q10 -55 10 -133q0 -214 -217 -246v-852q0 -128 -30.5 -214.5t-97.5 -138t-162.5 -73.5t-235.5 -22q-141 0 -237 22t-163 74 t-97.5 138t-30.5 214zM584 -174h192v-180h-192v180z" />
<glyph unicode="&#x1ef1;" horiz-adv-x="1269" d="M158 305v780h164v-747q0 -116 55 -161.5t194 -45.5q168 0 322 64v890h88q75 0 107 33.5t32 108.5q0 61 -6 125h150q10 -55 10 -133q0 -214 -217 -246v-973h-131l-23 76q-158 -96 -366 -96q-144 0 -228.5 38t-117.5 107t-33 180zM492 -174h192v-180h-192v180z" />
<glyph unicode="&#x1ef2;" horiz-adv-x="1234" d="M23 1393h186l409 -713l408 713h186l-510 -879v-514h-167v514zM346 1870h184l179 -316h-150z" />
<glyph unicode="&#x1ef3;" horiz-adv-x="1079" d="M35 1085h172l336 -901l323 901h178l-354 -917q-73 -187 -190.5 -333.5t-317.5 -264.5l-78 125q259 180 349 336zM297 1563h184l178 -316h-149z" />
<glyph unicode="&#x1ef4;" horiz-adv-x="1234" d="M23 1393h186l407 -713l410 713h186l-512 -879v-514h-168v514zM520 -174h193v-180h-193v180z" />
<glyph unicode="&#x1ef5;" horiz-adv-x="1079" d="M35 1085h172l336 -901l323 901h178l-354 -917q-73 -187 -190.5 -333.5t-317.5 -264.5l-78 125q259 180 349 336zM612 -174h193v-180h-193v180z" />
<glyph unicode="&#x1ef6;" horiz-adv-x="1234" d="M23 1393h186l407 -713l410 713h186l-512 -879v-514h-168v514zM457 1802v115q88 18 172 18q97 0 159 -44t62 -128q0 -75 -65.5 -135t-180.5 -88l-49 94q160 43 160 121q0 31 -27.5 50.5t-87.5 19.5q-49 0 -143 -23z" />
<glyph unicode="&#x1ef7;" horiz-adv-x="1079" d="M35 1085h172l336 -901l323 901h178l-354 -917q-73 -187 -190.5 -333.5t-317.5 -264.5l-78 125q259 180 349 336zM369 1495v115q88 18 172 18q97 0 159 -44t62 -128q0 -75 -65.5 -135t-180.5 -88l-49 94q160 43 160 121q0 31 -27.5 50.5t-87.5 19.5q-49 0 -143 -23z" />
<glyph unicode="&#x1ef8;" horiz-adv-x="1234" d="M23 1393h186l407 -713l410 713h186l-512 -879v-514h-168v514zM276 1552q0 230 199 230q48 0 91 -17.5t69.5 -39t58.5 -39t60 -17.5q43 0 62 25t22 82h120q0 -114 -47.5 -172t-150.5 -58q-47 0 -90 17.5t-69.5 39t-58.5 39t-59 17.5q-44 0 -63 -25.5t-21 -81.5h-123z" />
<glyph unicode="&#x1ef9;" horiz-adv-x="1079" d="M35 1085h172l336 -901l323 901h178l-354 -917q-73 -187 -190.5 -333.5t-317.5 -264.5l-78 125q259 180 349 336zM199 1245q0 230 198 230q48 0 91 -17.5t69.5 -39t58.5 -39t60 -17.5q43 0 62 24.5t22 81.5h121q0 -113 -48 -171t-151 -58q-47 0 -90 17.5t-69 39t-58 39 t-59 17.5q-44 0 -63 -25.5t-21 -81.5h-123z" />
<glyph unicode="&#x2000;" horiz-adv-x="1191" />
<glyph unicode="&#x2001;" horiz-adv-x="2382" />
<glyph unicode="&#x2002;" horiz-adv-x="1191" />
<glyph unicode="&#x2003;" horiz-adv-x="2382" />
<glyph unicode="&#x2004;" horiz-adv-x="794" />
<glyph unicode="&#x2005;" horiz-adv-x="595" />
<glyph unicode="&#x2006;" horiz-adv-x="397" />
<glyph unicode="&#x2007;" horiz-adv-x="397" />
<glyph unicode="&#x2008;" horiz-adv-x="297" />
<glyph unicode="&#x2009;" horiz-adv-x="476" />
<glyph unicode="&#x200a;" horiz-adv-x="132" />
<glyph unicode="&#x2010;" horiz-adv-x="1019" d="M166 541v147h688v-147h-688z" />
<glyph unicode="&#x2011;" horiz-adv-x="1019" d="M166 541v147h688v-147h-688z" />
<glyph unicode="&#x2012;" horiz-adv-x="1019" d="M166 541v147h688v-147h-688z" />
<glyph unicode="&#x2013;" horiz-adv-x="1187" d="M166 541v147h858v-147h-858z" />
<glyph unicode="&#x2014;" horiz-adv-x="1538" d="M166 541v147h1206v-147h-1206z" />
<glyph unicode="&#x2018;" horiz-adv-x="428" d="M135 1020l88 455h119l-33 -455h-174z" />
<glyph unicode="&#x2019;" horiz-adv-x="428" d="M111 1020l32 455h174l-88 -455h-118z" />
<glyph unicode="&#x201a;" horiz-adv-x="428" d="M111 -328l32 455h174l-88 -455h-118z" />
<glyph unicode="&#x201c;" horiz-adv-x="735" d="M111 1020l88 455h118l-32 -455h-174zM418 1020l88 455h119l-33 -455h-174z" />
<glyph unicode="&#x201d;" horiz-adv-x="735" d="M111 1020l32 455h174l-88 -455h-118zM418 1020l33 455h174l-88 -455h-119z" />
<glyph unicode="&#x201e;" horiz-adv-x="735" d="M111 -328l32 455h174l-88 -455h-118zM418 -328l33 455h174l-88 -455h-119z" />
<glyph unicode="&#x2020;" horiz-adv-x="1161" d="M111 1069v143h389v263h159v-263h392v-143h-392v-844h-159v844h-389z" />
<glyph unicode="&#x2021;" horiz-adv-x="1161" d="M111 487v144h389v438h-389v143h389v263h159v-263h392v-143h-392v-438h392v-144h-392v-262h-159v262h-389z" />
<glyph unicode="&#x2022;" horiz-adv-x="591" d="M113 631q0 112 36.5 147t147.5 35q110 0 146 -35.5t36 -146.5q0 -113 -36 -149t-146 -36q-111 0 -147.5 36t-36.5 149z" />
<glyph unicode="&#x2026;" horiz-adv-x="1107" d="M113 0v199h190v-199h-190zM459 0v199h190v-199h-190zM805 0v199h190v-199h-190z" />
<glyph unicode="&#x202f;" horiz-adv-x="476" />
<glyph unicode="&#x2039;" horiz-adv-x="690" d="M111 625l309 448h160l-275 -448l254 -449h-160z" />
<glyph unicode="&#x203a;" horiz-adv-x="665" d="M86 1073h160l309 -448l-289 -449h-160l254 449z" />
<glyph unicode="&#x205f;" horiz-adv-x="595" />
<glyph unicode="&#x20ac;" horiz-adv-x="1277" d="M111 514v115h153v67v68h-153v115h161q25 281 152 407.5t393 126.5q211 0 363 -53v-162q-145 55 -338 55q-108 0 -178.5 -17.5t-119 -61.5t-72.5 -114.5t-34 -180.5h539l-27 -115h-518v-68v-67h494l-25 -115h-463q19 -215 106 -295t298 -80q190 0 338 56v-162 q-152 -53 -363 -53q-263 0 -391 123t-154 411h-161z" />
<glyph unicode="&#x2122;" horiz-adv-x="1527" d="M111 1286v107h536v-107h-213v-487h-108v487h-215zM786 799v594h140l176 -240l180 240h135v-594h-110v461l-205 -277l-205 277v-461h-111z" />
<glyph unicode="&#x25ca;" horiz-adv-x="1275" d="M109 694l438 699h182l438 -699l-438 -694h-182zM293 694l346 -549l346 549l-346 553z" />
<glyph unicode="&#x25fc;" horiz-adv-x="1085" d="M0 0v1085h1085v-1085h-1085z" />
<glyph unicode="&#xf8ff;" horiz-adv-x="567" d="M162 508v199h190v-199h-190z" />
</font>
</defs>
</svg>
